<svg width="1441" height="989" viewBox="0 0 1441 989" fill="none" xmlns="http://www.w3.org/2000/svg">
<path d="M0 989V0H1441V626.13C1441 989 0 626.13 0 989Z" fill="url(#paint0_linear_110_332)"/>
<circle cx="380.634" cy="138.601" r="1.6" transform="rotate(-105 380.634 138.601)" fill="white"/>
<circle cx="330.96" cy="72.989" r="1.6" transform="rotate(-15 330.96 72.989)" fill="white"/>
<circle cx="542.96" cy="202.96" r="1.6" transform="rotate(-15 542.96 202.96)" fill="white"/>
<circle cx="168.741" cy="226.623" r="1.6" transform="rotate(-84.6828 168.741 226.623)" fill="white"/>
<circle cx="38.7414" cy="226.623" r="1.6" transform="rotate(-84.6828 38.7414 226.623)" fill="white"/>
<circle cx="362.604" cy="90.6324" r="1.6" transform="rotate(-105 362.604 90.6324)" fill="white"/>
<circle cx="378.928" cy="54.9595" r="1.6" transform="rotate(-15 378.928 54.9595)" fill="white"/>
<circle cx="718.928" cy="188.96" r="1.6" transform="rotate(-15 718.928 188.96)" fill="white"/>
<circle cx="216.712" cy="56.7412" r="1.6" transform="rotate(-84.6828 216.712 56.7412)" fill="white"/>
<circle cx="86.7117" cy="56.7412" r="1.6" transform="rotate(-84.6828 86.7117 56.7412)" fill="white"/>
<circle cx="12.6" cy="163.6" r="1.6" fill="white"/>
<ellipse cx="937.5" cy="722" rx="2.5" ry="2" fill="white"/>
<circle cx="982.634" cy="426.691" r="1.6" transform="rotate(-105 982.634 426.691)" fill="white"/>
<circle cx="348.634" cy="699.601" r="1.6" transform="rotate(-105 348.634 699.601)" fill="white"/>
<circle cx="88.8326" cy="132.6" r="1.6" transform="rotate(90 88.8326 132.6)" fill="white"/>
<ellipse cx="1041.5" cy="586" rx="2" ry="2.5" transform="rotate(90 1041.5 586)" fill="white"/>
<circle cx="932.96" cy="361.079" r="1.6" transform="rotate(-15 932.96 361.079)" fill="white"/>
<circle cx="298.96" cy="633.989" r="1.6" transform="rotate(-15 298.96 633.989)" fill="white"/>
<circle cx="510.96" cy="180.96" r="1.6" transform="rotate(-15 510.96 180.96)" fill="white"/>
<circle cx="510.96" cy="763.959" r="1.6" transform="rotate(-15 510.96 763.959)" fill="white"/>
<circle cx="136.741" cy="787.623" r="1.6" transform="rotate(-84.6828 136.741 787.623)" fill="white"/>
<circle cx="6.74139" cy="787.623" r="1.6" transform="rotate(-84.6828 6.74139 787.623)" fill="white"/>
<circle cx="310.969" cy="260.254" r="1.6" transform="rotate(39.9627 310.969 260.254)" fill="white"/>
<circle cx="41.254" cy="202.254" r="1.6" transform="rotate(39.9627 41.254 202.254)" fill="white"/>
<ellipse cx="2.20585" cy="2.178" rx="2.20585" ry="2.178" transform="matrix(0.788819 0.614626 -0.669477 0.742833 996.916 752)" fill="white"/>
<circle cx="998.771" cy="113.472" r="1.6" transform="rotate(-65.0373 998.771 113.472)" fill="white"/>
<circle cx="1246.18" cy="377.216" r="1.6" transform="rotate(24.9627 1246.18 377.216)" fill="white"/>
<circle cx="63.6" cy="158.6" r="1.6" fill="white"/>
<circle cx="835" cy="528" r="2" fill="white"/>
<circle cx="964.604" cy="378.722" r="1.6" transform="rotate(-105 964.604 378.722)" fill="white"/>
<circle cx="330.604" cy="651.632" r="1.6" transform="rotate(-105 330.604 651.632)" fill="white"/>
<circle cx="93.8326" cy="183.6" r="1.6" transform="rotate(90 93.8326 183.6)" fill="white"/>
<circle cx="830.5" cy="717.5" r="2.5" transform="rotate(90 830.5 717.5)" fill="white"/>
<circle cx="980.928" cy="343.049" r="1.6" transform="rotate(-15 980.928 343.049)" fill="white"/>
<circle cx="346.928" cy="615.959" r="1.6" transform="rotate(-15 346.928 615.959)" fill="white"/>
<circle cx="686.928" cy="166.96" r="1.6" transform="rotate(-15 686.928 166.96)" fill="white"/>
<circle cx="686.928" cy="749.959" r="1.6" transform="rotate(-15 686.928 749.959)" fill="white"/>
<circle cx="184.712" cy="617.741" r="1.6" transform="rotate(-84.6828 184.712 617.741)" fill="white"/>
<circle cx="54.7117" cy="617.741" r="1.6" transform="rotate(-84.6828 54.7117 617.741)" fill="white"/>
<circle cx="353.27" cy="289.179" r="1.6" transform="rotate(39.9627 353.27 289.179)" fill="white"/>
<circle cx="83.555" cy="231.179" r="1.6" transform="rotate(39.9627 83.555 231.179)" fill="white"/>
<ellipse cx="2.20585" cy="2.178" rx="2.20585" ry="2.178" transform="matrix(0.788819 0.614626 -0.669477 0.742833 852.916 750)" fill="white"/>
<circle cx="1015.76" cy="65.1258" r="1.6" transform="rotate(-65.0373 1015.76 65.1258)" fill="white"/>
<circle cx="1294.52" cy="394.206" r="1.6" transform="rotate(24.9627 1294.52 394.206)" fill="white"/>
<circle cx="18.1786" cy="430.969" r="1.6" transform="rotate(129.963 18.1786 430.969)" fill="white"/>
<circle cx="18.1786" cy="430.969" r="1.6" transform="rotate(129.963 18.1786 430.969)" fill="white"/>
<defs>
<linearGradient id="paint0_linear_110_332" x1="1006.7" y1="1025.07" x2="627.48" y2="-750.55" gradientUnits="userSpaceOnUse">
<stop offset="0.17888"/>
<stop offset="0.356575" stop-color="#080096"/>
<stop offset="0.54099" stop-color="#0D00FF"/>
<stop offset="0.942637" stop-color="white"/>
<stop offset="1" stop-color="white"/>
<stop offset="1" stop-color="#291DFF"/>
</linearGradient>
</defs>
</svg>
