<svg width="139" height="23" viewBox="0 0 139 23" fill="none" xmlns="http://www.w3.org/2000/svg">
<path d="M0.721591 18V0.545454H7.26705C8.60795 0.545454 9.73295 0.795454 10.642 1.29545C11.5568 1.79545 12.2472 2.48295 12.7131 3.35795C13.1847 4.22727 13.4205 5.21591 13.4205 6.32386C13.4205 7.44318 13.1847 8.4375 12.7131 9.30682C12.2415 10.1761 11.5455 10.8608 10.625 11.3608C9.70455 11.8551 8.57102 12.1023 7.22443 12.1023H2.88636V9.50284H6.7983C7.58239 9.50284 8.22443 9.36648 8.72443 9.09375C9.22443 8.82102 9.59375 8.44602 9.83239 7.96875C10.0767 7.49148 10.1989 6.94318 10.1989 6.32386C10.1989 5.70455 10.0767 5.15909 9.83239 4.6875C9.59375 4.21591 9.22159 3.84943 8.71591 3.58807C8.21591 3.32102 7.57102 3.1875 6.78125 3.1875H3.88352V18H0.721591ZM19.5632 18.2642C18.7337 18.2642 17.9865 18.1165 17.3217 17.821C16.6626 17.5199 16.1399 17.0767 15.7536 16.4915C15.3729 15.9062 15.1825 15.1847 15.1825 14.3267C15.1825 13.5881 15.3189 12.9773 15.5916 12.4943C15.8643 12.0114 16.2365 11.625 16.7081 11.3352C17.1797 11.0455 17.7109 10.8267 18.3018 10.679C18.8984 10.5256 19.5149 10.4148 20.1513 10.3466C20.9183 10.267 21.5405 10.196 22.0178 10.1335C22.495 10.0653 22.8416 9.96307 23.0575 9.8267C23.2791 9.68466 23.3899 9.46591 23.3899 9.17045V9.11932C23.3899 8.47727 23.1996 7.98011 22.8189 7.62784C22.4382 7.27557 21.8899 7.09943 21.174 7.09943C20.4183 7.09943 19.8189 7.2642 19.3757 7.59375C18.9382 7.9233 18.6428 8.3125 18.4893 8.76136L15.6087 8.35227C15.8359 7.55682 16.2109 6.89205 16.7337 6.35795C17.2564 5.81818 17.8956 5.41477 18.6513 5.14773C19.407 4.875 20.2422 4.73864 21.157 4.73864C21.7876 4.73864 22.4155 4.8125 23.0405 4.96023C23.6655 5.10795 24.2365 5.35227 24.7536 5.69318C25.2706 6.02841 25.6854 6.4858 25.9979 7.06534C26.3161 7.64489 26.4751 8.36932 26.4751 9.23864V18H23.5092V16.2017H23.407C23.2195 16.5653 22.9553 16.9062 22.6143 17.2244C22.2791 17.5369 21.8558 17.7898 21.3445 17.983C20.8388 18.1705 20.245 18.2642 19.5632 18.2642ZM20.3643 15.9972C20.9837 15.9972 21.5206 15.875 21.9751 15.6307C22.4297 15.3807 22.7791 15.0511 23.0234 14.642C23.2734 14.233 23.3984 13.7869 23.3984 13.304V11.7614C23.3018 11.8409 23.1371 11.9148 22.9041 11.983C22.6768 12.0511 22.4212 12.1108 22.1371 12.1619C21.853 12.2131 21.5717 12.2585 21.2933 12.2983C21.0149 12.3381 20.7734 12.3722 20.5689 12.4006C20.1087 12.4631 19.6967 12.5653 19.3331 12.7074C18.9695 12.8494 18.6825 13.0483 18.4723 13.304C18.2621 13.554 18.157 13.8778 18.157 14.2756C18.157 14.8438 18.3643 15.2727 18.7791 15.5625C19.1939 15.8523 19.7223 15.9972 20.3643 15.9972ZM29.5774 22.9091V4.90909H32.6115V7.07386H32.7905C32.9496 6.75568 33.174 6.41761 33.4638 6.05966C33.7536 5.69602 34.1456 5.38636 34.6399 5.13068C35.1342 4.86932 35.7649 4.73864 36.532 4.73864C37.5433 4.73864 38.4553 4.99716 39.2678 5.5142C40.0859 6.02557 40.7337 6.78409 41.2109 7.78977C41.6939 8.78977 41.9354 10.017 41.9354 11.4716C41.9354 12.9091 41.6996 14.1307 41.228 15.1364C40.7564 16.142 40.1143 16.9091 39.3018 17.4375C38.4893 17.9659 37.5689 18.2301 36.5405 18.2301C35.7905 18.2301 35.1683 18.1051 34.674 17.8551C34.1797 17.6051 33.782 17.304 33.4808 16.9517C33.1854 16.5937 32.9553 16.2557 32.7905 15.9375H32.6626V22.9091H29.5774ZM32.603 11.4545C32.603 12.3011 32.7223 13.0426 32.9609 13.679C33.2053 14.3153 33.5547 14.8125 34.0092 15.1705C34.4695 15.5227 35.0263 15.6989 35.6797 15.6989C36.3615 15.6989 36.9325 15.517 37.3928 15.1534C37.853 14.7841 38.1996 14.2812 38.4325 13.6449C38.6712 13.0028 38.7905 12.2727 38.7905 11.4545C38.7905 10.642 38.674 9.92045 38.4411 9.28977C38.2081 8.65909 37.8615 8.16477 37.4013 7.80682C36.9411 7.44886 36.3672 7.26989 35.6797 7.26989C35.0206 7.26989 34.4609 7.44318 34.0007 7.78977C33.5405 8.13636 33.1911 8.62216 32.9524 9.24716C32.7195 9.87216 32.603 10.608 32.603 11.4545ZM50.3729 18.2557C49.0604 18.2557 47.9268 17.983 46.9723 17.4375C46.0234 16.8864 45.2933 16.108 44.782 15.1023C44.2706 14.0909 44.0149 12.9006 44.0149 11.5312C44.0149 10.1847 44.2706 9.00284 44.782 7.9858C45.299 6.96307 46.0206 6.16761 46.9467 5.59943C47.8729 5.02557 48.9609 4.73864 50.2109 4.73864C51.0178 4.73864 51.7791 4.86932 52.495 5.13068C53.2166 5.38636 53.853 5.78409 54.4041 6.32386C54.9609 6.86364 55.3984 7.55114 55.7166 8.38636C56.0348 9.21591 56.1939 10.2045 56.1939 11.3523V12.2983H45.4638V10.2188H53.2365C53.2308 9.62784 53.103 9.10227 52.853 8.64205C52.603 8.17614 52.2536 7.80966 51.8047 7.54261C51.3615 7.27557 50.8445 7.14205 50.2536 7.14205C49.6229 7.14205 49.0689 7.29545 48.5916 7.60227C48.1143 7.90341 47.7422 8.30114 47.4751 8.79545C47.2138 9.28409 47.0803 9.82102 47.0746 10.4062V12.2216C47.0746 12.983 47.2138 13.6364 47.4922 14.1818C47.7706 14.7216 48.1598 15.1364 48.6598 15.4261C49.1598 15.7102 49.745 15.8523 50.4155 15.8523C50.8643 15.8523 51.2706 15.7898 51.6342 15.6648C51.9979 15.5341 52.3132 15.3438 52.5803 15.0938C52.8473 14.8438 53.049 14.5341 53.1854 14.1648L56.0661 14.4886C55.8842 15.25 55.5376 15.9148 55.0263 16.483C54.5206 17.0455 53.8729 17.483 53.0831 17.7955C52.2933 18.1023 51.3899 18.2557 50.3729 18.2557ZM58.804 18V4.90909H61.7955V7.09091H61.9318C62.1705 6.33523 62.5795 5.75284 63.1591 5.34375C63.7443 4.92898 64.4119 4.72159 65.1619 4.72159C65.3324 4.72159 65.5227 4.73011 65.733 4.74716C65.9489 4.75852 66.1278 4.77841 66.2699 4.80682V7.64489C66.1392 7.59943 65.9318 7.55966 65.6477 7.52557C65.3693 7.4858 65.0994 7.46591 64.8381 7.46591C64.2756 7.46591 63.7699 7.58807 63.321 7.83239C62.8778 8.07102 62.5284 8.40341 62.2727 8.82955C62.017 9.25568 61.8892 9.74716 61.8892 10.304V18H58.804ZM68.456 18V0.545454H75.1378C76.3991 0.545454 77.4474 0.744318 78.2827 1.14204C79.1236 1.53409 79.7514 2.07102 80.1662 2.75284C80.5866 3.43466 80.7969 4.20739 80.7969 5.07102C80.7969 5.78125 80.6605 6.3892 80.3878 6.89489C80.1151 7.39489 79.7486 7.80114 79.2884 8.11364C78.8281 8.42614 78.3139 8.65057 77.7457 8.78693V8.95739C78.3651 8.99148 78.9588 9.18182 79.527 9.52841C80.1009 9.86932 80.5696 10.3523 80.9332 10.9773C81.2969 11.6023 81.4787 12.358 81.4787 13.2443C81.4787 14.1477 81.2599 14.9602 80.8224 15.6818C80.3849 16.3977 79.7259 16.9631 78.8452 17.3778C77.9645 17.7926 76.8565 18 75.5213 18H68.456ZM71.6179 15.358H75.0185C76.1662 15.358 76.9929 15.1392 77.4986 14.7017C78.0099 14.2585 78.2656 13.6903 78.2656 12.9972C78.2656 12.4801 78.1378 12.0142 77.8821 11.5994C77.6264 11.179 77.2628 10.8494 76.7912 10.6108C76.3196 10.3665 75.7571 10.2443 75.1037 10.2443H71.6179V15.358ZM71.6179 7.96875H74.7457C75.2912 7.96875 75.7827 7.86932 76.2202 7.67045C76.6577 7.46591 77.0014 7.17898 77.2514 6.80966C77.5071 6.43466 77.6349 5.99148 77.6349 5.48011C77.6349 4.80398 77.3963 4.24716 76.919 3.80966C76.4474 3.37216 75.7457 3.15341 74.8139 3.15341H71.6179V7.96875ZM84.093 18V4.90909H87.0845V7.09091H87.2209C87.4595 6.33523 87.8686 5.75284 88.4482 5.34375C89.0334 4.92898 89.701 4.72159 90.451 4.72159C90.6214 4.72159 90.8118 4.73011 91.022 4.74716C91.2379 4.75852 91.4169 4.77841 91.5589 4.80682V7.64489C91.4283 7.59943 91.2209 7.55966 90.9368 7.52557C90.6584 7.4858 90.3885 7.46591 90.1271 7.46591C89.5646 7.46591 89.0589 7.58807 88.6101 7.83239C88.1669 8.07102 87.8175 8.40341 87.5618 8.82955C87.3061 9.25568 87.1783 9.74716 87.1783 10.304V18H84.093ZM98.7798 18.2557C97.5014 18.2557 96.3935 17.9744 95.456 17.4119C94.5185 16.8494 93.7912 16.0625 93.2741 15.0511C92.7628 14.0398 92.5071 12.858 92.5071 11.5057C92.5071 10.1534 92.7628 8.96875 93.2741 7.9517C93.7912 6.93466 94.5185 6.14489 95.456 5.58239C96.3935 5.01989 97.5014 4.73864 98.7798 4.73864C100.058 4.73864 101.166 5.01989 102.104 5.58239C103.041 6.14489 103.766 6.93466 104.277 7.9517C104.794 8.96875 105.053 10.1534 105.053 11.5057C105.053 12.858 104.794 14.0398 104.277 15.0511C103.766 16.0625 103.041 16.8494 102.104 17.4119C101.166 17.9744 100.058 18.2557 98.7798 18.2557ZM98.7969 15.7841C99.4901 15.7841 100.07 15.5937 100.536 15.2131C101.001 14.8267 101.348 14.3097 101.575 13.6619C101.808 13.0142 101.925 12.2926 101.925 11.4972C101.925 10.696 101.808 9.97159 101.575 9.32386C101.348 8.67045 101.001 8.15057 100.536 7.7642C100.07 7.37784 99.4901 7.18466 98.7969 7.18466C98.0866 7.18466 97.4957 7.37784 97.0241 7.7642C96.5582 8.15057 96.2088 8.67045 95.9759 9.32386C95.7486 9.97159 95.6349 10.696 95.6349 11.4972C95.6349 12.2926 95.7486 13.0142 95.9759 13.6619C96.2088 14.3097 96.5582 14.8267 97.0241 15.2131C97.4957 15.5937 98.0866 15.7841 98.7969 15.7841ZM113.381 18.2557C112.075 18.2557 110.952 17.9688 110.015 17.3949C109.083 16.821 108.364 16.0284 107.859 15.017C107.359 14 107.109 12.8295 107.109 11.5057C107.109 10.1761 107.364 9.00284 107.876 7.9858C108.387 6.96307 109.109 6.16761 110.04 5.59943C110.978 5.02557 112.086 4.73864 113.364 4.73864C114.427 4.73864 115.367 4.93466 116.185 5.3267C117.009 5.71307 117.665 6.26136 118.154 6.97159C118.643 7.67614 118.921 8.5 118.989 9.44318H116.04C115.921 8.8125 115.637 8.28693 115.188 7.86648C114.745 7.44034 114.151 7.22727 113.407 7.22727C112.776 7.22727 112.222 7.39773 111.745 7.73864C111.268 8.07386 110.896 8.55682 110.629 9.1875C110.367 9.81818 110.237 10.5739 110.237 11.4545C110.237 12.3466 110.367 13.1136 110.629 13.7557C110.89 14.392 111.256 14.8835 111.728 15.2301C112.205 15.571 112.765 15.7415 113.407 15.7415C113.862 15.7415 114.268 15.6562 114.626 15.4858C114.989 15.3097 115.293 15.0568 115.538 14.7273C115.782 14.3977 115.95 13.9972 116.04 13.5256H118.989C118.915 14.4517 118.643 15.2727 118.171 15.9886C117.7 16.6989 117.058 17.2557 116.245 17.6591C115.433 18.0568 114.478 18.2557 113.381 18.2557ZM124.335 13.892L124.327 10.1676H124.821L129.526 4.90909H133.131L127.344 11.3523H126.705L124.335 13.892ZM121.523 18V0.545454H124.608V18H121.523ZM129.739 18L125.477 12.0426L127.557 9.86932L133.429 18H129.739ZM137.087 18.1875C136.57 18.1875 136.127 18.0057 135.758 17.642C135.388 17.2784 135.207 16.8352 135.212 16.3125C135.207 15.8011 135.388 15.3636 135.758 15C136.127 14.6364 136.57 14.4545 137.087 14.4545C137.587 14.4545 138.022 14.6364 138.391 15C138.766 15.3636 138.957 15.8011 138.962 16.3125C138.957 16.6591 138.866 16.9744 138.69 17.2585C138.519 17.5426 138.292 17.7699 138.008 17.9403C137.729 18.1051 137.423 18.1875 137.087 18.1875Z" fill="white"/>
</svg>
