<svg width="112" height="23" viewBox="0 0 112 23" fill="none" xmlns="http://www.w3.org/2000/svg">
<path d="M0.721591 18V0.545454H7.26705C8.60795 0.545454 9.73295 0.795454 10.642 1.29545C11.5568 1.79545 12.2472 2.48295 12.7131 3.35795C13.1847 4.22727 13.4205 5.21591 13.4205 6.32386C13.4205 7.44318 13.1847 8.4375 12.7131 9.30682C12.2415 10.1761 11.5455 10.8608 10.625 11.3608C9.70455 11.8551 8.57102 12.1023 7.22443 12.1023H2.88636V9.50284H6.7983C7.58239 9.50284 8.22443 9.36648 8.72443 9.09375C9.22443 8.82102 9.59375 8.44602 9.83239 7.96875C10.0767 7.49148 10.1989 6.94318 10.1989 6.32386C10.1989 5.70455 10.0767 5.15909 9.83239 4.6875C9.59375 4.21591 9.22159 3.84943 8.71591 3.58807C8.21591 3.32102 7.57102 3.1875 6.78125 3.1875H3.88352V18H0.721591Z" fill="#00116D"/>
<path d="M19.5632 18.2642C18.7337 18.2642 17.9865 18.1165 17.3217 17.821C16.6626 17.5199 16.1399 17.0767 15.7536 16.4915C15.3729 15.9062 15.1825 15.1847 15.1825 14.3267C15.1825 13.5881 15.3189 12.9773 15.5916 12.4943C15.8643 12.0114 16.2365 11.625 16.7081 11.3352C17.1797 11.0455 17.7109 10.8267 18.3018 10.679C18.8984 10.5256 19.5149 10.4148 20.1513 10.3466C20.9183 10.267 21.5405 10.196 22.0178 10.1335C22.495 10.0653 22.8416 9.96307 23.0575 9.8267C23.2791 9.68466 23.3899 9.46591 23.3899 9.17045V9.11932C23.3899 8.47727 23.1996 7.98011 22.8189 7.62784C22.4382 7.27557 21.8899 7.09943 21.174 7.09943C20.4183 7.09943 19.8189 7.2642 19.3757 7.59375C18.9382 7.9233 18.6428 8.3125 18.4893 8.76136L15.6087 8.35227C15.8359 7.55682 16.2109 6.89205 16.7337 6.35795C17.2564 5.81818 17.8956 5.41477 18.6513 5.14773C19.407 4.875 20.2422 4.73864 21.157 4.73864C21.7876 4.73864 22.4155 4.8125 23.0405 4.96023C23.6655 5.10795 24.2365 5.35227 24.7536 5.69318C25.2706 6.02841 25.6854 6.4858 25.9979 7.06534C26.3161 7.64489 26.4751 8.36932 26.4751 9.23864V18H23.5092V16.2017H23.407C23.2195 16.5653 22.9553 16.9062 22.6143 17.2244C22.2791 17.5369 21.8558 17.7898 21.3445 17.983C20.8388 18.1705 20.245 18.2642 19.5632 18.2642ZM20.3643 15.9972C20.9837 15.9972 21.5206 15.875 21.9751 15.6307C22.4297 15.3807 22.7791 15.0511 23.0234 14.642C23.2734 14.233 23.3984 13.7869 23.3984 13.304V11.7614C23.3018 11.8409 23.1371 11.9148 22.9041 11.983C22.6768 12.0511 22.4212 12.1108 22.1371 12.1619C21.853 12.2131 21.5717 12.2585 21.2933 12.2983C21.0149 12.3381 20.7734 12.3722 20.5689 12.4006C20.1087 12.4631 19.6967 12.5653 19.3331 12.7074C18.9695 12.8494 18.6825 13.0483 18.4723 13.304C18.2621 13.554 18.157 13.8778 18.157 14.2756C18.157 14.8438 18.3643 15.2727 18.7791 15.5625C19.1939 15.8523 19.7223 15.9972 20.3643 15.9972ZM29.5774 22.9091V4.90909H32.6115V7.07386H32.7905C32.9496 6.75568 33.174 6.41761 33.4638 6.05966C33.7536 5.69602 34.1456 5.38636 34.6399 5.13068C35.1342 4.86932 35.7649 4.73864 36.532 4.73864C37.5433 4.73864 38.4553 4.99716 39.2678 5.5142C40.0859 6.02557 40.7337 6.78409 41.2109 7.78977C41.6939 8.78977 41.9354 10.017 41.9354 11.4716C41.9354 12.9091 41.6996 14.1307 41.228 15.1364C40.7564 16.142 40.1143 16.9091 39.3018 17.4375C38.4893 17.9659 37.5689 18.2301 36.5405 18.2301C35.7905 18.2301 35.1683 18.1051 34.674 17.8551C34.1797 17.6051 33.782 17.304 33.4808 16.9517C33.1854 16.5937 32.9553 16.2557 32.7905 15.9375H32.6626V22.9091H29.5774ZM32.603 11.4545C32.603 12.3011 32.7223 13.0426 32.9609 13.679C33.2053 14.3153 33.5547 14.8125 34.0092 15.1705C34.4695 15.5227 35.0263 15.6989 35.6797 15.6989C36.3615 15.6989 36.9325 15.517 37.3928 15.1534C37.853 14.7841 38.1996 14.2812 38.4325 13.6449C38.6712 13.0028 38.7905 12.2727 38.7905 11.4545C38.7905 10.642 38.674 9.92045 38.4411 9.28977C38.2081 8.65909 37.8615 8.16477 37.4013 7.80682C36.9411 7.44886 36.3672 7.26989 35.6797 7.26989C35.0206 7.26989 34.4609 7.44318 34.0007 7.78977C33.5405 8.13636 33.1911 8.62216 32.9524 9.24716C32.7195 9.87216 32.603 10.608 32.603 11.4545ZM50.3729 18.2557C49.0604 18.2557 47.9268 17.983 46.9723 17.4375C46.0234 16.8864 45.2933 16.108 44.782 15.1023C44.2706 14.0909 44.0149 12.9006 44.0149 11.5312C44.0149 10.1847 44.2706 9.00284 44.782 7.9858C45.299 6.96307 46.0206 6.16761 46.9467 5.59943C47.8729 5.02557 48.9609 4.73864 50.2109 4.73864C51.0178 4.73864 51.7791 4.86932 52.495 5.13068C53.2166 5.38636 53.853 5.78409 54.4041 6.32386C54.9609 6.86364 55.3984 7.55114 55.7166 8.38636C56.0348 9.21591 56.1939 10.2045 56.1939 11.3523V12.2983H45.4638V10.2188H53.2365C53.2308 9.62784 53.103 9.10227 52.853 8.64205C52.603 8.17614 52.2536 7.80966 51.8047 7.54261C51.3615 7.27557 50.8445 7.14205 50.2536 7.14205C49.6229 7.14205 49.0689 7.29545 48.5916 7.60227C48.1143 7.90341 47.7422 8.30114 47.4751 8.79545C47.2138 9.28409 47.0803 9.82102 47.0746 10.4062V12.2216C47.0746 12.983 47.2138 13.6364 47.4922 14.1818C47.7706 14.7216 48.1598 15.1364 48.6598 15.4261C49.1598 15.7102 49.745 15.8523 50.4155 15.8523C50.8643 15.8523 51.2706 15.7898 51.6342 15.6648C51.9979 15.5341 52.3132 15.3438 52.5803 15.0938C52.8473 14.8438 53.049 14.5341 53.1854 14.1648L56.0661 14.4886C55.8842 15.25 55.5376 15.9148 55.0263 16.483C54.5206 17.0455 53.8729 17.483 53.0831 17.7955C52.2933 18.1023 51.3899 18.2557 50.3729 18.2557ZM58.804 18V4.90909H61.7955V7.09091H61.9318C62.1705 6.33523 62.5795 5.75284 63.1591 5.34375C63.7443 4.92898 64.4119 4.72159 65.1619 4.72159C65.3324 4.72159 65.5227 4.73011 65.733 4.74716C65.9489 4.75852 66.1278 4.77841 66.2699 4.80682V7.64489C66.1392 7.59943 65.9318 7.55966 65.6477 7.52557C65.3693 7.4858 65.0994 7.46591 64.8381 7.46591C64.2756 7.46591 63.7699 7.58807 63.321 7.83239C62.8778 8.07102 62.5284 8.40341 62.2727 8.82955C62.017 9.25568 61.8892 9.74716 61.8892 10.304V18H58.804ZM83.7649 18V4.90909H86.7564V7.09091H86.8928C87.1314 6.33523 87.5405 5.75284 88.12 5.34375C88.7053 4.92898 89.3729 4.72159 90.1229 4.72159C90.2933 4.72159 90.4837 4.73011 90.6939 4.74716C90.9098 4.75852 91.0888 4.77841 91.2308 4.80682V7.64489C91.1001 7.59943 90.8928 7.55966 90.6087 7.52557C90.3303 7.4858 90.0604 7.46591 89.799 7.46591C89.2365 7.46591 88.7308 7.58807 88.282 7.83239C87.8388 8.07102 87.4893 8.40341 87.2337 8.82955C86.978 9.25568 86.8501 9.74716 86.8501 10.304V18H83.7649ZM98.4517 18.2557C97.1733 18.2557 96.0653 17.9744 95.1278 17.4119C94.1903 16.8494 93.4631 16.0625 92.946 15.0511C92.4347 14.0398 92.179 12.858 92.179 11.5057C92.179 10.1534 92.4347 8.96875 92.946 7.9517C93.4631 6.93466 94.1903 6.14489 95.1278 5.58239C96.0653 5.01989 97.1733 4.73864 98.4517 4.73864C99.7301 4.73864 100.838 5.01989 101.776 5.58239C102.713 6.14489 103.438 6.93466 103.949 7.9517C104.466 8.96875 104.724 10.1534 104.724 11.5057C104.724 12.858 104.466 14.0398 103.949 15.0511C103.438 16.0625 102.713 16.8494 101.776 17.4119C100.838 17.9744 99.7301 18.2557 98.4517 18.2557ZM98.4688 15.7841C99.1619 15.7841 99.7415 15.5937 100.207 15.2131C100.673 14.8267 101.02 14.3097 101.247 13.6619C101.48 13.0142 101.597 12.2926 101.597 11.4972C101.597 10.696 101.48 9.97159 101.247 9.32386C101.02 8.67045 100.673 8.15057 100.207 7.7642C99.7415 7.37784 99.1619 7.18466 98.4688 7.18466C97.7585 7.18466 97.1676 7.37784 96.696 7.7642C96.2301 8.15057 95.8807 8.67045 95.6477 9.32386C95.4205 9.97159 95.3068 10.696 95.3068 11.4972C95.3068 12.2926 95.4205 13.0142 95.6477 13.6619C95.8807 14.3097 96.2301 14.8267 96.696 15.2131C97.1676 15.5937 97.7585 15.7841 98.4688 15.7841ZM109.244 18.1875C108.727 18.1875 108.283 18.0057 107.914 17.642C107.545 17.2784 107.363 16.8352 107.369 16.3125C107.363 15.8011 107.545 15.3636 107.914 15C108.283 14.6364 108.727 14.4545 109.244 14.4545C109.744 14.4545 110.178 14.6364 110.548 15C110.923 15.3636 111.113 15.8011 111.119 16.3125C111.113 16.6591 111.022 16.9744 110.846 17.2585C110.675 17.5426 110.448 17.7699 110.164 17.9403C109.886 18.1051 109.579 18.1875 109.244 18.1875Z" fill="white"/>
<path d="M68.456 18V0.545454H75.0014C76.3423 0.545454 77.4673 0.795454 78.3764 1.29545C79.2912 1.79545 79.9815 2.48295 80.4474 3.35795C80.919 4.22727 81.1548 5.21591 81.1548 6.32386C81.1548 7.44318 80.919 8.4375 80.4474 9.30682C79.9759 10.1761 79.2798 10.8608 78.3594 11.3608C77.4389 11.8551 76.3054 12.1023 74.9588 12.1023H70.6207V9.50284H74.5327C75.3168 9.50284 75.9588 9.36648 76.4588 9.09375C76.9588 8.82102 77.3281 8.44602 77.5668 7.96875C77.8111 7.49148 77.9332 6.94318 77.9332 6.32386C77.9332 5.70455 77.8111 5.15909 77.5668 4.6875C77.3281 4.21591 76.956 3.84943 76.4503 3.58807C75.9503 3.32102 75.3054 3.1875 74.5156 3.1875H71.6179V18H68.456Z" fill="#00116D"/>
</svg>
