<svg width="10" height="10" viewBox="0 0 7 7" fill="none" xmlns="http://www.w3.org/2000/svg">
<g clip-path="url(#clip0_555_155)">
<path d="M0.291707 0.875H1.75004V0.729167C1.75004 0.53578 1.82686 0.350313 1.96361 0.213568C2.10035 0.0768227 2.28582 0 2.47921 0L4.52087 0C4.71426 0 4.89973 0.0768227 5.03647 0.213568C5.17322 0.350313 5.25004 0.53578 5.25004 0.729167V0.875H6.70837V1.75H6.12504V6.125C6.12504 6.35706 6.03285 6.57962 5.86876 6.74372C5.70466 6.90781 5.48211 7 5.25004 7H1.75004C1.51798 7 1.29542 6.90781 1.13132 6.74372C0.967228 6.57962 0.87504 6.35706 0.87504 6.125V1.75H0.291707V0.875ZM1.75004 6.125H5.25004V1.75H1.75004V6.125Z" fill="white"/>
<path d="M3.79163 2.625H4.66663V5.25H3.79163V2.625Z" fill="white"/>
<path d="M2.33337 2.625H3.20837V5.25H2.33337V2.625Z" fill="white"/>
</g>
<defs>
<clipPath id="clip0_555_155">
<rect width="7" height="7" fill="white" transform="matrix(-1 0 0 1 7 0)"/>
</clipPath>
</defs>
</svg>
