<svg width="14" height="14" viewBox="0 0 14 14" fill="none" xmlns="http://www.w3.org/2000/svg">
<g clip-path="url(#clip0_15_172)">
<path d="M9.33335 3.5C9.48806 3.5 9.63644 3.56146 9.74583 3.67085C9.85523 3.78025 9.91669 3.92862 9.91669 4.08333C9.91669 4.23804 9.85523 4.38642 9.74583 4.49581C9.63644 4.60521 9.48806 4.66667 9.33335 4.66667H4.66669C4.51198 4.66667 4.3636 4.60521 4.25421 4.49581C4.14481 4.38642 4.08335 4.23804 4.08335 4.08333C4.08335 3.92862 4.14481 3.78025 4.25421 3.67085C4.3636 3.56146 4.51198 3.5 4.66669 3.5H9.33335ZM13.8291 13.8291C13.7197 13.9384 13.5714 13.9999 13.4167 13.9999C13.262 13.9999 13.1137 13.9384 13.0043 13.8291L11.6002 12.425C11.1844 12.6904 10.7016 12.832 10.2084 12.8333C9.68918 12.8333 9.18166 12.6794 8.74998 12.3909C8.3183 12.1025 7.98185 11.6925 7.78317 11.2129C7.58449 10.7332 7.53251 10.2054 7.63379 9.69622C7.73508 9.18702 7.98509 8.71929 8.3522 8.35218C8.71931 7.98506 9.18704 7.73506 9.69624 7.63377C10.2054 7.53249 10.7332 7.58447 11.2129 7.78315C11.6926 7.98183 12.1025 8.31828 12.391 8.74996C12.6794 9.18164 12.8334 9.68916 12.8334 10.2083C12.832 10.7016 12.6904 11.1844 12.425 11.6002L13.8291 13.0042C13.9385 13.1136 13.9999 13.262 13.9999 13.4167C13.9999 13.5713 13.9385 13.7197 13.8291 13.8291ZM10.2084 11.6667C10.4968 11.6667 10.7787 11.5811 11.0186 11.4209C11.2584 11.2606 11.4453 11.0329 11.5557 10.7664C11.6661 10.4999 11.6949 10.2067 11.6387 9.92383C11.5824 9.64094 11.4435 9.38109 11.2396 9.17714C11.0356 8.97318 10.7757 8.83429 10.4929 8.77802C10.21 8.72175 9.91675 8.75063 9.65027 8.86101C9.3838 8.97139 9.15604 9.1583 8.99579 9.39813C8.83555 9.63795 8.75002 9.9199 8.75002 10.2083C8.75002 10.5951 8.90367 10.966 9.17716 11.2395C9.45065 11.513 9.82158 11.6667 10.2084 11.6667ZM7.58335 12.8333H4.08335C3.61922 12.8333 3.17411 12.649 2.84592 12.3208C2.51773 11.9926 2.33335 11.5475 2.33335 11.0833V2.91667C2.33335 2.45254 2.51773 2.00742 2.84592 1.67923C3.17411 1.35104 3.61922 1.16667 4.08335 1.16667H11.0834C11.2381 1.16667 11.3864 1.22812 11.4958 1.33752C11.6052 1.44692 11.6667 1.59529 11.6667 1.75V6.41667C11.6667 6.57138 11.7281 6.71975 11.8375 6.82915C11.9469 6.93854 12.0953 7 12.25 7C12.4047 7 12.5531 6.93854 12.6625 6.82915C12.7719 6.71975 12.8334 6.57138 12.8334 6.41667V1.75C12.8334 1.28587 12.649 0.840752 12.3208 0.512563C11.9926 0.184374 11.5475 0 11.0834 0L4.08335 0C3.31009 0.00092625 2.56876 0.308514 2.02198 0.855295C1.4752 1.40208 1.16761 2.1434 1.16669 2.91667V11.0833C1.16761 11.8566 1.4752 12.5979 2.02198 13.1447C2.56876 13.6915 3.31009 13.9991 4.08335 14H7.58335C7.73806 14 7.88644 13.9385 7.99583 13.8291C8.10523 13.7197 8.16669 13.5714 8.16669 13.4167C8.16669 13.262 8.10523 13.1136 7.99583 13.0042C7.88644 12.8948 7.73806 12.8333 7.58335 12.8333Z" fill="black"/>
</g>
<defs>
<clipPath id="clip0_15_172">
<rect width="14" height="14" fill="white"/>
</clipPath>
</defs>
</svg>
