<svg width="13" height="14" viewBox="0 0 13 14" fill="none" xmlns="http://www.w3.org/2000/svg">
<path d="M8.33335 3.5C8.48806 3.5 8.63644 3.56146 8.74583 3.67085C8.85523 3.78025 8.91669 3.92862 8.91669 4.08333C8.91669 4.23804 8.85523 4.38642 8.74583 4.49581C8.63644 4.60521 8.48806 4.66667 8.33335 4.66667H3.66669C3.51198 4.66667 3.3636 4.60521 3.25421 4.49581C3.14481 4.38642 3.08335 4.23804 3.08335 4.08333C3.08335 3.92862 3.14481 3.78025 3.25421 3.67085C3.3636 3.56146 3.51198 3.5 3.66669 3.5H8.33335ZM12.8291 13.8291C12.7197 13.9384 12.5714 13.9999 12.4167 13.9999C12.262 13.9999 12.1137 13.9384 12.0043 13.8291L10.6002 12.425C10.1844 12.6904 9.70164 12.832 9.20835 12.8333C8.68918 12.8333 8.18166 12.6794 7.74998 12.3909C7.3183 12.1025 6.98185 11.6925 6.78317 11.2129C6.58449 10.7332 6.53251 10.2054 6.63379 9.69622C6.73508 9.18702 6.98509 8.71929 7.3522 8.35218C7.71931 7.98506 8.18704 7.73506 8.69624 7.63377C9.20544 7.53249 9.73324 7.58447 10.2129 7.78315C10.6926 7.98183 11.1025 8.31828 11.391 8.74996C11.6794 9.18164 11.8334 9.68916 11.8334 10.2083C11.832 10.7016 11.6904 11.1844 11.425 11.6002L12.8291 13.0042C12.9385 13.1136 12.9999 13.262 12.9999 13.4167C12.9999 13.5713 12.9385 13.7197 12.8291 13.8291ZM9.20835 11.6667C9.49678 11.6667 9.77874 11.5811 10.0186 11.4209C10.2584 11.2606 10.4453 11.0329 10.5557 10.7664C10.6661 10.4999 10.6949 10.2067 10.6387 9.92383C10.5824 9.64094 10.4435 9.38109 10.2396 9.17714C10.0356 8.97318 9.77575 8.83429 9.49286 8.77802C9.20997 8.72175 8.91675 8.75063 8.65027 8.86101C8.3838 8.97139 8.15604 9.1583 7.99579 9.39813C7.83555 9.63795 7.75002 9.9199 7.75002 10.2083C7.75002 10.5951 7.90367 10.966 8.17716 11.2395C8.45065 11.513 8.82158 11.6667 9.20835 11.6667ZM6.58335 12.8333H3.08335C2.61922 12.8333 2.17411 12.649 1.84592 12.3208C1.51773 11.9926 1.33335 11.5475 1.33335 11.0833V2.91667C1.33335 2.45254 1.51773 2.00742 1.84592 1.67923C2.17411 1.35104 2.61922 1.16667 3.08335 1.16667H10.0834C10.2381 1.16667 10.3864 1.22812 10.4958 1.33752C10.6052 1.44692 10.6667 1.59529 10.6667 1.75V6.41667C10.6667 6.57138 10.7281 6.71975 10.8375 6.82915C10.9469 6.93854 11.0953 7 11.25 7C11.4047 7 11.5531 6.93854 11.6625 6.82915C11.7719 6.71975 11.8334 6.57138 11.8334 6.41667V1.75C11.8334 1.28587 11.649 0.840752 11.3208 0.512563C10.9926 0.184374 10.5475 0 10.0834 0L3.08335 0C2.31009 0.00092625 1.56876 0.308514 1.02198 0.855295C0.475201 1.40208 0.167613 2.1434 0.166687 2.91667V11.0833C0.167613 11.8566 0.475201 12.5979 1.02198 13.1447C1.56876 13.6915 2.31009 13.9991 3.08335 14H6.58335C6.73806 14 6.88644 13.9385 6.99583 13.8291C7.10523 13.7197 7.16669 13.5714 7.16669 13.4167C7.16669 13.262 7.10523 13.1136 6.99583 13.0042C6.88644 12.8948 6.73806 12.8333 6.58335 12.8333Z" fill="white"/>
</svg>
