<svg width="15" height="15" viewBox="0 0 15 15" fill="none" xmlns="http://www.w3.org/2000/svg">
<g clip-path="url(#clip0_177_167)">
<path d="M12.1875 14.9999C12.0626 15 11.9405 14.9627 11.837 14.8927C11.7335 14.8228 11.6533 14.7234 11.6069 14.6074L11.0794 13.2868L9.75685 12.7299C9.64341 12.6798 9.5473 12.5973 9.48058 12.4928C9.41386 12.3883 9.37952 12.2663 9.38186 12.1423C9.38419 12.0184 9.42311 11.8978 9.49372 11.7959C9.56432 11.6939 9.66348 11.6151 9.77873 11.5693L11.0837 11.0749L11.6069 9.76744C11.655 9.65318 11.7357 9.55565 11.839 9.48708C11.9423 9.4185 12.0635 9.38192 12.1875 9.38192C12.3115 9.38192 12.4327 9.4185 12.536 9.48708C12.6392 9.55565 12.72 9.65318 12.7681 9.76744L13.2937 11.0799L14.6062 11.6056C14.7207 11.6535 14.8185 11.7341 14.8873 11.8374C14.956 11.9407 14.9927 12.0621 14.9927 12.1862C14.9927 12.3103 14.956 12.4316 14.8873 12.5349C14.8185 12.6382 14.7207 12.7189 14.6062 12.7668L13.2937 13.2924L12.7681 14.6049C12.722 14.7214 12.642 14.8213 12.5385 14.8917C12.435 14.9621 12.3127 14.9998 12.1875 14.9999ZM6.24998 13.1249C5.97996 13.1282 5.71615 13.0439 5.49803 12.8847C5.27992 12.7255 5.11921 12.5 5.03998 12.2418L4.03123 9.08744L0.866852 8.02869C0.611454 7.94332 0.389801 7.77898 0.233907 7.55941C0.0780132 7.33983 -0.00405175 7.07639 -0.000434684 6.80713C0.00318238 6.53787 0.0922942 6.27672 0.25403 6.06142C0.415766 5.84611 0.641753 5.68778 0.899352 5.60931L4.03873 4.65056L5.09623 1.49181C5.17485 1.23235 5.33749 1.00639 5.55857 0.84947C5.77964 0.692546 6.04661 0.61356 6.31748 0.624934C6.58754 0.6253 6.85022 0.713119 7.0662 0.875246C7.28218 1.03737 7.43985 1.26509 7.5156 1.52431L8.4731 4.65868L11.6169 5.66494C11.8704 5.74999 12.0909 5.91255 12.247 6.12967C12.4032 6.34678 12.4873 6.60748 12.4873 6.87494C12.4873 7.14239 12.4032 7.40309 12.247 7.6202C12.0909 7.83732 11.8704 7.99988 11.6169 8.08494L8.46748 9.09244L7.45998 12.2418C7.38074 12.5 7.22004 12.7255 7.00192 12.8847C6.7838 13.0439 6.51999 13.1282 6.24998 13.1249ZM6.31998 1.88931L5.12498 5.35244C5.09347 5.44696 5.03982 5.53259 4.9685 5.60217C4.89718 5.67175 4.81025 5.72327 4.71498 5.75244L1.26435 6.80493L4.72748 8.00306C4.82065 8.03411 4.90519 8.08667 4.97425 8.15649C5.04332 8.22632 5.09495 8.31143 5.12498 8.40494L6.23123 11.8612L7.37498 8.40494C7.40532 8.31003 7.4579 8.22376 7.52835 8.15331C7.5988 8.08286 7.68508 8.03027 7.77998 7.99994L11.2362 6.89431C11.2407 6.89308 11.2449 6.89119 11.2487 6.88869L7.77998 5.74993C7.68371 5.71915 7.59635 5.66548 7.52538 5.59353C7.4544 5.52158 7.40194 5.43349 7.37248 5.33681L6.31998 1.88931ZM12.8125 4.37493C12.6731 4.37493 12.5378 4.32837 12.428 4.24265C12.3181 4.15693 12.2401 4.03696 12.2062 3.90181L11.9831 3.00806L11.0875 2.76743C10.9529 2.73127 10.8342 2.65114 10.7504 2.53979C10.6665 2.42844 10.6223 2.29225 10.6247 2.15289C10.6272 2.01352 10.6761 1.87897 10.7638 1.77063C10.8515 1.66228 10.9729 1.58636 11.1087 1.55493L11.9837 1.35181L12.2062 0.473059C12.2401 0.337918 12.3182 0.217967 12.428 0.132259C12.5378 0.0465508 12.6732 0 12.8125 0C12.9518 0 13.0871 0.0465508 13.197 0.132259C13.3068 0.217967 13.3849 0.337918 13.4187 0.473059L13.64 1.35931L14.5262 1.58118C14.6614 1.61505 14.7813 1.69311 14.867 1.80295C14.9527 1.91279 14.9993 2.04811 14.9993 2.18743C14.9993 2.32676 14.9527 2.46208 14.867 2.57192C14.7813 2.68176 14.6614 2.75981 14.5262 2.79368L13.64 3.01556L13.4187 3.90181C13.3849 4.03696 13.3068 4.15693 13.197 4.24265C13.0871 4.32837 12.9518 4.37493 12.8125 4.37493Z" fill="black"/>
</g>
<defs>
<clipPath id="clip0_177_167">
<rect width="15" height="15" fill="white"/>
</clipPath>
</defs>
</svg>
