<svg width="15" height="15" viewBox="0 0 15 15" fill="none" xmlns="http://www.w3.org/2000/svg">
<path d="M5.625 9.99844H6.61875C7.2875 9.99844 7.9125 9.73594 8.3875 9.26719L14.45 3.19844C14.8063 2.84219 15 2.37344 15 1.87344C15 1.37344 14.8063 0.904687 14.45 0.548437C13.7188 -0.182813 12.5312 -0.182813 11.8 0.548437L5.73125 6.61719C5.25625 7.09219 5 7.71719 5 8.38594V9.37969C5 9.72344 5.28125 10.0047 5.625 10.0047V9.99844ZM13.5687 1.42969C13.6875 1.54844 13.75 1.70469 13.75 1.87344C13.75 2.04219 13.6875 2.19844 13.5687 2.31719L12.7625 3.12344L11.8813 2.24219L12.6875 1.43594C12.9312 1.19219 13.325 1.19219 13.5687 1.43594V1.42969ZM6.25 8.37969C6.25 8.04844 6.38125 7.72969 6.61875 7.49844L10.9937 3.12344L11.875 4.00469L7.5 8.37969C7.2625 8.61719 6.95 8.74844 6.61875 8.74844H6.25V8.37969ZM15 14.3734C15 14.7172 14.7188 14.9984 14.375 14.9984C13.4125 14.9984 12.9437 14.2984 12.6062 13.7797C12.2937 13.3109 12.1375 13.1234 11.875 13.1234C11.5563 13.1234 11.3125 13.3984 10.9312 13.8422C10.4937 14.3609 9.95 14.9984 9.0375 14.9984C8.125 14.9984 7.5875 14.3547 7.1625 13.8297C6.8 13.3922 6.5625 13.1234 6.25 13.1234C6.00625 13.1234 5.85625 13.2797 5.525 13.6922C5.075 14.2422 4.45625 14.9984 3.125 14.9984C1.4 14.9984 0 13.5984 0 11.8734C0 10.1484 1.4 8.74844 3.125 8.74844C3.46875 8.74844 3.75 9.02969 3.75 9.37344C3.75 9.71719 3.46875 9.99844 3.125 9.99844C2.09375 9.99844 1.25 10.8422 1.25 11.8734C1.25 12.9047 2.09375 13.7484 3.125 13.7484C3.8625 13.7484 4.16875 13.3734 4.55625 12.8984C4.93125 12.4422 5.39375 11.8734 6.25 11.8734C7.16875 11.8734 7.7 12.5172 8.125 13.0422C8.4875 13.4797 8.725 13.7484 9.0375 13.7484C9.35 13.7484 9.6 13.4734 9.98125 13.0297C10.4187 12.5109 10.9625 11.8734 11.875 11.8734C12.7875 11.8734 13.3063 12.5734 13.6438 13.0922C13.9563 13.5609 14.1125 13.7484 14.375 13.7484C14.7188 13.7484 15 14.0297 15 14.3734Z" fill="white"/>
</svg>
