<svg width="70" height="70" viewBox="0 0 70 70" fill="none" xmlns="http://www.w3.org/2000/svg">
<path d="M38.9025 1.51599C37.8313 0.540029 36.4412 0 35 0C33.5588 0 32.1687 0.540029 31.0975 1.51599L0 29.8473V60.5523C0 63.058 0.98333 65.461 2.73367 67.2328C4.48401 69.0046 6.85798 70 9.33333 70H60.6667C63.142 70 65.516 69.0046 67.2663 67.2328C69.0167 65.461 70 63.058 70 60.5523V29.8473L38.9025 1.51599ZM43.75 64.0863H26.25V49.2475C26.25 46.8985 27.1719 44.6456 28.8128 42.9845C30.4538 41.3235 32.6794 40.3903 35 40.3903C37.3206 40.3903 39.5462 41.3235 41.1872 42.9845C42.8281 44.6456 43.75 46.8985 43.75 49.2475V64.0863ZM64.1667 60.5434C64.1667 61.4831 63.7979 62.3842 63.1415 63.0486C62.4852 63.7131 61.5949 64.0863 60.6667 64.0863H49.5833V49.2475C49.5833 45.3324 48.0469 41.5776 45.312 38.8092C42.5771 36.0408 38.8677 34.4855 35 34.4855C31.1323 34.4855 27.4229 36.0408 24.688 38.8092C21.9531 41.5776 20.4167 45.3324 20.4167 49.2475V64.0863H9.33333C8.40508 64.0863 7.51484 63.7131 6.85846 63.0486C6.20208 62.3842 5.83333 61.4831 5.83333 60.5434V32.4749L35 5.90326L64.1667 32.4749V60.5434Z" fill="white"/>
</svg>
