<svg width="10" height="13" viewBox="0 0 10 13" fill="none" xmlns="http://www.w3.org/2000/svg">
<path d="M8.33038 1.23939C7.65248 0.648785 6.82227 0.249637 5.92908 0.084904C5.03589 -0.0798292 4.11355 -0.00391062 3.26131 0.304489C2.40907 0.612889 1.6592 1.14209 1.0924 1.83515C0.525607 2.52821 0.163343 3.35888 0.0445972 4.23777C-0.0620479 5.0084 0.0232435 5.79275 0.293253 6.52443C0.563263 7.25611 1.01004 7.9136 1.59579 8.44123C1.95801 8.751 2.2503 9.13077 2.45412 9.55648C2.65795 9.98218 2.76888 10.4445 2.77987 10.9142V11.0014C2.78045 11.5313 2.99656 12.0393 3.38076 12.414C3.76497 12.7887 4.28589 12.9994 4.82923 13H5.17357C5.71692 12.9994 6.23784 12.7887 6.62205 12.414C7.00625 12.0393 7.22235 11.5313 7.22294 11.0014V10.7041C7.23126 10.2889 7.33144 9.88041 7.51663 9.5065C7.70182 9.13258 7.96766 8.80209 8.29594 8.53764C8.82833 8.08293 9.25556 7.52308 9.54932 6.89519C9.84309 6.26729 9.99669 5.58569 9.99995 4.89554C10.0032 4.20539 9.85604 3.52244 9.56821 2.89194C9.28038 2.26144 8.85845 1.69887 8.33038 1.23939ZM5.17357 11.9168H4.82923C4.58039 11.9165 4.34183 11.82 4.16587 11.6484C3.98991 11.4768 3.89093 11.2441 3.89064 11.0014C3.89064 11.0014 3.88675 10.8606 3.88619 10.8335H6.11217V11.0014C6.11188 11.2441 6.0129 11.4768 5.83694 11.6484C5.66098 11.82 5.42242 11.9165 5.17357 11.9168ZM7.56173 7.72414C6.92938 8.259 6.47271 8.96376 6.2488 9.75032H5.55679V5.85936C5.88053 5.74774 6.161 5.54131 6.35983 5.2683C6.55866 4.99528 6.66613 4.66903 6.66756 4.33417C6.66756 4.19053 6.60904 4.05277 6.50489 3.9512C6.40073 3.84962 6.25947 3.79256 6.11217 3.79256C5.96488 3.79256 5.82361 3.84962 5.71946 3.9512C5.6153 4.05277 5.55679 4.19053 5.55679 4.33417C5.55679 4.47782 5.49828 4.61558 5.39412 4.71715C5.28997 4.81873 5.1487 4.87579 5.0014 4.87579C4.85411 4.87579 4.71284 4.81873 4.60869 4.71715C4.50453 4.61558 4.44602 4.47782 4.44602 4.33417C4.44602 4.19053 4.38751 4.05277 4.28335 3.9512C4.1792 3.84962 4.03793 3.79256 3.89064 3.79256C3.74334 3.79256 3.60207 3.84962 3.49792 3.9512C3.39376 4.05277 3.33525 4.19053 3.33525 4.33417C3.33667 4.66903 3.44415 4.99528 3.64298 5.2683C3.84181 5.54131 4.12228 5.74774 4.44602 5.85936V9.75032H3.7118C3.46132 8.94288 2.99153 8.21657 2.35222 7.64831C1.80958 7.15522 1.42291 6.52105 1.23782 5.82063C1.05274 5.1202 1.07697 4.38277 1.30766 3.69534C1.53835 3.00791 1.96586 2.39918 2.53975 1.94098C3.11365 1.48278 3.80997 1.19424 4.54654 1.1094C4.69924 1.09278 4.85276 1.08446 5.0064 1.08449C5.96031 1.08172 6.8812 1.42496 7.59005 2.04748C8.00086 2.40473 8.32912 2.84305 8.55306 3.33339C8.77699 3.82374 8.8915 4.3549 8.88898 4.89167C8.88646 5.42844 8.76697 5.95856 8.53844 6.44688C8.3099 6.9352 7.97755 7.37057 7.56339 7.72414H7.56173Z" fill="white"/>
</svg>
