<svg width="10" height="10" viewBox="0 0 10 10" fill="none" xmlns="http://www.w3.org/2000/svg">
<path d="M2.64542 4.74984H1.25C1.13949 4.74984 1.03351 4.79374 0.955372 4.87188C0.877232 4.95002 0.833333 5.056 0.833333 5.1665V6.4165H0V5.1665C0 4.83498 0.131696 4.51704 0.366117 4.28262C0.600537 4.0482 0.918479 3.9165 1.25 3.9165H3.14042C2.92243 4.15918 2.75425 4.44232 2.64542 4.74984ZM8.75 3.9165H6.85958C7.07757 4.15918 7.24575 4.44232 7.35458 4.74984H8.75C8.86051 4.74984 8.96649 4.79374 9.04463 4.87188C9.12277 4.95002 9.16667 5.056 9.16667 5.1665V6.4165H10V5.1665C10 4.83498 9.8683 4.51704 9.63388 4.28262C9.39946 4.0482 9.08152 3.9165 8.75 3.9165ZM6.66667 5.58317C6.66667 5.25354 6.56892 4.9313 6.38578 4.65722C6.20265 4.38314 5.94235 4.16952 5.63781 4.04337C5.33326 3.91723 4.99815 3.88422 4.67485 3.94853C4.35155 4.01284 4.05458 4.17157 3.82149 4.40466C3.5884 4.63775 3.42967 4.93472 3.36536 5.25802C3.30105 5.58132 3.33405 5.91643 3.4602 6.22098C3.58635 6.52552 3.79997 6.78582 4.07405 6.96895C4.34813 7.15209 4.67036 7.24984 5 7.24984C5.44203 7.24984 5.86595 7.07424 6.17851 6.76168C6.49107 6.44912 6.66667 6.0252 6.66667 5.58317ZM5.83333 5.58317C5.83333 5.74799 5.78446 5.90911 5.69289 6.04615C5.60132 6.18319 5.47117 6.29 5.3189 6.35307C5.16663 6.41614 4.99908 6.43265 4.83742 6.40049C4.67577 6.36834 4.52729 6.28897 4.41074 6.17243C4.2942 6.05588 4.21483 5.9074 4.18268 5.74575C4.15052 5.5841 4.16703 5.41654 4.2301 5.26427C4.29317 5.112 4.39998 4.98185 4.53702 4.89028C4.67407 4.79871 4.83518 4.74984 5 4.74984C5.22101 4.74984 5.43298 4.83764 5.58926 4.99392C5.74554 5.1502 5.83333 5.36216 5.83333 5.58317ZM7.5 8.91651C7.5 8.58498 7.3683 8.26704 7.13388 8.03262C6.89946 7.7982 6.58152 7.66651 6.25 7.66651H3.75C3.41848 7.66651 3.10054 7.7982 2.86612 8.03262C2.6317 8.26704 2.5 8.58498 2.5 8.91651V10.1665H3.33333V8.91651C3.33333 8.806 3.37723 8.70002 3.45537 8.62188C3.53351 8.54374 3.63949 8.49984 3.75 8.49984H6.25C6.36051 8.49984 6.46649 8.54374 6.54463 8.62188C6.62277 8.70002 6.66667 8.806 6.66667 8.91651V10.1665H7.5V8.91651ZM9.16667 1.83317C9.16667 1.50354 9.06892 1.1813 8.88578 0.907221C8.70265 0.633139 8.44235 0.419518 8.13781 0.293372C7.83326 0.167226 7.49815 0.13422 7.17485 0.198529C6.85155 0.262838 6.55458 0.421573 6.32149 0.65466C6.0884 0.887748 5.92967 1.18472 5.86536 1.50802C5.80105 1.83132 5.83405 2.16643 5.9602 2.47098C6.08635 2.77552 6.29997 3.03582 6.57405 3.21895C6.84813 3.40209 7.17036 3.49984 7.5 3.49984C7.94203 3.49984 8.36595 3.32424 8.67851 3.01168C8.99107 2.69912 9.16667 2.2752 9.16667 1.83317ZM8.33333 1.83317C8.33333 1.99799 8.28446 2.15911 8.19289 2.29615C8.10132 2.43319 7.97117 2.54 7.8189 2.60307C7.66663 2.66614 7.49908 2.68265 7.33742 2.65049C7.17577 2.61834 7.02729 2.53897 6.91074 2.42243C6.7942 2.30588 6.71483 2.1574 6.68268 1.99575C6.65052 1.8341 6.66703 1.66654 6.7301 1.51427C6.79317 1.362 6.89998 1.23185 7.03702 1.14028C7.17407 1.04871 7.33518 0.999838 7.5 0.999838C7.72101 0.999838 7.93297 1.08764 8.08926 1.24392C8.24554 1.4002 8.33333 1.61216 8.33333 1.83317ZM4.16667 1.83317C4.16667 1.50354 4.06892 1.1813 3.88578 0.907221C3.70265 0.633139 3.44235 0.419518 3.13781 0.293372C2.83326 0.167226 2.49815 0.13422 2.17485 0.198529C1.85155 0.262838 1.55458 0.421573 1.32149 0.65466C1.0884 0.887748 0.929667 1.18472 0.865358 1.50802C0.801049 1.83132 0.834055 2.16643 0.960201 2.47098C1.08635 2.77552 1.29997 3.03582 1.57405 3.21895C1.84813 3.40209 2.17036 3.49984 2.5 3.49984C2.94203 3.49984 3.36595 3.32424 3.67851 3.01168C3.99107 2.69912 4.16667 2.2752 4.16667 1.83317ZM3.33333 1.83317C3.33333 1.99799 3.28446 2.15911 3.19289 2.29615C3.10132 2.43319 2.97117 2.54 2.8189 2.60307C2.66663 2.66614 2.49908 2.68265 2.33742 2.65049C2.17577 2.61834 2.02729 2.53897 1.91074 2.42243C1.7942 2.30588 1.71483 2.1574 1.68268 1.99575C1.65052 1.8341 1.66703 1.66654 1.7301 1.51427C1.79317 1.362 1.89998 1.23185 2.03702 1.14028C2.17407 1.04871 2.33518 0.999838 2.5 0.999838C2.72101 0.999838 2.93298 1.08764 3.08926 1.24392C3.24554 1.4002 3.33333 1.61216 3.33333 1.83317Z" fill="white"/>
</svg>
