<svg width="10" height="10" viewBox="0 0 10 10" fill="none" xmlns="http://www.w3.org/2000/svg">
<path d="M10 2.5L10 5.65125L9.4875 5.53C9.24608 5.46764 8.99901 5.42968 8.75 5.41667C8.52899 5.41667 8.31702 5.50446 8.16074 5.66074C8.00446 5.81702 7.91667 6.02899 7.91667 6.25C7.91667 6.47101 8.00446 6.68297 8.16074 6.83926C8.31702 6.99554 8.52899 7.08333 8.75 7.08333C8.99901 7.07032 9.24608 7.03235 9.4875 6.97L10 6.84875L10 10L3.75 10C3.41848 10 3.10054 9.8683 2.86612 9.63388C2.6317 9.39946 2.5 9.08152 2.5 8.75L2.5 7.80333C2.22679 7.86932 1.94757 7.90729 1.66667 7.91667C1.22464 7.91667 0.800716 7.74107 0.488155 7.42851C0.175595 7.11595 -1.44596e-07 6.69203 -1.63918e-07 6.25C-1.83239e-07 5.80797 0.175595 5.38405 0.488155 5.07149C0.800716 4.75893 1.22464 4.58333 1.66667 4.58333C1.94757 4.59271 2.22679 4.63068 2.5 4.69667L2.5 3.75C2.5 3.41848 2.6317 3.10054 2.86612 2.86612C3.10054 2.6317 3.41848 2.5 3.75 2.5L4.48833 2.5C4.4226 2.22674 4.38463 1.94755 4.375 1.66667C4.375 1.22464 4.55059 0.800716 4.86315 0.488155C5.17572 0.175595 5.59964 -2.44768e-07 6.04167 -2.6409e-07C6.48369 -2.83411e-07 6.90762 0.175594 7.22018 0.488155C7.53274 0.800716 7.70833 1.22464 7.70833 1.66667C7.6987 1.94755 7.66073 2.22674 7.595 2.5L10 2.5ZM9.16667 4.61917L9.16667 3.33333L6.4925 3.33333L6.65583 2.79542C6.77504 2.42961 6.84865 2.0505 6.875 1.66667C6.875 1.44565 6.7872 1.23369 6.63092 1.07741C6.47464 0.92113 6.26268 0.833333 6.04167 0.833333C5.82065 0.833333 5.60869 0.92113 5.45241 1.07741C5.29613 1.23369 5.20833 1.44565 5.20833 1.66667C5.23468 2.0505 5.30829 2.42961 5.4275 2.79542L5.59083 3.33333L3.75 3.33333C3.63949 3.33333 3.53351 3.37723 3.45537 3.45537C3.37723 3.53351 3.33333 3.63949 3.33333 3.75L3.33333 5.79917L2.79542 5.63583C2.42964 5.51653 2.05051 5.44291 1.66667 5.41667C1.44565 5.41667 1.23369 5.50446 1.07741 5.66074C0.921131 5.81702 0.833333 6.02899 0.833333 6.25C0.833333 6.47101 0.921131 6.68298 1.07741 6.83926C1.23369 6.99554 1.44565 7.08333 1.66667 7.08333C2.05051 7.05709 2.42964 6.98347 2.79542 6.86417L3.33333 6.70083L3.33333 8.75C3.33333 8.86051 3.37723 8.96649 3.45537 9.04463C3.53351 9.12277 3.63949 9.16667 3.75 9.16667L9.16667 9.16667L9.16667 7.88083C9.02879 7.90252 8.88956 7.9145 8.75 7.91667C8.30797 7.91667 7.88405 7.74107 7.57149 7.42851C7.25893 7.11595 7.08333 6.69203 7.08333 6.25C7.08333 5.80797 7.25893 5.38405 7.57149 5.07149C7.88405 4.75893 8.30797 4.58333 8.75 4.58333C8.88956 4.5855 9.02879 4.59747 9.16667 4.61917Z" fill="black"/>
</svg>
