<svg width="10" height="11" viewBox="0 0 10 11" fill="none" xmlns="http://www.w3.org/2000/svg">
<g clip-path="url(#clip0_15_145)">
<path d="M4.96009 7.16658C5.30509 7.16658 5.58509 7.44658 5.58509 7.79158C5.58509 8.13658 5.30509 8.41658 4.96009 8.41658C4.61509 8.41658 4.33509 8.13658 4.33509 7.79158C4.33509 7.44658 4.61509 7.16658 4.96009 7.16658ZM5.37675 6.33325C5.37675 6.0995 5.54675 5.82283 5.76342 5.70325C6.38842 5.35908 6.72467 4.652 6.6005 3.94367C6.48259 3.27158 5.93092 2.7195 5.25842 2.60158C4.76592 2.51658 4.26675 2.64825 3.888 2.96575C3.51009 3.28367 3.293 3.74867 3.293 4.242C3.293 4.47242 3.47967 4.65867 3.70967 4.65867C3.93967 4.65867 4.12634 4.47242 4.12634 4.242C4.12634 3.99533 4.23467 3.76283 4.42384 3.60367C4.61592 3.44283 4.86217 3.37783 5.11425 3.42242C5.44217 3.47992 5.72175 3.75992 5.77925 4.08742C5.843 4.45033 5.67884 4.79783 5.36092 4.97283C4.87925 5.23825 4.543 5.79742 4.543 6.33283C4.543 6.56325 4.72967 6.7495 4.95967 6.7495C5.18967 6.7495 5.37634 6.56325 5.37634 6.33283L5.37675 6.33325ZM10.0001 8.41658V5.64158C10.0001 2.942 7.95675 0.689083 5.34842 0.511583C3.9005 0.41575 2.48384 0.944083 1.46217 1.967C0.440503 2.99033 -0.0878305 4.40742 0.0125862 5.85575C0.19592 8.50325 2.53425 10.4999 5.45175 10.4999H7.91717C9.06592 10.4999 10.0001 9.56533 10.0001 8.41658ZM5.29217 1.34325C7.46509 1.49075 9.16675 3.37867 9.16675 5.64117V8.41617C9.16675 9.10533 8.60592 9.66617 7.91675 9.66617H5.45134C2.93675 9.66617 0.998836 8.0395 0.843419 5.79783C0.759669 4.58992 1.19967 3.40825 2.05134 2.55575C2.8355 1.77033 3.89925 1.33325 5.00634 1.33325C5.10134 1.33325 5.19675 1.33658 5.29175 1.34283L5.29217 1.34325Z" fill="white"/>
</g>
<defs>
<clipPath id="clip0_15_145">
<rect width="10" height="10" fill="white" transform="translate(0 0.5)"/>
</clipPath>
</defs>
</svg>
