<svg width="756" height="982" viewBox="0 0 756 982" fill="none" xmlns="http://www.w3.org/2000/svg">
<rect width="756" height="982" fill="url(#paint0_linear_159_165)"/>
<path d="M692 657.292H64V657.606H692V657.292Z" fill="#EBEBEB"/>
<path d="M629.076 677.508H587.474V677.822H629.076V677.508Z" fill="#EBEBEB"/>
<path d="M480.012 680.917H469.094V681.231H480.012V680.917Z" fill="#EBEBEB"/>
<path d="M586.217 665.845H562.112V666.159H586.217V665.845Z" fill="#EBEBEB"/>
<path d="M184.139 667.955H129.888V668.269H184.139V667.955Z" fill="#EBEBEB"/>
<path d="M203.277 667.955H195.322V668.269H203.277V667.955Z" fill="#EBEBEB"/>
<path d="M346.785 673.259H229.127V673.573H346.785V673.259Z" fill="#EBEBEB"/>
<path d="M361.69 601.277H119.157C115.205 601.277 111.988 598.06 111.988 594.108V253.189C111.988 249.236 115.205 246.02 119.157 246.02H361.69C365.641 246.02 368.858 249.236 368.858 253.189V594.108C368.858 598.06 365.641 601.277 361.69 601.277ZM119.157 246.335C115.377 246.335 112.302 249.41 112.302 253.19V594.109C112.302 597.889 115.377 600.964 119.157 600.964H361.69C365.469 600.964 368.544 597.889 368.544 594.109V253.189C368.544 249.41 365.469 246.334 361.69 246.334L119.157 246.335Z" fill="#EBEBEB"/>
<path d="M633.357 601.277H390.826C386.874 601.277 383.658 598.06 383.658 594.108V253.189C383.658 249.236 386.875 246.02 390.826 246.02H633.357C637.311 246.02 640.527 249.236 640.527 253.189V594.108C640.528 598.06 637.311 601.277 633.357 601.277ZM390.826 246.335C387.047 246.335 383.972 249.41 383.972 253.19V594.109C383.972 597.889 387.047 600.964 390.826 600.964H633.357C637.138 600.964 640.213 597.889 640.213 594.109V253.189C640.213 249.41 637.138 246.334 633.357 246.334L390.826 246.335Z" fill="#EBEBEB"/>
<path d="M213.384 576.894V594.728L205.849 600.205H241.021L229.786 596.041V578.138L213.384 576.894Z" fill="#E0E0E0"/>
<path d="M151.258 599.692V655.873H308.253V599.692H151.258ZM305.424 621.694H182.542V603.332H305.426V621.694H305.424Z" fill="#E0E0E0"/>
<path d="M178.762 599.692V655.873H308.253V599.692H178.762ZM305.425 621.694H182.543V603.332H305.426V621.694H305.425Z" fill="#EBEBEB"/>
<path d="M305.427 603.335H280.1V621.694H305.427V603.335Z" fill="#E0E0E0"/>
<path d="M213.876 612.515H182.542V621.694H213.876V612.515Z" fill="#E0E0E0"/>
<path d="M239.776 616.242H216.187V621.694H239.776V616.242Z" fill="#E0E0E0"/>
<path d="M267.701 610.542H245.228V621.696H267.701V610.542Z" fill="#E0E0E0"/>
<path d="M204.814 625.693L204.141 627.886H195.121L194.449 625.693H182.542V650.067H222.063V625.693H204.814Z" fill="#E0E0E0"/>
<path d="M251.779 625.693L251.106 627.886H242.087L241.414 625.693H224.166V650.067H263.686V625.693H251.779Z" fill="#E0E0E0"/>
<path d="M288.061 625.693L287.388 627.886H278.369L277.696 625.693H265.789V650.067H305.309V625.693H288.061Z" fill="#E0E0E0"/>
<path d="M285.292 587.55H168.497C166.047 587.55 164.063 585.564 164.063 583.116V516.053C164.063 513.604 166.049 511.62 168.497 511.62H285.292C287.741 511.62 289.727 513.605 289.727 516.053V583.116C289.727 585.564 287.741 587.55 285.292 587.55Z" fill="#E0E0E0"/>
<path d="M288.246 587.55H171.451C169.002 587.55 167.017 585.564 167.017 583.116V516.053C167.017 513.604 169.003 511.62 171.451 511.62H288.246C290.695 511.62 292.68 513.605 292.68 516.053V583.116C292.68 585.564 290.695 587.55 288.246 587.55Z" fill="#E6E6E6"/>
<path d="M288.988 583.858V515.311H170.708V583.858H288.988Z" fill="#F0F0F0"/>
<path d="M454.455 505.04H566.912C579.111 505.04 588.999 514.928 588.999 527.126V614.942H432.37V527.126C432.37 514.928 442.257 505.04 454.455 505.04Z" fill="#E6E6E6"/>
<path d="M399.12 570.125H419.244C426.493 570.125 432.368 576.001 432.368 583.251V655.874H385.994V583.251C385.996 576.002 391.871 570.125 399.12 570.125Z" fill="#E0E0E0"/>
<path d="M399.12 570.125H399.545C406.794 570.125 412.669 576.001 412.669 583.251V655.874H385.994V583.251C385.996 576.002 391.871 570.125 399.12 570.125Z" fill="#EBEBEB"/>
<path d="M572.62 622.513H418.286V655.873H572.62V622.513Z" fill="#E6E6E6"/>
<path d="M418.068 592.004H566.907C574.276 592.004 580.251 597.977 580.251 605.347V613.66C580.251 621.029 574.278 627.003 566.907 627.003H418.068C410.699 627.003 404.724 621.03 404.724 613.66V605.347C404.724 597.979 410.697 592.004 418.068 592.004Z" fill="#F5F5F5"/>
<path d="M548.202 592.004H566.662C574.031 592.004 580.006 597.977 580.006 605.347V613.66C580.006 621.029 574.031 627.003 566.662 627.003H548.202C540.833 627.003 534.858 621.03 534.858 613.66V605.347C534.858 597.979 540.833 592.004 548.202 592.004Z" fill="#E0E0E0"/>
<path d="M568.653 570.125H588.778C596.026 570.125 601.903 576.001 601.903 583.251V655.874H555.529V583.251C555.529 576.002 561.405 570.125 568.653 570.125Z" fill="#E0E0E0"/>
<path d="M568.653 570.125H569.078C576.326 570.125 582.203 576.001 582.203 583.251V655.874H555.528V583.251C555.529 576.002 561.405 570.125 568.653 570.125Z" fill="#F0F0F0"/>
<path d="M448.414 464.575H597.418V310.612H448.414V464.575Z" fill="#EBEBEB"/>
<path d="M443.21 464.575H592.214V310.612H443.21V464.575Z" fill="#F0F0F0"/>
<path d="M588.455 314.261H447.158V460.997H588.455V314.261Z" fill="#E0E0E0"/>
<path d="M588.458 314.259H450.688V460.993H588.458V314.259Z" fill="#F5F5F5"/>
<path d="M518.148 460.996H520.945V314.26H518.148V460.996Z" fill="#EBEBEB"/>
<path d="M502.095 314.259L462.828 460.992H459.058L498.326 314.259H502.095Z" fill="white"/>
<path d="M516.949 463.808H519.347V311.997H516.949V463.808Z" fill="#F0F0F0"/>
<path d="M487.843 314.259L450.688 453.122V376.793L467.418 314.259H487.843Z" fill="white"/>
<path d="M588.458 327.574V341.659L556.52 460.992H552.751L588.458 327.574Z" fill="white"/>
<path d="M588.458 356.015V432.342L580.796 460.992H560.371L588.458 356.015Z" fill="white"/>
<path d="M186.664 429.159H276.88V319.384H186.664V429.159Z" fill="#E6E6E6"/>
<path d="M207.305 401.968L254.715 355.373L203.424 346.909L207.305 401.968Z" fill="#E0E0E0"/>
<path d="M253.569 390.923L255.917 355.191L220.223 363.959L217.629 391.299L253.569 390.923Z" fill="#F0F0F0"/>
<path d="M217.061 350.834C222.688 345.206 222.688 336.082 217.061 330.455C211.433 324.827 202.309 324.827 196.682 330.455C191.055 336.082 191.055 345.206 196.682 350.834C202.309 356.461 211.433 356.461 217.061 350.834Z" fill="#FAFAFA"/>
<path d="M248.908 403.663C248.908 399.803 252.037 396.674 255.897 396.674C259.757 396.674 262.885 399.803 262.885 403.663C262.885 407.522 259.757 410.651 255.897 410.651C252.037 410.651 248.908 407.522 248.908 403.663Z" fill="#E0E0E0"/>
<path d="M254.238 415.945L234.056 403.663L251.021 389.686L254.238 415.945Z" fill="#F5F5F5"/>
<path d="M230.401 333.347H226.435V421.003H230.401V333.347Z" fill="#E0E0E0"/>
<path d="M268.409 333.347H263.277V417.126H268.409V333.347Z" fill="#EBEBEB"/>
<path d="M221.943 391.299H195.72V417.521H221.943V391.299Z" fill="#EBEBEB"/>
<path d="M378 714.017C512.495 714.017 621.525 707.649 621.525 699.795C621.525 691.941 512.495 685.573 378 685.573C243.505 685.573 134.475 691.941 134.475 699.795C134.475 707.649 243.505 714.017 378 714.017Z" fill="#F5F5F5"/>
<path d="M581.463 668.086H309.034V478.829C309.034 475.869 311.434 473.469 314.395 473.469H576.103C579.063 473.469 581.463 475.869 581.463 478.829V668.086Z" fill="#263238"/>
<path d="M576.099 485.485H314.399V652.749H576.099V485.485Z" fill="#407BFF"/>
<path opacity="0.2" d="M442.865 482.556C444.306 482.556 445.474 481.388 445.474 479.947C445.474 478.506 444.306 477.339 442.865 477.339C441.424 477.339 440.256 478.506 440.256 479.947C440.256 481.388 441.424 482.556 442.865 482.556Z" fill="white"/>
<path opacity="0.2" d="M448.276 481.912C449.361 481.912 450.24 481.032 450.24 479.947C450.24 478.862 449.361 477.983 448.276 477.983C447.191 477.983 446.311 478.862 446.311 479.947C446.311 481.032 447.191 481.912 448.276 481.912Z" fill="white"/>
<path opacity="0.2" d="M446.316 656.174C445.978 656.062 445.623 655.987 445.247 655.987C443.356 655.987 441.822 657.52 441.822 659.412C441.822 661.304 443.356 662.837 445.247 662.837C447.139 662.837 448.673 661.304 448.673 659.412C448.673 659.348 448.657 659.288 448.654 659.225C447.347 658.793 446.395 657.606 446.316 656.174Z" fill="white"/>
<path d="M601.765 665.431V667.893C601.765 668.558 601.577 669.199 601.25 669.739C600.798 670.505 600.069 671.095 599.178 671.359L580.2 676.961C577.851 677.664 575.402 678.016 572.94 678.016H317.557C315.108 678.016 312.659 677.664 310.31 676.961L291.332 671.359C290.428 671.095 289.699 670.505 289.247 669.739C288.921 669.199 288.732 668.558 288.732 667.893V665.431H601.765Z" fill="#263238"/>
<path opacity="0.2" d="M601.765 665.431V667.893C601.765 668.558 601.577 669.199 601.25 669.739C600.798 670.505 600.069 671.095 599.178 671.359L580.2 676.961C577.851 677.664 575.402 678.016 572.94 678.016H317.557C315.108 678.016 312.659 677.664 310.31 676.961L291.332 671.359C290.428 671.095 289.699 670.505 289.247 669.739C288.921 669.199 288.732 668.558 288.732 667.893V665.431H601.765Z" fill="white"/>
<path opacity="0.2" d="M601.764 665.431V667.893C601.764 668.558 601.575 669.199 601.249 669.739H289.246C288.919 669.199 288.731 668.558 288.731 667.893V665.431H601.764Z" fill="white"/>
<path opacity="0.2" d="M467.273 665.431V666.511C467.273 667.101 466.795 667.579 466.205 667.579H424.305C423.702 667.579 423.225 667.101 423.225 666.511V665.431H467.273Z" fill="black"/>
<path opacity="0.1" d="M576.099 485.485C576.099 485.485 539.911 629.139 314.399 652.749V485.485H576.099Z" fill="white"/>
<path d="M551.308 420.001V577.327L525.108 603.528H421.538C419.315 603.528 417.506 601.719 417.506 599.483V420.001C417.506 417.765 419.315 415.957 421.538 415.957H547.264C549.487 415.957 551.308 417.766 551.308 420.001Z" fill="#407BFF"/>
<path opacity="0.6" d="M551.308 426.867V577.324L525.108 603.524H421.538C419.315 603.524 417.506 601.715 417.506 599.479V426.867H551.308Z" fill="white"/>
<path opacity="0.6" d="M547.809 420.954C547.809 422.032 546.935 422.906 545.857 422.906C544.779 422.906 543.905 422.032 543.905 420.954C543.905 419.876 544.779 419.002 545.857 419.002C546.936 419.004 547.809 419.876 547.809 420.954Z" fill="white"/>
<path opacity="0.6" d="M540.356 420.954C540.356 422.032 539.482 422.906 538.404 422.906C537.326 422.906 536.452 422.032 536.452 420.954C536.452 419.876 537.326 419.002 538.404 419.002C539.482 419.002 540.356 419.876 540.356 420.954Z" fill="white"/>
<path opacity="0.6" d="M532.903 420.954C532.903 422.032 532.029 422.906 530.951 422.906C529.873 422.906 528.999 422.032 528.999 420.954C528.999 419.876 529.873 419.002 530.951 419.002C532.03 419.004 532.903 419.876 532.903 420.954Z" fill="white"/>
<path d="M498.832 438.994H427.112C426.419 438.994 425.856 438.431 425.856 437.738C425.856 437.045 426.419 436.482 427.112 436.482H498.832C499.526 436.482 500.088 437.045 500.088 437.738C500.088 438.431 499.526 438.994 498.832 438.994Z" fill="#407BFF"/>
<path d="M478.559 445.856H427.112C426.419 445.856 425.856 445.293 425.856 444.6C425.856 443.906 426.419 443.344 427.112 443.344H478.559C479.253 443.344 479.815 443.906 479.815 444.6C479.815 445.293 479.253 445.856 478.559 445.856Z" fill="#407BFF"/>
<path d="M534.154 551.942H442.442C441.748 551.942 441.186 551.381 441.186 550.686C441.186 549.992 441.748 549.43 442.442 549.43H534.154C534.847 549.43 535.41 549.992 535.41 550.686C535.41 551.381 534.847 551.942 534.154 551.942Z" fill="#407BFF"/>
<path d="M518.825 579.387H427.112C426.419 579.387 425.856 578.826 425.856 578.131C425.856 577.437 426.419 576.875 427.112 576.875H518.825C519.519 576.875 520.081 577.437 520.081 578.131C520.081 578.826 519.519 579.387 518.825 579.387Z" fill="#407BFF"/>
<path d="M534.154 558.803H427.112C426.419 558.803 425.856 558.241 425.856 557.547C425.856 556.852 426.419 556.291 427.112 556.291H534.154C534.847 556.291 535.41 556.852 535.41 557.547C535.41 558.241 534.847 558.803 534.154 558.803Z" fill="#407BFF"/>
<path d="M534.154 565.664H427.112C426.419 565.664 425.856 565.103 425.856 564.408C425.856 563.714 426.419 563.152 427.112 563.152H534.154C534.847 563.152 535.41 563.714 535.41 564.408C535.41 565.103 534.847 565.664 534.154 565.664Z" fill="#407BFF"/>
<path d="M534.154 572.526H427.112C426.419 572.526 425.856 571.964 425.856 571.27C425.856 570.575 426.419 570.014 427.112 570.014H534.154C534.847 570.014 535.41 570.575 535.41 571.27C535.41 571.964 534.847 572.526 534.154 572.526Z" fill="#407BFF"/>
<path opacity="0.5" d="M551.308 577.324L525.108 603.524V577.324H551.308Z" fill="#407BFF"/>
<path opacity="0.4" d="M551.308 426.867H543.906V577.324H551.308V426.867Z" fill="black"/>
<path d="M547.608 505.482C546.103 505.482 544.882 504.262 544.882 502.756V487.388C544.882 485.883 546.102 484.662 547.608 484.662C549.113 484.662 550.333 485.882 550.333 487.388V502.756C550.332 504.262 549.113 505.482 547.608 505.482Z" fill="#407BFF"/>
<path d="M534.154 514.262H442.442C441.748 514.262 441.186 513.701 441.186 513.006C441.186 512.312 441.748 511.75 442.442 511.75H534.154C534.847 511.75 535.41 512.312 535.41 513.006C535.41 513.701 534.847 514.262 534.154 514.262Z" fill="#407BFF"/>
<path d="M518.825 541.707H427.112C426.419 541.707 425.856 541.146 425.856 540.451C425.856 539.757 426.419 539.195 427.112 539.195H518.825C519.519 539.195 520.081 539.757 520.081 540.451C520.081 541.146 519.519 541.707 518.825 541.707Z" fill="#407BFF"/>
<path d="M534.154 521.123H427.112C426.419 521.123 425.856 520.561 425.856 519.867C425.856 519.172 426.419 518.611 427.112 518.611H534.154C534.847 518.611 535.41 519.172 535.41 519.867C535.41 520.561 534.847 521.123 534.154 521.123Z" fill="#407BFF"/>
<path d="M534.154 527.984H427.112C426.419 527.984 425.856 527.423 425.856 526.728C425.856 526.034 426.419 525.472 427.112 525.472H534.154C534.847 525.472 535.41 526.034 535.41 526.728C535.41 527.423 534.847 527.984 534.154 527.984Z" fill="#407BFF"/>
<path d="M534.154 534.846H427.112C426.419 534.846 425.856 534.284 425.856 533.59C425.856 532.895 426.419 532.334 427.112 532.334H534.154C534.847 532.334 535.41 532.895 535.41 533.59C535.41 534.284 534.847 534.846 534.154 534.846Z" fill="#407BFF"/>
<path d="M534.155 454.038H426.788V494.099H534.155V454.038Z" fill="#407BFF"/>
<path opacity="0.2" d="M426.788 487.67H429.706V480.387H433.071V466.011H437.768V474.858H444.228V486.63H451.929V478.427H458.295L462.509 474.214V464.448H465.073V478.427H471.556V483.401H478.264V458.028L480.119 456.172V463.132H484.407V466.258L488.519 470.372V477.796H494.412V471.921H509.816V467.534H513.294V459.883H514.536V471.921H516.502L520.933 467.49H525.108V463.485H527.207V467.534H529.94V484.146H532.902V475.856L534.153 475.933V454.038H426.788V487.67Z" fill="black"/>
<path d="M534.154 500.446H505.242C504.549 500.446 503.986 499.885 503.986 499.19C503.986 498.496 504.549 497.934 505.242 497.934H534.154C534.847 497.934 535.41 498.496 535.41 499.19C535.41 499.885 534.847 500.446 534.154 500.446Z" fill="#407BFF"/>
<path opacity="0.2" d="M469.316 415.957V545.978L449.547 565.747H417.506V420.001C417.506 417.765 419.315 415.957 421.538 415.957H469.316Z" fill="black"/>
<path opacity="0.4" d="M547.608 505.482C546.103 505.482 544.882 504.262 544.882 502.756V487.388C544.882 485.883 546.102 484.662 547.608 484.662C549.113 484.662 550.333 485.882 550.333 487.388V502.756C550.332 504.262 549.113 505.482 547.608 505.482Z" fill="white"/>
<path d="M392.751 439.607V596.934L366.55 623.134H262.981C260.758 623.134 258.949 621.325 258.949 619.089V439.607C258.949 437.371 260.758 435.563 262.981 435.563H388.706C390.929 435.563 392.751 437.371 392.751 439.607Z" fill="#407BFF"/>
<path opacity="0.6" d="M392.747 446.484V596.94L366.547 623.14H262.977C260.754 623.14 258.945 621.331 258.945 619.096V446.484H392.747Z" fill="white"/>
<path opacity="0.6" d="M389.249 440.57C389.249 441.648 388.375 442.522 387.297 442.522C386.219 442.522 385.345 441.648 385.345 440.57C385.345 439.493 386.219 438.619 387.297 438.619C388.375 438.619 389.249 439.493 389.249 440.57Z" fill="white"/>
<path opacity="0.6" d="M381.796 440.57C381.796 441.648 380.922 442.522 379.844 442.522C378.766 442.522 377.892 441.648 377.892 440.57C377.892 439.493 378.766 438.619 379.844 438.619C380.922 438.619 381.796 439.493 381.796 440.57Z" fill="white"/>
<path opacity="0.6" d="M374.341 440.57C374.341 441.648 373.467 442.522 372.39 442.522C371.312 442.522 370.438 441.648 370.438 440.57C370.438 439.493 371.312 438.619 372.39 438.619C373.468 438.619 374.341 439.493 374.341 440.57Z" fill="white"/>
<path d="M290.829 459.285H268.552C267.859 459.285 267.296 458.722 267.296 458.029C267.296 457.335 267.859 456.773 268.552 456.773H290.829C291.522 456.773 292.085 457.335 292.085 458.029C292.085 458.722 291.522 459.285 290.829 459.285Z" fill="#407BFF"/>
<path d="M301.335 466.145H268.551C267.858 466.145 267.295 465.582 267.295 464.889C267.295 464.196 267.858 463.633 268.551 463.633H301.335C302.028 463.633 302.591 464.196 302.591 464.889C302.591 465.584 302.03 466.145 301.335 466.145Z" fill="#407BFF"/>
<path d="M291.199 473.008H268.552C267.859 473.008 267.296 472.446 267.296 471.752C267.296 471.057 267.859 470.496 268.552 470.496H291.199C291.892 470.496 292.455 471.057 292.455 471.752C292.455 472.445 291.892 473.008 291.199 473.008Z" fill="#407BFF"/>
<path d="M375.592 585.373H283.879C283.186 585.373 282.623 584.812 282.623 584.117C282.623 583.423 283.186 582.861 283.879 582.861H375.592C376.285 582.861 376.848 583.423 376.848 584.117C376.848 584.812 376.287 585.373 375.592 585.373Z" fill="#407BFF"/>
<path d="M325.352 592.235H268.551C267.858 592.235 267.295 591.673 267.295 590.979C267.295 590.284 267.858 589.723 268.551 589.723H325.352C326.046 589.723 326.608 590.284 326.608 590.979C326.608 591.672 326.047 592.235 325.352 592.235Z" fill="#407BFF"/>
<path opacity="0.5" d="M392.747 596.94L366.547 623.14V596.94H392.747Z" fill="#407BFF"/>
<path opacity="0.4" d="M392.747 446.484H385.345V596.94H392.747V446.484Z" fill="black"/>
<path d="M389.047 586.642C387.542 586.642 386.321 585.422 386.321 583.916V568.548C386.321 567.043 387.541 565.822 389.047 565.822C390.551 565.822 391.772 567.042 391.772 568.548V583.916C391.771 585.421 390.551 586.642 389.047 586.642Z" fill="#407BFF"/>
<path d="M375.592 459.285H358.34C357.647 459.285 357.084 458.722 357.084 458.029C357.084 457.335 357.647 456.773 358.34 456.773H375.592C376.286 456.773 376.848 457.335 376.848 458.029C376.848 458.722 376.287 459.285 375.592 459.285Z" fill="#407BFF"/>
<path d="M375.592 466.145H366.672C365.979 466.145 365.416 465.582 365.416 464.889C365.416 464.196 365.979 463.633 366.672 463.633H375.592C376.286 463.633 376.848 464.196 376.848 464.889C376.848 465.584 376.287 466.145 375.592 466.145Z" fill="#407BFF"/>
<path d="M375.592 491.173H283.879C283.186 491.173 282.623 490.612 282.623 489.917C282.623 489.223 283.186 488.661 283.879 488.661H375.592C376.285 488.661 376.848 489.223 376.848 489.917C376.848 490.611 376.287 491.173 375.592 491.173Z" fill="#407BFF"/>
<path d="M375.592 498.035H268.551C267.858 498.035 267.295 497.473 267.295 496.779C267.295 496.084 267.858 495.523 268.551 495.523H375.592C376.286 495.523 376.848 496.084 376.848 496.779C376.848 497.473 376.287 498.035 375.592 498.035Z" fill="#407BFF"/>
<path d="M312.792 504.896H268.551C267.858 504.896 267.295 504.335 267.295 503.64C267.295 502.946 267.858 502.384 268.551 502.384H312.792C313.486 502.384 314.048 502.946 314.048 503.64C314.048 504.334 313.487 504.896 312.792 504.896Z" fill="#407BFF"/>
<path opacity="0.7" d="M328.481 514H286.311V525.298H328.481V514Z" fill="#407BFF"/>
<path opacity="0.3" d="M305.42 527.811H286.311V569.546H305.42V527.811Z" fill="#407BFF"/>
<path opacity="0.3" d="M352.942 527.811H330.993V569.546H352.942V527.811Z" fill="#407BFF"/>
<path opacity="0.7" d="M375.594 514H330.993V525.298H375.594V514Z" fill="#407BFF"/>
<path opacity="0.3" d="M375.592 527.811H355.452V569.546H375.592V527.811Z" fill="#407BFF"/>
<path opacity="0.5" d="M283.798 527.811H268.551V569.546H283.798V527.811Z" fill="#407BFF"/>
<path d="M283.798 514H268.551V525.298H283.798V514Z" fill="#407BFF"/>
<path opacity="0.3" d="M328.481 527.811H307.932V569.546H328.481V527.811Z" fill="#407BFF"/>
<path opacity="0.4" d="M389.047 586.642C387.542 586.642 386.321 585.422 386.321 583.916V568.548C386.321 567.043 387.541 565.822 389.047 565.822C390.551 565.822 391.772 567.042 391.772 568.548V583.916C391.771 585.421 390.551 586.642 389.047 586.642Z" fill="white"/>
<path opacity="0.2" d="M392.751 439.607V570.482H316.976C314.753 570.482 312.944 568.674 312.944 566.438V435.563H388.706C390.929 435.563 392.751 437.371 392.751 439.607Z" fill="black"/>
<path d="M459.271 368.286V525.613L433.071 551.813H329.501C327.278 551.813 325.469 550.004 325.469 547.769V368.286C325.469 366.051 327.278 364.242 329.501 364.242H455.226C457.449 364.242 459.271 366.051 459.271 368.286Z" fill="#407BFF"/>
<path opacity="0.6" d="M459.271 375.157V525.613L433.071 551.813H329.501C327.278 551.813 325.469 550.004 325.469 547.769V375.157H459.271Z" fill="white"/>
<path opacity="0.6" d="M453.82 371.195C454.898 371.195 455.772 370.321 455.772 369.243C455.772 368.165 454.898 367.292 453.82 367.292C452.742 367.292 451.868 368.165 451.868 369.243C451.868 370.321 452.742 371.195 453.82 371.195Z" fill="white"/>
<path opacity="0.6" d="M446.367 371.195C447.445 371.195 448.318 370.321 448.318 369.243C448.318 368.165 447.445 367.292 446.367 367.292C445.289 367.292 444.415 368.165 444.415 369.243C444.415 370.321 445.289 371.195 446.367 371.195Z" fill="white"/>
<path opacity="0.6" d="M440.865 369.243C440.865 370.321 439.991 371.195 438.913 371.195C437.836 371.195 436.962 370.321 436.962 369.243C436.962 368.166 437.836 367.292 438.913 367.292C439.992 367.292 440.865 368.166 440.865 369.243Z" fill="white"/>
<path d="M401.388 387.958H375.803C375.11 387.958 374.547 387.395 374.547 386.702C374.547 386.008 375.11 385.446 375.803 385.446H401.388C402.081 385.446 402.644 386.008 402.644 386.702C402.644 387.395 402.081 387.958 401.388 387.958Z" fill="#407BFF"/>
<path d="M411.896 394.819H365.296C364.602 394.819 364.04 394.257 364.04 393.563C364.04 392.87 364.602 392.307 365.296 392.307H411.896C412.589 392.307 413.152 392.87 413.152 393.563C413.152 394.257 412.59 394.819 411.896 394.819Z" fill="#407BFF"/>
<path d="M401.76 401.681H375.433C374.739 401.681 374.177 401.118 374.177 400.425C374.177 399.731 374.739 399.169 375.433 399.169H401.76C402.453 399.169 403.016 399.731 403.016 400.425C403.016 401.119 402.453 401.681 401.76 401.681Z" fill="#407BFF"/>
<path d="M442.116 419.846H350.403C349.71 419.846 349.147 419.284 349.147 418.59C349.147 417.897 349.71 417.334 350.403 417.334H442.116C442.809 417.334 443.372 417.897 443.372 418.59C443.372 419.284 442.811 419.846 442.116 419.846Z" fill="#407BFF"/>
<path d="M426.787 447.294H335.075C334.382 447.294 333.819 446.731 333.819 446.038C333.819 445.344 334.382 444.782 335.075 444.782H426.787C427.48 444.782 428.043 445.344 428.043 446.038C428.043 446.731 427.481 447.294 426.787 447.294Z" fill="#407BFF"/>
<path d="M442.116 426.708H335.075C334.382 426.708 333.819 426.145 333.819 425.452C333.819 424.758 334.382 424.196 335.075 424.196H442.116C442.81 424.196 443.372 424.758 443.372 425.452C443.372 426.145 442.811 426.708 442.116 426.708Z" fill="#407BFF"/>
<path d="M442.116 433.569H335.075C334.382 433.569 333.819 433.007 333.819 432.313C333.819 431.62 334.382 431.057 335.075 431.057H442.116C442.81 431.057 443.372 431.62 443.372 432.313C443.372 433.008 442.811 433.569 442.116 433.569Z" fill="#407BFF"/>
<path d="M442.116 440.431H335.075C334.382 440.431 333.819 439.868 333.819 439.175C333.819 438.482 334.382 437.919 335.075 437.919H442.116C442.81 437.919 443.372 438.482 443.372 439.175C443.372 439.868 442.811 440.431 442.116 440.431Z" fill="#407BFF"/>
<path d="M442.116 488.926H350.403C349.71 488.926 349.147 488.365 349.147 487.67C349.147 486.976 349.71 486.414 350.403 486.414H442.116C442.809 486.414 443.372 486.976 443.372 487.67C443.372 488.364 442.811 488.926 442.116 488.926Z" fill="#407BFF"/>
<path d="M426.787 516.372H335.075C334.382 516.372 333.819 515.811 333.819 515.116C333.819 514.422 334.382 513.86 335.075 513.86H426.787C427.48 513.86 428.043 514.422 428.043 515.116C428.043 515.811 427.481 516.372 426.787 516.372Z" fill="#407BFF"/>
<path d="M442.116 495.789H335.075C334.382 495.789 333.819 495.228 333.819 494.533C333.819 493.839 334.382 493.277 335.075 493.277H442.116C442.81 493.277 443.372 493.839 443.372 494.533C443.372 495.228 442.811 495.789 442.116 495.789Z" fill="#407BFF"/>
<path d="M442.116 502.649H335.075C334.382 502.649 333.819 502.088 333.819 501.393C333.819 500.699 334.382 500.137 335.075 500.137H442.116C442.81 500.137 443.372 500.699 443.372 501.393C443.372 502.088 442.811 502.649 442.116 502.649Z" fill="#407BFF"/>
<path d="M442.116 509.511H335.075C334.382 509.511 333.819 508.949 333.819 508.255C333.819 507.56 334.382 506.999 335.075 506.999H442.116C442.81 506.999 443.372 507.56 443.372 508.255C443.372 508.949 442.811 509.511 442.116 509.511Z" fill="#407BFF"/>
<path d="M442.117 385.197H429.267V402.305H442.117V385.197Z" fill="#407BFF"/>
<path d="M342.198 399.443C346.132 399.443 349.32 396.254 349.32 392.32C349.32 388.386 346.132 385.197 342.198 385.197C338.264 385.197 335.075 388.386 335.075 392.32C335.075 396.254 338.264 399.443 342.198 399.443Z" fill="#407BFF"/>
<path d="M334.667 456.27C334.667 457.099 335.339 457.771 336.168 457.771C336.997 457.771 337.669 457.099 337.669 456.27C337.669 455.441 336.997 454.769 336.168 454.769C335.339 454.769 334.667 455.441 334.667 456.27Z" fill="#407BFF"/>
<path d="M334.667 463.132C334.667 463.961 335.339 464.633 336.168 464.633C336.997 464.633 337.669 463.961 337.669 463.132C337.669 462.303 336.997 461.631 336.168 461.631C335.339 461.631 334.667 462.303 334.667 463.132Z" fill="#407BFF"/>
<path d="M334.667 469.993C334.667 470.822 335.339 471.494 336.168 471.494C336.997 471.494 337.669 470.822 337.669 469.993C337.669 469.164 336.997 468.492 336.168 468.492C335.339 468.492 334.667 469.164 334.667 469.993Z" fill="#407BFF"/>
<path d="M334.667 476.855C334.667 477.684 335.339 478.356 336.168 478.356C336.997 478.356 337.669 477.684 337.669 476.855C337.669 476.026 336.997 475.354 336.168 475.354C335.339 475.354 334.667 476.026 334.667 476.855Z" fill="#407BFF"/>
<path d="M357.707 457.526H341.355C340.662 457.526 340.099 456.964 340.099 456.27C340.099 455.577 340.662 455.014 341.355 455.014H357.707C358.4 455.014 358.963 455.577 358.963 456.27C358.963 456.964 358.4 457.526 357.707 457.526Z" fill="#407BFF"/>
<path d="M373.036 464.388H341.355C340.662 464.388 340.099 463.825 340.099 463.132C340.099 462.439 340.662 461.876 341.355 461.876H373.036C373.73 461.876 374.292 462.439 374.292 463.132C374.292 463.825 373.731 464.388 373.036 464.388Z" fill="#407BFF"/>
<path d="M354.196 471.249H341.355C340.662 471.249 340.099 470.688 340.099 469.993C340.099 469.299 340.662 468.737 341.355 468.737H354.196C354.89 468.737 355.452 469.299 355.452 469.993C355.452 470.688 354.891 471.249 354.196 471.249Z" fill="#407BFF"/>
<path d="M368.012 478.111H341.355C340.662 478.111 340.099 477.549 340.099 476.855C340.099 476.16 340.662 475.599 341.355 475.599H368.012C368.706 475.599 369.268 476.16 369.268 476.855C369.268 477.549 368.707 478.111 368.012 478.111Z" fill="#407BFF"/>
<path opacity="0.5" d="M459.271 525.613L433.071 551.813V525.613H459.271Z" fill="#407BFF"/>
<path opacity="0.2" d="M442.116 385.197L429.267 402.305H442.116V385.197Z" fill="black"/>
<path opacity="0.2" d="M346.359 388.159H338.037V396.481H346.359V388.159Z" fill="black"/>
<path opacity="0.4" d="M459.271 375.157H451.869V525.613H459.271V375.157Z" fill="black"/>
<path d="M455.569 403.531C454.065 403.531 452.844 402.311 452.844 400.805V385.437C452.844 383.932 454.063 382.711 455.569 382.711C457.074 382.711 458.295 383.931 458.295 385.437V400.805C458.295 402.311 457.074 403.531 455.569 403.531Z" fill="#407BFF"/>
<path opacity="0.4" d="M455.569 403.531C454.065 403.531 452.844 402.311 452.844 400.805V385.437C452.844 383.932 454.063 382.711 455.569 382.711C457.074 382.711 458.295 383.931 458.295 385.437V400.805C458.295 402.311 457.074 403.531 455.569 403.531Z" fill="white"/>
<path d="M169.292 439.419H213.146C216.659 439.419 219.508 442.267 219.508 445.78V488.41C219.508 491.923 216.659 494.772 213.146 494.772H195.344L197.257 507.614L188.453 494.772H169.292C165.779 494.772 162.93 491.923 162.93 488.41V445.78C162.931 442.267 165.779 439.419 169.292 439.419Z" fill="#407BFF"/>
<path opacity="0.6" d="M169.292 439.419H213.146C216.659 439.419 219.508 442.267 219.508 445.78V488.41C219.508 491.923 216.659 494.772 213.146 494.772H195.344L197.257 507.614L188.453 494.772H169.292C165.779 494.772 162.93 491.923 162.93 488.41V445.78C162.931 442.267 165.779 439.419 169.292 439.419Z" fill="white"/>
<path d="M187.604 458.23V461.63L189.355 461.794C189.591 462.935 190.043 463.993 190.661 464.935L189.537 466.293L191.941 468.697L193.3 467.572C194.241 468.19 195.301 468.642 196.441 468.878L196.606 470.629H200.006L200.171 468.878C201.31 468.642 202.37 468.19 203.312 467.572L204.671 468.697L207.075 466.293L205.949 464.935C206.567 463.995 207.018 462.935 207.256 461.794L209.006 461.63V458.23L207.256 458.065C207.019 456.925 206.567 455.866 205.949 454.924L207.075 453.565L204.671 451.161L203.312 452.285C202.371 451.667 201.311 451.216 200.171 450.979L200.006 449.228H196.606L196.441 450.979C195.302 451.215 194.242 451.667 193.3 452.285L191.941 451.161L189.537 453.565L190.661 454.923C190.043 455.863 189.592 456.923 189.355 458.064L187.604 458.23ZM198.304 455.327C200.846 455.327 202.907 457.388 202.907 459.93C202.907 462.472 200.846 464.534 198.304 464.534C195.762 464.534 193.701 462.472 193.701 459.93C193.702 457.388 195.763 455.327 198.304 455.327Z" fill="#F5F5F5"/>
<path d="M189.801 483.039C190.694 482.854 191.524 482.501 192.263 482.016L193.327 482.898L195.211 481.014L194.329 479.948C194.813 479.211 195.167 478.381 195.353 477.488L196.724 477.359V474.695L195.353 474.565C195.167 473.672 194.814 472.842 194.329 472.103L195.211 471.038L193.327 469.154L192.263 470.036C191.526 469.553 190.694 469.198 189.801 469.012L189.672 467.641H187.008L186.878 469.012C185.985 469.198 185.155 469.551 184.418 470.036L183.353 469.154L181.469 471.038L182.351 472.103C181.867 472.841 181.513 473.671 181.327 474.565L179.955 474.695V477.359L181.327 477.488C181.512 478.381 181.866 479.211 182.351 479.95L181.469 481.015L183.353 482.899L184.418 482.017C185.155 482.501 185.985 482.855 186.878 483.041L187.008 484.412H189.672L189.801 483.039ZM184.732 476.027C184.732 474.035 186.347 472.42 188.339 472.42C190.331 472.42 191.946 474.035 191.946 476.027C191.946 478.019 190.331 479.634 188.339 479.634C186.347 479.634 184.732 478.019 184.732 476.027Z" fill="#F5F5F5"/>
<path d="M182.867 468.01L183.608 468.903L185.456 467.641L184.895 466.625C185.41 466.091 185.831 465.462 186.123 464.753L187.276 464.86L187.691 462.661L186.579 462.341C186.566 461.574 186.402 460.835 186.118 460.15L187.011 459.409L185.749 457.56L184.733 458.122C184.199 457.607 183.569 457.186 182.862 456.893L182.968 455.74L180.769 455.326L180.449 456.437C179.683 456.451 178.942 456.614 178.258 456.898L177.517 456.005L175.668 457.268L176.23 458.284C175.716 458.816 175.294 459.447 175.002 460.155L173.85 460.048L173.435 462.248L174.547 462.568C174.561 463.334 174.724 464.074 175.008 464.758L174.115 465.499L175.377 467.348L176.393 466.787C176.926 467.302 177.556 467.723 178.266 468.015L178.159 469.167L180.358 469.581L180.679 468.469C181.441 468.457 182.182 468.294 182.867 468.01ZM177.584 461.893C177.894 460.249 179.479 459.168 181.123 459.478C182.767 459.788 183.849 461.372 183.539 463.018C183.228 464.662 181.643 465.743 179.999 465.433C178.355 465.121 177.274 463.538 177.584 461.893Z" fill="#F5F5F5"/>
<path d="M241.546 595.394C241.546 595.394 244.641 623.213 245.644 626.527C246.648 629.842 260.808 647.548 260.808 647.548L256.79 649.644C256.79 649.644 241.671 634.148 239.319 629.552C236.966 624.956 233.338 600.969 233.338 600.969L241.546 595.394Z" fill="#EBB376"/>
<path d="M238.721 583.021C243.938 585.78 245.644 624.371 245.644 624.371L248.275 628.438L240.266 634.143C240.266 634.143 236.856 628.511 235.263 624.205C233.671 619.9 229.893 598.698 229.893 598.698L238.721 583.021Z" fill="#263238"/>
<path opacity="0.1" d="M238.721 583.021C243.938 585.78 245.644 624.371 245.644 624.371L248.275 628.438L240.266 634.143C240.266 634.143 236.856 628.511 235.263 624.205C233.671 619.9 229.893 598.698 229.893 598.698L238.721 583.021Z" fill="white"/>
<path d="M239.084 634.143L248.275 626.855L250.256 630.99L241.776 637.041L239.084 634.143Z" fill="#407BFF"/>
<path opacity="0.4" d="M239.084 634.143L248.275 626.855L250.256 630.99L241.776 637.041L239.084 634.143Z" fill="white"/>
<path d="M218.18 632.777L227.568 647.642C246.19 643.305 305.888 634.198 313.219 654.681C322.33 680.135 256.486 700.425 220.044 701.668C183.603 702.91 154.363 682.163 177.4 629.041L218.18 632.777Z" fill="#407BFF"/>
<path opacity="0.2" d="M218.18 632.777L227.568 647.642C246.19 643.305 305.888 634.198 313.219 654.681C322.33 680.135 256.486 700.425 220.044 701.668C183.603 702.91 154.363 682.163 177.4 629.041L218.18 632.777Z" fill="black"/>
<path d="M302.666 690.663C302.583 690.714 302.477 690.709 302.399 690.649C302.326 690.597 302.301 690.504 302.335 690.423C302.454 690.018 303.661 686.514 304.881 686.146C305.144 686.082 305.421 686.164 305.608 686.358C305.953 686.645 306.119 687.093 306.041 687.535C305.844 688.189 305.443 688.766 304.899 689.18C304.206 689.748 303.459 690.246 302.666 690.663ZM302.979 689.989C304.114 689.491 305.035 688.604 305.575 687.487C305.639 687.183 305.517 686.869 305.266 686.685C305.197 686.601 305.084 686.567 304.98 686.602C304.877 686.637 304.781 686.692 304.699 686.765C303.935 687.727 303.353 688.82 302.979 689.989Z" fill="#407BFF"/>
<path d="M302.601 690.708C302.518 690.738 302.426 690.712 302.374 690.641C302.261 690.543 300.578 688.419 300.855 686.986C300.922 686.628 301.131 686.311 301.435 686.108C301.698 685.856 302.101 685.817 302.406 686.018C303.287 686.638 303.18 689.481 302.747 690.557L302.716 690.665C302.683 690.689 302.642 690.705 302.601 690.708ZM301.645 686.544C301.493 686.676 301.39 686.856 301.354 687.054C301.179 687.961 302.024 689.321 302.48 689.973C302.758 688.758 302.667 686.765 302.151 686.407C302.095 686.378 301.989 686.294 301.729 686.478L301.645 686.544Z" fill="#407BFF"/>
<path d="M238.605 696.634C238.654 696.548 238.75 696.502 238.846 696.516C238.933 696.526 239.002 696.595 239.011 696.683C239.104 697.095 239.743 700.744 238.853 701.658C238.653 701.842 238.372 701.905 238.113 701.825C237.673 701.743 237.31 701.43 237.166 701.006C237.022 700.338 237.092 699.639 237.368 699.012C237.7 698.18 238.114 697.383 238.605 696.634ZM238.657 697.373C237.904 698.359 237.529 699.581 237.597 700.82C237.69 701.116 237.947 701.332 238.255 701.371C238.357 701.413 238.472 701.388 238.546 701.306C238.62 701.226 238.677 701.13 238.712 701.027C238.916 699.818 238.897 698.579 238.657 697.373Z" fill="#407BFF"/>
<path d="M262.457 678.194L247.465 683.535L240.266 686.098L242.112 693.977L249.085 692.493L266.116 688.863L262.457 678.194Z" fill="#EBB376"/>
<path d="M244.075 694.349L242.813 685.053C242.743 684.536 242.258 684.178 241.741 684.263L237.156 685.027C237.156 685.027 230.914 685.613 229.674 687.214C226.049 691.891 228.314 712.523 230.729 713.249C231.613 713.515 232.548 712.302 232.932 711.464C234.153 708.808 236.304 701.852 237.351 699.648C238.573 697.071 241.925 695.808 243.432 695.357C243.868 695.228 244.137 694.801 244.075 694.349Z" fill="#263238"/>
<path d="M238.64 696.563C238.697 696.497 238.791 696.477 238.872 696.512C239.019 696.542 241.518 697.586 241.97 698.975C242.086 699.32 242.054 699.699 241.887 700.025C241.78 700.373 241.445 700.601 241.081 700.575C240.011 700.458 238.728 697.92 238.585 696.768L238.56 696.659C238.576 696.62 238.605 696.586 238.64 696.563ZM241.493 699.743C241.562 699.554 241.564 699.348 241.502 699.156C241.215 698.278 239.817 697.495 239.103 697.146C239.447 698.342 240.491 700.044 241.116 700.106C241.18 700.105 241.312 700.127 241.451 699.84L241.493 699.743Z" fill="#407BFF"/>
<path opacity="0.2" d="M262.457 678.194L247.465 683.535L249.085 692.493L266.115 688.863L262.457 678.194Z" fill="black"/>
<path d="M251.741 693.839L256.054 694.149L253.167 679.315L248.275 682.021L251.741 693.839Z" fill="#407BFF"/>
<path opacity="0.6" d="M251.741 693.839L256.054 694.149L253.167 679.315L248.275 682.021L251.741 693.839Z" fill="white"/>
<path opacity="0.2" d="M189.198 636.196L211.654 661.095C211.654 661.095 236.483 660.542 266.629 675.278C266.629 675.278 298.979 661.915 301.95 650.815C305.841 636.273 227.568 647.641 227.568 647.641L189.198 636.196Z" fill="black"/>
<path d="M294.528 653.78V657.47C294.528 658.417 293.412 658.805 292.478 658.805H218.742C217.795 658.805 216.656 658.417 216.656 657.47V653.78H294.528Z" fill="#263238"/>
<path opacity="0.4" d="M294.528 653.78V657.47C294.528 658.417 293.412 658.805 292.478 658.805H218.742C217.795 658.805 216.656 658.417 216.656 657.47V653.78H294.528Z" fill="white"/>
<path opacity="0.2" d="M294.528 653.78V657.47C294.528 658.417 293.412 658.805 292.478 658.805H243.844C242.899 658.805 241.776 658.417 241.776 657.47V653.78H294.528Z" fill="black"/>
<path d="M306.864 615.471L298.087 655.285C297.801 656.596 296.524 657.548 295.236 657.548H247.288C246.011 657.548 245.191 656.357 245.487 655.046L254.254 615.536C254.55 614.236 255.815 613.588 257.104 613.588H305.054C306.34 613.588 307.15 614.171 306.864 615.471Z" fill="#263238"/>
<path opacity="0.4" d="M306.864 615.471L298.087 655.285C297.801 656.596 296.525 657.548 295.236 657.548H248.917C247.63 657.548 246.82 656.357 247.105 655.046L255.883 615.536C256.168 614.236 257.444 613.588 258.733 613.588H305.052C306.34 613.588 307.15 614.171 306.864 615.471Z" fill="white"/>
<path opacity="0.2" d="M283.224 635.708V635.72C283.224 639.129 279.569 641.898 276.89 641.898C274.211 641.898 272.622 639.129 273.385 635.72C274.149 632.379 276.815 629.655 279.437 629.552C278.673 632.961 280.31 635.72 282.977 635.72C283.035 635.72 283.224 635.72 283.224 635.708Z" fill="black"/>
<path d="M272.869 695.252L288.571 697.837L296.112 699.079L298.312 691.289L291.492 689.214L274.831 684.145L272.869 695.252Z" fill="#EBB376"/>
<path d="M296.773 690.013L293.377 698.759C293.187 699.247 293.439 699.794 293.932 699.97L298.314 701.521C298.314 701.521 304.059 704.029 305.921 703.228C311.355 700.891 319.362 681.739 317.6 679.934C316.956 679.274 315.55 679.884 314.809 680.43C312.454 682.164 307.204 687.209 305.222 688.63C302.905 690.293 299.361 689.776 297.823 689.442C297.381 689.345 296.938 689.59 296.773 690.013Z" fill="#263238"/>
<path opacity="0.2" d="M272.869 695.252L288.571 697.837L291.492 689.214L274.831 684.145L272.869 695.252Z" fill="black"/>
<path d="M288.788 687.587C288.788 687.587 224.764 651.596 202.674 652.62C180.583 653.643 177.396 673.12 186.509 685.309C195.624 697.499 212.454 700.467 212.454 700.467C212.454 700.467 200.996 684.272 202.652 679.717C204.308 675.161 210.791 681.518 210.791 681.518C210.791 681.518 251.069 694.526 286.302 697.51L288.788 687.587Z" fill="#407BFF"/>
<path d="M289.819 686.597L286.195 684.163L281.539 698.465H287.131L289.819 686.597Z" fill="#407BFF"/>
<path opacity="0.6" d="M289.819 686.597L286.195 684.163L281.539 698.465H287.131L289.819 686.597Z" fill="white"/>
<path d="M177.403 629.041L218.185 632.784C218.185 632.784 224.578 619.545 229.477 614.383C234.363 609.208 238.721 583.021 238.721 583.021C235.28 581.35 231.851 579.981 228.497 578.851C215.498 574.442 203.704 573.639 197.298 573.601H197.072C194.033 573.588 192.274 573.752 192.274 573.752C191.269 574.304 190.302 575.46 189.373 577.055C185.002 584.591 181.523 602.175 179.463 614.798C178.132 622.949 177.403 629.041 177.403 629.041Z" fill="#263238"/>
<path opacity="0.2" d="M179.463 614.798C188.456 610.678 200.727 603.707 200.086 596.636C199.396 588.874 193.103 581.062 189.373 577.055C185.002 584.591 181.523 602.175 179.463 614.798Z" fill="black"/>
<path d="M199.299 573.637C199.299 573.637 203.947 588.927 216.655 590.583C229.364 592.24 231.479 579.915 231.479 579.915C231.479 579.915 215.113 570.934 199.299 573.637Z" fill="#263238"/>
<path opacity="0.1" d="M199.299 573.637C199.299 573.637 203.947 588.927 216.655 590.583C229.364 592.24 231.479 579.915 231.479 579.915C231.479 579.915 215.113 570.934 199.299 573.637Z" fill="white"/>
<path d="M201.953 574.062C201.953 574.062 207.952 588.223 218.747 588.223C229.542 588.223 229.893 580.273 229.893 580.273C229.893 580.273 219.095 573.193 201.953 574.062Z" fill="#407BFF"/>
<path opacity="0.4" d="M201.953 574.062C201.953 574.062 207.952 588.223 218.747 588.223C229.542 588.223 229.893 580.273 229.893 580.273C229.893 580.273 219.095 573.193 201.953 574.062Z" fill="white"/>
<path d="M221.52 576.266C221.594 578.811 223.031 579.411 223.031 579.411C223.552 584.091 219.488 585.562 217.449 585.354C209.445 584.534 206.917 574.902 206.917 574.902C212.741 572.589 214.048 566.168 214.293 562.353C214.41 560.572 214.293 559.357 214.293 559.357L225.171 566.209C224.085 568.028 223.317 569.607 222.741 570.972C221.791 573.303 221.489 575.019 221.52 576.266Z" fill="#EBB376"/>
<path opacity="0.2" d="M224.504 565.356C223.609 567.276 223.005 568.923 222.569 570.34C221.86 572.754 221.734 574.493 221.891 575.73C215.775 576.21 213.344 562.7 213.344 562.7L213.291 562.622C213.227 560.839 212.987 559.64 212.987 559.64L224.504 565.356Z" fill="black"/>
<path d="M231.466 535.181C231.466 535.181 239.447 525.988 229.893 518.287C220.338 510.585 201.457 514.063 197.979 531.453C194.501 548.844 199.3 556.193 199.3 556.193C199.3 556.193 199.298 545.117 202.489 541.887C202.489 541.887 201.533 547.187 202.489 550.375C203.445 553.563 202.489 551.533 202.489 551.533C202.489 551.533 205.432 537.663 219.593 541.638C233.753 545.615 231.466 535.181 231.466 535.181Z" fill="#263238"/>
<path d="M233.374 538.179C243.896 541.388 245.564 548.052 243.028 559.13C239.859 572.974 233.919 581.683 221.647 574.778C204.98 565.399 215.902 532.85 233.374 538.179Z" fill="#EBB376"/>
<path d="M236.406 556.468C236.406 556.468 237.025 559.66 238.137 561.764C238.137 561.764 236.799 562.921 235.001 562.108L236.406 556.468Z" fill="#D58745"/>
<path d="M230.229 553.643C229.985 554.513 229.318 555.087 228.738 554.925C228.158 554.763 227.885 553.926 228.128 553.055C228.371 552.185 229.038 551.611 229.619 551.773C230.199 551.936 230.473 552.773 230.229 553.643Z" fill="#263238"/>
<path d="M229.365 551.748L231.465 551.534C231.465 551.534 230.078 552.864 229.365 551.748Z" fill="#263238"/>
<path d="M241.1 556.488C240.856 557.358 240.189 557.932 239.609 557.77C239.029 557.608 238.755 556.77 238.998 555.9C239.242 555.03 239.909 554.456 240.489 554.618C241.07 554.78 241.343 555.617 241.1 556.488Z" fill="#263238"/>
<path d="M240.236 554.593L242.336 554.379C242.336 554.379 240.949 555.709 240.236 554.593Z" fill="#263238"/>
<path d="M227.291 547C227.144 547 227 546.93 226.913 546.799C226.774 546.591 226.829 546.307 227.038 546.167C229.429 544.561 232.403 545.875 232.528 545.931C232.756 546.035 232.858 546.304 232.755 546.532C232.652 546.763 232.383 546.863 232.153 546.76C232.127 546.749 229.511 545.598 227.545 546.922C227.466 546.975 227.378 547 227.291 547Z" fill="#263238"/>
<path d="M244.051 550.833C243.921 550.833 243.79 550.777 243.7 550.668C242.023 548.627 240.221 548.669 240.145 548.689C239.903 548.689 239.681 548.507 239.668 548.257C239.656 548.009 239.845 547.795 240.095 547.78C240.184 547.764 242.417 547.672 244.403 550.089C244.564 550.283 244.535 550.571 244.34 550.73C244.256 550.798 244.153 550.833 244.051 550.833Z" fill="#263238"/>
<path d="M216.468 552.405C216.468 552.405 224.023 545.26 225.313 538.36C225.313 538.36 248.76 536.201 243.335 557.677C243.335 557.677 251.103 539.507 233.144 533.573C215.215 527.649 207.194 554.122 214.13 564.854C214.13 564.854 211.776 556.882 216.468 552.405Z" fill="#263238"/>
<path d="M232.575 566.855C232.572 566.855 232.568 566.855 232.564 566.855C227.42 566.733 226.761 561.961 226.755 561.913C226.724 561.664 226.9 561.436 227.149 561.405C227.397 561.376 227.625 561.549 227.658 561.799C227.68 561.964 228.236 565.843 232.585 565.946C232.837 565.952 233.035 566.16 233.03 566.411C233.025 566.658 232.823 566.855 232.575 566.855Z" fill="#263238"/>
<path d="M214.648 550.3C214.608 550.438 214.681 550.577 214.814 550.641C214.837 550.652 214.862 550.661 214.89 550.668L225.595 553.161C225.252 555.118 226.26 557.143 228.299 558.134C230.876 559.387 234.1 558.511 235.487 556.184C235.624 555.955 235.719 555.718 235.81 555.479C236.379 555.115 236.858 554.976 237.192 555.087C237.606 555.234 237.735 555.689 237.743 555.718C237.419 557.662 238.43 559.671 240.456 560.654C243.033 561.906 246.257 561.031 247.644 558.703C249.03 556.376 248.061 553.465 245.485 552.212C242.907 550.96 239.683 551.836 238.296 554.163C238.16 554.393 238.064 554.631 237.972 554.87C237.834 554.729 237.667 554.599 237.431 554.522C237.024 554.385 236.554 554.439 236.033 554.662C236.375 552.706 235.365 550.681 233.328 549.692C230.75 548.439 227.526 549.315 226.14 551.641C225.961 551.941 225.824 552.25 225.723 552.565L215.057 550.081C214.877 550.041 214.694 550.137 214.648 550.3ZM238.886 554.449C240.098 552.416 242.915 551.651 245.167 552.745C247.419 553.839 248.265 556.384 247.053 558.417C245.841 560.45 243.024 561.215 240.772 560.121C238.52 559.027 237.673 556.483 238.886 554.449ZM226.729 551.929C227.941 549.895 230.758 549.13 233.01 550.224C235.262 551.318 236.108 553.863 234.896 555.896C233.684 557.93 230.867 558.695 228.615 557.601C226.363 556.508 225.517 553.963 226.729 551.929Z" fill="#263238"/>
<g opacity="0.3">
<path d="M214.648 550.3C214.608 550.438 214.681 550.577 214.814 550.641C214.837 550.652 214.862 550.661 214.89 550.668L225.595 553.161C225.252 555.118 226.26 557.143 228.299 558.134C230.876 559.387 234.1 558.511 235.487 556.184C235.624 555.955 235.719 555.718 235.81 555.479C236.379 555.115 236.858 554.976 237.192 555.087C237.606 555.234 237.735 555.689 237.743 555.718C237.419 557.662 238.43 559.671 240.456 560.654C243.033 561.906 246.257 561.031 247.644 558.703C249.03 556.376 248.061 553.465 245.485 552.212C242.907 550.96 239.683 551.836 238.296 554.163C238.16 554.393 238.064 554.631 237.972 554.87C237.834 554.729 237.667 554.599 237.431 554.522C237.024 554.385 236.554 554.439 236.033 554.662C236.375 552.706 235.365 550.681 233.328 549.692C230.75 548.439 227.526 549.315 226.14 551.641C225.961 551.941 225.824 552.25 225.723 552.565L215.057 550.081C214.877 550.041 214.694 550.137 214.648 550.3ZM238.886 554.449C240.098 552.416 242.915 551.651 245.167 552.745C247.419 553.839 248.265 556.384 247.053 558.417C245.841 560.45 243.024 561.215 240.772 560.121C238.52 559.027 237.673 556.483 238.886 554.449ZM226.729 551.929C227.941 549.895 230.758 549.13 233.01 550.224C235.262 551.318 236.108 553.863 234.896 555.896C233.684 557.93 230.867 558.695 228.615 557.601C226.363 556.508 225.517 553.963 226.729 551.929Z" fill="white"/>
</g>
<path d="M217.51 555.149C217.955 553.433 217.083 550.033 213.827 549.417C210.458 548.778 206.864 554.997 214.483 559.08C215.575 559.666 216.578 558.729 217.51 555.149Z" fill="#EBB376"/>
<path d="M197.067 587.491C197.067 587.491 198.403 614.337 200.663 620.35C202.922 626.364 226.648 648.597 226.648 648.597C226.648 648.597 233.271 647.118 234.37 647.549C235.468 647.979 241.777 653.781 241.777 653.781H223.523L221.932 650.96C221.932 650.96 197.382 632.779 194.685 628.444C192.69 625.238 186.278 592.628 186.278 592.628L197.067 587.491Z" fill="#EBB376"/>
<path d="M192.274 573.752C196.531 571.532 198.607 578.659 201.149 593.068C203.691 607.478 203.275 620.636 203.275 620.636L206.915 627.104L197.729 635.569C197.729 635.569 190.881 629.311 188.04 620.637C185.199 611.962 177.378 581.515 192.274 573.752Z" fill="#263238"/>
<path opacity="0.1" d="M192.274 573.752C196.531 571.532 198.607 578.659 201.149 593.068C203.691 607.478 203.275 620.636 203.275 620.636L206.915 627.104L197.729 635.569C197.729 635.569 190.881 629.311 188.04 620.637C185.199 611.962 177.378 581.515 192.274 573.752Z" fill="white"/>
<path d="M195.322 635.568L206.916 625.199L209.654 629.039L199.299 639.209L195.322 635.568Z" fill="#407BFF"/>
<path opacity="0.4" d="M195.322 635.568L206.916 625.199L209.654 629.039L199.299 639.209L195.322 635.568Z" fill="white"/>
<defs>
<linearGradient id="paint0_linear_159_165" x1="227" y1="173" x2="568.5" y2="816.5" gradientUnits="userSpaceOnUse">
<stop stop-color="#0300FF"/>
<stop offset="1" stop-color="#02007B"/>
</linearGradient>
</defs>
</svg>
