<svg width="672" height="397" viewBox="0 0 672 397" fill="none" xmlns="http://www.w3.org/2000/svg">
<rect width="672" height="397" fill="black"/>
<ellipse cx="235" cy="168.5" rx="60" ry="61.5" fill="url(#paint0_linear_139_170)"/>
<path d="M265.517 159V141.545H272.403C273.727 141.545 274.855 141.798 275.787 142.304C276.719 142.804 277.429 143.5 277.918 144.392C278.412 145.278 278.659 146.301 278.659 147.46C278.659 148.619 278.409 149.642 277.909 150.528C277.409 151.415 276.685 152.105 275.736 152.599C274.793 153.094 273.651 153.341 272.31 153.341H267.92V150.384H271.713C272.423 150.384 273.009 150.261 273.469 150.017C273.935 149.767 274.281 149.423 274.509 148.986C274.741 148.543 274.858 148.034 274.858 147.46C274.858 146.881 274.741 146.375 274.509 145.943C274.281 145.506 273.935 145.168 273.469 144.929C273.003 144.685 272.412 144.562 271.696 144.562H269.207V159H265.517ZM284.369 159.247C283.534 159.247 282.79 159.102 282.136 158.812C281.483 158.517 280.966 158.082 280.585 157.509C280.21 156.929 280.023 156.207 280.023 155.344C280.023 154.616 280.156 154.006 280.423 153.511C280.69 153.017 281.054 152.619 281.514 152.318C281.974 152.017 282.497 151.79 283.082 151.636C283.673 151.483 284.293 151.375 284.94 151.312C285.702 151.233 286.315 151.159 286.781 151.091C287.247 151.017 287.585 150.909 287.795 150.767C288.006 150.625 288.111 150.415 288.111 150.136V150.085C288.111 149.545 287.94 149.128 287.599 148.832C287.264 148.537 286.787 148.389 286.168 148.389C285.514 148.389 284.994 148.534 284.608 148.824C284.222 149.108 283.966 149.466 283.841 149.898L280.483 149.625C280.653 148.83 280.989 148.142 281.489 147.562C281.989 146.977 282.634 146.528 283.423 146.216C284.219 145.898 285.139 145.739 286.185 145.739C286.912 145.739 287.608 145.824 288.273 145.994C288.943 146.165 289.537 146.429 290.054 146.787C290.577 147.145 290.989 147.605 291.29 148.168C291.591 148.724 291.741 149.392 291.741 150.17V159H288.298V157.185H288.196C287.986 157.594 287.705 157.955 287.352 158.267C287 158.574 286.577 158.815 286.082 158.991C285.588 159.162 285.017 159.247 284.369 159.247ZM285.409 156.741C285.943 156.741 286.415 156.636 286.824 156.426C287.233 156.21 287.554 155.92 287.787 155.557C288.02 155.193 288.136 154.781 288.136 154.321V152.932C288.023 153.006 287.866 153.074 287.668 153.136C287.474 153.193 287.256 153.247 287.011 153.298C286.767 153.344 286.523 153.386 286.278 153.426C286.034 153.46 285.812 153.491 285.614 153.52C285.188 153.582 284.815 153.682 284.497 153.818C284.179 153.955 283.932 154.139 283.756 154.372C283.58 154.599 283.491 154.884 283.491 155.224C283.491 155.719 283.67 156.097 284.028 156.358C284.392 156.614 284.852 156.741 285.409 156.741Z" fill="black"/>
<path d="M294.558 163.909V145.909H298.138V148.108H298.3C298.459 147.756 298.689 147.398 298.99 147.034C299.297 146.665 299.695 146.358 300.183 146.114C300.678 145.864 301.291 145.739 302.024 145.739C302.979 145.739 303.859 145.989 304.666 146.489C305.473 146.983 306.118 147.73 306.601 148.73C307.084 149.724 307.325 150.972 307.325 152.472C307.325 153.932 307.089 155.165 306.618 156.17C306.152 157.17 305.516 157.929 304.709 158.446C303.908 158.957 303.01 159.213 302.016 159.213C301.311 159.213 300.712 159.097 300.217 158.864C299.729 158.631 299.328 158.338 299.016 157.986C298.703 157.628 298.464 157.267 298.3 156.903H298.189V163.909H294.558ZM298.112 152.455C298.112 153.233 298.22 153.912 298.436 154.491C298.652 155.071 298.964 155.523 299.374 155.847C299.783 156.165 300.28 156.324 300.865 156.324C301.456 156.324 301.956 156.162 302.365 155.838C302.774 155.509 303.084 155.054 303.294 154.474C303.51 153.889 303.618 153.216 303.618 152.455C303.618 151.699 303.513 151.034 303.303 150.46C303.092 149.886 302.783 149.437 302.374 149.114C301.964 148.79 301.462 148.628 300.865 148.628C300.274 148.628 299.774 148.784 299.365 149.097C298.962 149.409 298.652 149.852 298.436 150.426C298.22 151 298.112 151.676 298.112 152.455ZM315.712 159.256C314.365 159.256 313.206 158.983 312.234 158.438C311.268 157.886 310.524 157.108 310.001 156.102C309.479 155.091 309.217 153.895 309.217 152.514C309.217 151.168 309.479 149.986 310.001 148.969C310.524 147.952 311.26 147.159 312.209 146.591C313.163 146.023 314.283 145.739 315.567 145.739C316.43 145.739 317.234 145.878 317.979 146.156C318.729 146.429 319.382 146.841 319.939 147.392C320.501 147.943 320.939 148.636 321.251 149.472C321.564 150.301 321.72 151.273 321.72 152.386V153.384H310.666V151.134H318.303C318.303 150.611 318.189 150.148 317.962 149.744C317.734 149.341 317.419 149.026 317.016 148.798C316.618 148.565 316.155 148.449 315.626 148.449C315.075 148.449 314.587 148.577 314.161 148.832C313.74 149.082 313.411 149.42 313.172 149.847C312.933 150.267 312.811 150.736 312.805 151.253V153.392C312.805 154.04 312.925 154.599 313.163 155.071C313.408 155.543 313.751 155.906 314.195 156.162C314.638 156.418 315.163 156.545 315.771 156.545C316.175 156.545 316.544 156.489 316.879 156.375C317.214 156.261 317.501 156.091 317.74 155.864C317.979 155.636 318.161 155.358 318.286 155.028L321.643 155.25C321.473 156.057 321.124 156.761 320.595 157.364C320.072 157.96 319.396 158.426 318.567 158.761C317.743 159.091 316.791 159.256 315.712 159.256ZM324.089 159V145.909H327.609V148.193H327.746C327.984 147.381 328.385 146.767 328.947 146.352C329.51 145.932 330.158 145.722 330.891 145.722C331.072 145.722 331.268 145.733 331.479 145.756C331.689 145.778 331.874 145.81 332.033 145.849V149.071C331.862 149.02 331.626 148.974 331.325 148.935C331.024 148.895 330.749 148.875 330.499 148.875C329.964 148.875 329.487 148.991 329.067 149.224C328.652 149.452 328.322 149.77 328.078 150.179C327.839 150.588 327.72 151.06 327.72 151.594V159H324.089ZM333.978 159V141.545H340.967C342.251 141.545 343.322 141.736 344.18 142.116C345.038 142.497 345.683 143.026 346.114 143.702C346.546 144.372 346.762 145.145 346.762 146.02C346.762 146.702 346.626 147.301 346.353 147.818C346.08 148.33 345.705 148.75 345.228 149.08C344.756 149.403 344.217 149.634 343.609 149.77V149.94C344.273 149.969 344.896 150.156 345.475 150.503C346.06 150.849 346.535 151.335 346.898 151.96C347.262 152.58 347.444 153.318 347.444 154.176C347.444 155.102 347.214 155.929 346.754 156.656C346.299 157.378 345.626 157.949 344.734 158.369C343.842 158.79 342.742 159 341.435 159H333.978ZM337.668 155.983H340.677C341.705 155.983 342.455 155.787 342.927 155.395C343.398 154.997 343.634 154.469 343.634 153.81C343.634 153.327 343.518 152.901 343.285 152.531C343.052 152.162 342.719 151.872 342.288 151.662C341.862 151.452 341.353 151.347 340.762 151.347H337.668V155.983ZM337.668 148.849H340.404C340.91 148.849 341.359 148.761 341.751 148.585C342.148 148.403 342.461 148.148 342.688 147.818C342.921 147.489 343.038 147.094 343.038 146.634C343.038 146.003 342.813 145.494 342.364 145.108C341.921 144.722 341.29 144.528 340.472 144.528H337.668V148.849ZM349.777 159V145.909H353.297V148.193H353.433C353.672 147.381 354.072 146.767 354.635 146.352C355.197 145.932 355.845 145.722 356.578 145.722C356.76 145.722 356.956 145.733 357.166 145.756C357.376 145.778 357.561 145.81 357.72 145.849V149.071C357.55 149.02 357.314 148.974 357.013 148.935C356.712 148.895 356.436 148.875 356.186 148.875C355.652 148.875 355.175 148.991 354.754 149.224C354.339 149.452 354.01 149.77 353.766 150.179C353.527 150.588 353.408 151.06 353.408 151.594V159H349.777ZM364.903 159.256C363.579 159.256 362.434 158.974 361.468 158.412C360.508 157.844 359.766 157.054 359.244 156.043C358.721 155.026 358.46 153.847 358.46 152.506C358.46 151.153 358.721 149.972 359.244 148.96C359.766 147.943 360.508 147.153 361.468 146.591C362.434 146.023 363.579 145.739 364.903 145.739C366.227 145.739 367.369 146.023 368.329 146.591C369.295 147.153 370.039 147.943 370.562 148.96C371.085 149.972 371.346 151.153 371.346 152.506C371.346 153.847 371.085 155.026 370.562 156.043C370.039 157.054 369.295 157.844 368.329 158.412C367.369 158.974 366.227 159.256 364.903 159.256ZM364.92 156.443C365.522 156.443 366.025 156.273 366.428 155.932C366.832 155.585 367.136 155.114 367.34 154.517C367.55 153.92 367.656 153.241 367.656 152.48C367.656 151.719 367.55 151.04 367.34 150.443C367.136 149.847 366.832 149.375 366.428 149.028C366.025 148.682 365.522 148.509 364.92 148.509C364.312 148.509 363.8 148.682 363.386 149.028C362.977 149.375 362.667 149.847 362.457 150.443C362.252 151.04 362.15 151.719 362.15 152.48C362.15 153.241 362.252 153.92 362.457 154.517C362.667 155.114 362.977 155.585 363.386 155.932C363.8 156.273 364.312 156.443 364.92 156.443ZM379.621 159.256C378.281 159.256 377.127 158.972 376.161 158.403C375.201 157.83 374.462 157.034 373.945 156.017C373.434 155 373.178 153.83 373.178 152.506C373.178 151.165 373.437 149.989 373.954 148.977C374.477 147.96 375.218 147.168 376.178 146.599C377.138 146.026 378.281 145.739 379.604 145.739C380.746 145.739 381.746 145.946 382.604 146.361C383.462 146.776 384.141 147.358 384.641 148.108C385.141 148.858 385.417 149.739 385.468 150.75H382.042C381.945 150.097 381.69 149.571 381.275 149.173C380.866 148.77 380.329 148.568 379.664 148.568C379.102 148.568 378.61 148.722 378.19 149.028C377.775 149.33 377.451 149.77 377.218 150.349C376.985 150.929 376.869 151.631 376.869 152.455C376.869 153.29 376.982 154 377.21 154.585C377.442 155.17 377.769 155.616 378.19 155.923C378.61 156.23 379.102 156.384 379.664 156.384C380.079 156.384 380.451 156.298 380.781 156.128C381.116 155.957 381.391 155.71 381.607 155.386C381.829 155.057 381.974 154.662 382.042 154.202H385.468C385.411 155.202 385.138 156.082 384.65 156.844C384.167 157.599 383.499 158.19 382.647 158.616C381.795 159.043 380.786 159.256 379.621 159.256ZM391.082 155.233L391.091 150.878H391.619L395.812 145.909H399.98L394.347 152.489H393.486L391.082 155.233ZM387.793 159V141.545H391.423V159H387.793ZM395.974 159L392.122 153.298L394.543 150.733L400.227 159H395.974ZM403.884 159.222C403.321 159.222 402.838 159.023 402.435 158.625C402.037 158.222 401.838 157.739 401.838 157.176C401.838 156.619 402.037 156.142 402.435 155.744C402.838 155.347 403.321 155.148 403.884 155.148C404.429 155.148 404.906 155.347 405.315 155.744C405.724 156.142 405.929 156.619 405.929 157.176C405.929 157.551 405.832 157.895 405.639 158.207C405.452 158.514 405.205 158.761 404.898 158.949C404.591 159.131 404.253 159.222 403.884 159.222Z" fill="white"/>
<path d="M220.395 184C220.236 183.42 220.003 182.878 219.696 182.372C219.389 181.861 219.009 181.415 218.554 181.034C218.105 180.648 217.585 180.347 216.994 180.131C216.409 179.915 215.756 179.807 215.034 179.807C213.898 179.807 212.881 180.102 211.983 180.693C211.085 181.284 210.375 182.136 209.852 183.25C209.335 184.364 209.077 185.705 209.077 187.273C209.077 188.835 209.338 190.173 209.861 191.287C210.384 192.401 211.099 193.256 212.009 193.852C212.923 194.443 213.969 194.739 215.145 194.739C216.219 194.739 217.168 194.5 217.991 194.023C218.815 193.545 219.457 192.864 219.918 191.977C220.384 191.091 220.611 190.037 220.599 188.815L221.111 188.977H215.52V187.545H222.151V188.977C222.151 190.466 221.849 191.753 221.247 192.838C220.645 193.923 219.818 194.761 218.767 195.352C217.716 195.943 216.509 196.239 215.145 196.239C213.622 196.239 212.29 195.872 211.148 195.139C210.006 194.401 209.116 193.361 208.48 192.02C207.849 190.673 207.534 189.091 207.534 187.273C207.534 185.903 207.716 184.668 208.08 183.565C208.443 182.463 208.957 181.52 209.622 180.736C210.293 179.952 211.085 179.352 212 178.938C212.915 178.517 213.926 178.307 215.034 178.307C215.989 178.307 216.861 178.457 217.651 178.759C218.446 179.06 219.145 179.474 219.747 180.003C220.355 180.526 220.852 181.131 221.239 181.818C221.631 182.5 221.895 183.227 222.031 184H220.395ZM229.448 196.298C228.658 196.298 227.937 196.145 227.283 195.838C226.63 195.526 226.11 195.077 225.724 194.491C225.337 193.901 225.144 193.185 225.144 192.344C225.144 191.696 225.266 191.151 225.511 190.707C225.755 190.264 226.102 189.901 226.55 189.616C226.999 189.332 227.531 189.108 228.144 188.943C228.758 188.778 229.434 188.651 230.173 188.56C230.906 188.469 231.525 188.389 232.031 188.321C232.542 188.253 232.931 188.145 233.198 187.997C233.465 187.849 233.599 187.611 233.599 187.281V186.974C233.599 186.082 233.332 185.381 232.798 184.869C232.269 184.352 231.508 184.094 230.513 184.094C229.57 184.094 228.8 184.301 228.204 184.716C227.613 185.131 227.198 185.619 226.96 186.182L225.519 185.662C225.815 184.946 226.224 184.375 226.746 183.949C227.269 183.517 227.854 183.207 228.502 183.02C229.15 182.827 229.806 182.73 230.471 182.73C230.971 182.73 231.491 182.795 232.031 182.926C232.576 183.057 233.082 183.284 233.548 183.608C234.013 183.926 234.391 184.372 234.681 184.946C234.971 185.514 235.116 186.236 235.116 187.111V196H233.599V193.929H233.505C233.323 194.315 233.053 194.69 232.695 195.054C232.337 195.418 231.888 195.716 231.349 195.949C230.809 196.182 230.175 196.298 229.448 196.298ZM229.653 194.909C230.46 194.909 231.158 194.73 231.749 194.372C232.34 194.014 232.795 193.54 233.113 192.949C233.437 192.352 233.599 191.696 233.599 190.98V189.088C233.485 189.196 233.295 189.293 233.028 189.378C232.766 189.463 232.462 189.54 232.116 189.608C231.775 189.67 231.434 189.724 231.093 189.77C230.752 189.815 230.445 189.855 230.173 189.889C229.434 189.98 228.803 190.122 228.281 190.315C227.758 190.509 227.357 190.776 227.079 191.116C226.8 191.452 226.661 191.884 226.661 192.412C226.661 193.207 226.945 193.824 227.513 194.261C228.082 194.693 228.795 194.909 229.653 194.909ZM239.168 196V182.909H240.694V196H239.168ZM239.944 180.659C239.631 180.659 239.364 180.554 239.143 180.344C238.921 180.128 238.81 179.869 238.81 179.568C238.81 179.267 238.921 179.011 239.143 178.801C239.364 178.585 239.631 178.477 239.944 178.477C240.256 178.477 240.523 178.585 240.745 178.801C240.967 179.011 241.077 179.267 241.077 179.568C241.077 179.869 240.967 180.128 240.745 180.344C240.523 180.554 240.256 180.659 239.944 180.659ZM246.223 187.818V196H244.706V182.909H246.18V184.963H246.317C246.624 184.293 247.101 183.756 247.749 183.352C248.402 182.943 249.209 182.739 250.169 182.739C251.05 182.739 251.822 182.923 252.487 183.293C253.158 183.656 253.678 184.193 254.047 184.903C254.422 185.614 254.609 186.486 254.609 187.52V196H253.092V187.614C253.092 186.54 252.791 185.69 252.189 185.065C251.592 184.44 250.791 184.128 249.786 184.128C249.098 184.128 248.487 184.276 247.953 184.571C247.419 184.866 246.996 185.293 246.683 185.849C246.376 186.401 246.223 187.057 246.223 187.818ZM265.67 196V178.545H275.769V179.977H267.263V186.548H274.977V187.98H267.263V196H265.67ZM283.073 196.298C282.283 196.298 281.562 196.145 280.908 195.838C280.255 195.526 279.735 195.077 279.349 194.491C278.962 193.901 278.769 193.185 278.769 192.344C278.769 191.696 278.891 191.151 279.136 190.707C279.38 190.264 279.727 189.901 280.175 189.616C280.624 189.332 281.156 189.108 281.769 188.943C282.383 188.778 283.059 188.651 283.798 188.56C284.531 188.469 285.15 188.389 285.656 188.321C286.167 188.253 286.556 188.145 286.823 187.997C287.09 187.849 287.224 187.611 287.224 187.281V186.974C287.224 186.082 286.957 185.381 286.423 184.869C285.894 184.352 285.133 184.094 284.138 184.094C283.195 184.094 282.425 184.301 281.829 184.716C281.238 185.131 280.823 185.619 280.585 186.182L279.144 185.662C279.44 184.946 279.849 184.375 280.371 183.949C280.894 183.517 281.479 183.207 282.127 183.02C282.775 182.827 283.431 182.73 284.096 182.73C284.596 182.73 285.116 182.795 285.656 182.926C286.201 183.057 286.707 183.284 287.173 183.608C287.638 183.926 288.016 184.372 288.306 184.946C288.596 185.514 288.741 186.236 288.741 187.111V196H287.224V193.929H287.13C286.948 194.315 286.678 194.69 286.32 195.054C285.962 195.418 285.513 195.716 284.974 195.949C284.434 196.182 283.8 196.298 283.073 196.298ZM283.278 194.909C284.085 194.909 284.783 194.73 285.374 194.372C285.965 194.014 286.42 193.54 286.738 192.949C287.062 192.352 287.224 191.696 287.224 190.98V189.088C287.11 189.196 286.92 189.293 286.653 189.378C286.391 189.463 286.087 189.54 285.741 189.608C285.4 189.67 285.059 189.724 284.718 189.77C284.377 189.815 284.07 189.855 283.798 189.889C283.059 189.98 282.428 190.122 281.906 190.315C281.383 190.509 280.982 190.776 280.704 191.116C280.425 191.452 280.286 191.884 280.286 192.412C280.286 193.207 280.57 193.824 281.138 194.261C281.707 194.693 282.42 194.909 283.278 194.909Z" fill="black"/>
<path d="M301.572 185.781L300.183 186.173C300.046 185.781 299.853 185.426 299.603 185.108C299.353 184.79 299.026 184.537 298.623 184.349C298.225 184.162 297.731 184.068 297.14 184.068C296.254 184.068 295.526 184.278 294.958 184.699C294.39 185.119 294.106 185.662 294.106 186.327C294.106 186.889 294.299 187.347 294.685 187.699C295.077 188.045 295.68 188.321 296.492 188.526L298.469 189.011C299.566 189.278 300.387 189.702 300.933 190.281C301.484 190.861 301.759 191.588 301.759 192.463C301.759 193.202 301.555 193.858 301.146 194.432C300.737 195.006 300.165 195.457 299.433 195.787C298.705 196.111 297.862 196.273 296.901 196.273C295.623 196.273 294.569 195.986 293.739 195.412C292.91 194.832 292.379 193.997 292.146 192.906L293.603 192.548C293.79 193.327 294.157 193.915 294.702 194.312C295.254 194.71 295.978 194.909 296.876 194.909C297.881 194.909 298.685 194.685 299.288 194.236C299.89 193.781 300.191 193.213 300.191 192.531C300.191 192.003 300.015 191.56 299.663 191.202C299.31 190.838 298.776 190.571 298.06 190.401L295.921 189.889C294.785 189.616 293.944 189.185 293.398 188.594C292.853 188.003 292.58 187.27 292.58 186.395C292.58 185.673 292.776 185.04 293.168 184.494C293.56 183.943 294.1 183.511 294.788 183.199C295.475 182.886 296.259 182.73 297.14 182.73C298.339 182.73 299.296 183.003 300.012 183.548C300.734 184.088 301.254 184.832 301.572 185.781ZM310.237 182.909V184.23H303.99V182.909H310.237ZM305.942 179.773H307.467V192.582C307.467 193.128 307.561 193.557 307.749 193.869C307.936 194.176 308.18 194.395 308.482 194.526C308.783 194.651 309.104 194.713 309.445 194.713C309.643 194.713 309.814 194.702 309.956 194.679C310.098 194.651 310.223 194.622 310.331 194.594L310.655 195.966C310.507 196.023 310.325 196.074 310.109 196.119C309.893 196.17 309.626 196.196 309.308 196.196C308.751 196.196 308.214 196.074 307.697 195.83C307.186 195.585 306.766 195.222 306.436 194.739C306.107 194.256 305.942 193.656 305.942 192.94V179.773ZM318.835 196.273C317.613 196.273 316.556 195.989 315.664 195.42C314.772 194.847 314.082 194.054 313.593 193.043C313.11 192.026 312.869 190.855 312.869 189.531C312.869 188.213 313.11 187.043 313.593 186.02C314.082 184.991 314.755 184.187 315.613 183.608C316.477 183.023 317.474 182.73 318.604 182.73C319.315 182.73 319.999 182.861 320.658 183.122C321.317 183.378 321.908 183.773 322.431 184.307C322.96 184.835 323.377 185.503 323.684 186.31C323.991 187.111 324.144 188.06 324.144 189.156V189.906H313.917V188.568H322.593C322.593 187.727 322.423 186.972 322.082 186.301C321.746 185.625 321.278 185.091 320.675 184.699C320.079 184.307 319.388 184.111 318.604 184.111C317.775 184.111 317.045 184.332 316.414 184.776C315.783 185.219 315.289 185.804 314.931 186.531C314.579 187.259 314.4 188.054 314.394 188.918V189.719C314.394 190.759 314.573 191.668 314.931 192.446C315.295 193.219 315.809 193.818 316.474 194.244C317.138 194.67 317.925 194.884 318.835 194.884C319.454 194.884 319.996 194.787 320.462 194.594C320.934 194.401 321.329 194.142 321.647 193.818C321.971 193.489 322.215 193.128 322.38 192.736L323.82 193.205C323.621 193.756 323.295 194.264 322.84 194.73C322.391 195.196 321.829 195.571 321.153 195.855C320.482 196.134 319.71 196.273 318.835 196.273ZM327.487 196V182.909H328.962V184.92H329.072C329.334 184.261 329.788 183.73 330.436 183.327C331.089 182.918 331.828 182.713 332.652 182.713C332.777 182.713 332.916 182.716 333.07 182.722C333.223 182.727 333.351 182.733 333.453 182.739V184.281C333.385 184.27 333.266 184.253 333.095 184.23C332.925 184.207 332.74 184.196 332.541 184.196C331.859 184.196 331.251 184.341 330.717 184.631C330.189 184.915 329.771 185.31 329.464 185.815C329.158 186.321 329.004 186.898 329.004 187.545V196H327.487ZM337.065 193.614L336.911 194.526C336.815 195.139 336.678 195.815 336.502 196.554C336.326 197.293 336.144 197.994 335.957 198.659C335.769 199.324 335.607 199.858 335.471 200.261H334.303C334.377 199.875 334.471 199.384 334.585 198.787C334.704 198.19 334.826 197.528 334.951 196.801C335.076 196.08 335.19 195.335 335.292 194.568L335.411 193.614H337.065ZM353.473 184C353.314 183.42 353.081 182.878 352.774 182.372C352.467 181.861 352.087 181.415 351.632 181.034C351.183 180.648 350.663 180.347 350.072 180.131C349.487 179.915 348.834 179.807 348.112 179.807C346.976 179.807 345.959 180.102 345.061 180.693C344.163 181.284 343.453 182.136 342.93 183.25C342.413 184.364 342.155 185.705 342.155 187.273C342.155 188.835 342.416 190.173 342.939 191.287C343.462 192.401 344.178 193.256 345.087 193.852C346.001 194.443 347.047 194.739 348.223 194.739C349.297 194.739 350.246 194.5 351.07 194.023C351.893 193.545 352.536 192.864 352.996 191.977C353.462 191.091 353.689 190.037 353.678 188.815L354.189 188.977H348.598V187.545H355.229V188.977C355.229 190.466 354.928 191.753 354.325 192.838C353.723 193.923 352.896 194.761 351.845 195.352C350.794 195.943 349.587 196.239 348.223 196.239C346.7 196.239 345.368 195.872 344.226 195.139C343.084 194.401 342.195 193.361 341.558 192.02C340.928 190.673 340.612 189.091 340.612 187.273C340.612 185.903 340.794 184.668 341.158 183.565C341.521 182.463 342.036 181.52 342.7 180.736C343.371 179.952 344.163 179.352 345.078 178.938C345.993 178.517 347.004 178.307 348.112 178.307C349.067 178.307 349.939 178.457 350.729 178.759C351.524 179.06 352.223 179.474 352.825 180.003C353.433 180.526 353.93 181.131 354.317 181.818C354.709 182.5 354.973 183.227 355.109 184H353.473ZM358.87 196V182.909H360.344V184.92H360.455C360.717 184.261 361.171 183.73 361.819 183.327C362.472 182.918 363.211 182.713 364.035 182.713C364.16 182.713 364.299 182.716 364.452 182.722C364.606 182.727 364.734 182.733 364.836 182.739V184.281C364.768 184.27 364.648 184.253 364.478 184.23C364.308 184.207 364.123 184.196 363.924 184.196C363.242 184.196 362.634 184.341 362.1 184.631C361.572 184.915 361.154 185.31 360.847 185.815C360.54 186.321 360.387 186.898 360.387 187.545V196H358.87ZM372.114 196.273C370.984 196.273 369.984 195.986 369.114 195.412C368.251 194.838 367.575 194.045 367.086 193.034C366.597 192.017 366.353 190.844 366.353 189.514C366.353 188.173 366.597 186.994 367.086 185.977C367.575 184.955 368.251 184.159 369.114 183.591C369.984 183.017 370.984 182.73 372.114 182.73C373.245 182.73 374.242 183.017 375.106 183.591C375.969 184.165 376.646 184.96 377.134 185.977C377.629 186.994 377.876 188.173 377.876 189.514C377.876 190.844 377.631 192.017 377.143 193.034C376.654 194.045 375.975 194.838 375.106 195.412C374.242 195.986 373.245 196.273 372.114 196.273ZM372.114 194.884C373.023 194.884 373.793 194.639 374.424 194.151C375.055 193.662 375.532 193.011 375.856 192.199C376.185 191.386 376.35 190.491 376.35 189.514C376.35 188.537 376.185 187.639 375.856 186.821C375.532 186.003 375.055 185.347 374.424 184.852C373.793 184.358 373.023 184.111 372.114 184.111C371.211 184.111 370.441 184.358 369.805 184.852C369.174 185.347 368.694 186.003 368.364 186.821C368.04 187.639 367.879 188.537 367.879 189.514C367.879 190.491 368.04 191.386 368.364 192.199C368.694 193.011 369.174 193.662 369.805 194.151C370.435 194.639 371.205 194.884 372.114 194.884ZM383.667 196L379.712 182.909H381.315L384.417 193.707H384.528L387.621 182.909H389.232L392.3 193.682H392.42L395.522 182.909H397.124L393.17 196H391.602L388.499 185.27H388.337L385.235 196H383.667ZM407.138 196V178.545H417.238V179.977H408.732V186.548H416.445V187.98H408.732V196H407.138ZM424.542 196.298C423.752 196.298 423.031 196.145 422.377 195.838C421.724 195.526 421.204 195.077 420.817 194.491C420.431 193.901 420.238 193.185 420.238 192.344C420.238 191.696 420.36 191.151 420.604 190.707C420.849 190.264 421.195 189.901 421.644 189.616C422.093 189.332 422.624 189.108 423.238 188.943C423.852 188.778 424.528 188.651 425.266 188.56C425.999 188.469 426.619 188.389 427.124 188.321C427.636 188.253 428.025 188.145 428.292 187.997C428.559 187.849 428.692 187.611 428.692 187.281V186.974C428.692 186.082 428.425 185.381 427.891 184.869C427.363 184.352 426.602 184.094 425.607 184.094C424.664 184.094 423.894 184.301 423.298 184.716C422.707 185.131 422.292 185.619 422.053 186.182L420.613 185.662C420.908 184.946 421.317 184.375 421.84 183.949C422.363 183.517 422.948 183.207 423.596 183.02C424.244 182.827 424.9 182.73 425.565 182.73C426.065 182.73 426.585 182.795 427.124 182.926C427.67 183.057 428.175 183.284 428.641 183.608C429.107 183.926 429.485 184.372 429.775 184.946C430.065 185.514 430.21 186.236 430.21 187.111V196H428.692V193.929H428.599C428.417 194.315 428.147 194.69 427.789 195.054C427.431 195.418 426.982 195.716 426.442 195.949C425.903 196.182 425.269 196.298 424.542 196.298ZM424.746 194.909C425.553 194.909 426.252 194.73 426.843 194.372C427.434 194.014 427.888 193.54 428.207 192.949C428.531 192.352 428.692 191.696 428.692 190.98V189.088C428.579 189.196 428.388 189.293 428.121 189.378C427.86 189.463 427.556 189.54 427.21 189.608C426.869 189.67 426.528 189.724 426.187 189.77C425.846 189.815 425.539 189.855 425.266 189.889C424.528 189.98 423.897 190.122 423.374 190.315C422.852 190.509 422.451 190.776 422.173 191.116C421.894 191.452 421.755 191.884 421.755 192.412C421.755 193.207 422.039 193.824 422.607 194.261C423.175 194.693 423.888 194.909 424.746 194.909ZM443.04 185.781L441.651 186.173C441.515 185.781 441.322 185.426 441.072 185.108C440.822 184.79 440.495 184.537 440.092 184.349C439.694 184.162 439.2 184.068 438.609 184.068C437.722 184.068 436.995 184.278 436.427 184.699C435.859 185.119 435.575 185.662 435.575 186.327C435.575 186.889 435.768 187.347 436.154 187.699C436.546 188.045 437.148 188.321 437.961 188.526L439.938 189.011C441.035 189.278 441.856 189.702 442.401 190.281C442.952 190.861 443.228 191.588 443.228 192.463C443.228 193.202 443.023 193.858 442.614 194.432C442.205 195.006 441.634 195.457 440.901 195.787C440.174 196.111 439.33 196.273 438.37 196.273C437.092 196.273 436.038 195.986 435.208 195.412C434.379 194.832 433.847 193.997 433.614 192.906L435.072 192.548C435.259 193.327 435.626 193.915 436.171 194.312C436.722 194.71 437.447 194.909 438.344 194.909C439.35 194.909 440.154 194.685 440.756 194.236C441.359 193.781 441.66 193.213 441.66 192.531C441.66 192.003 441.484 191.56 441.131 191.202C440.779 190.838 440.245 190.571 439.529 190.401L437.39 189.889C436.254 189.616 435.413 189.185 434.867 188.594C434.322 188.003 434.049 187.27 434.049 186.395C434.049 185.673 434.245 185.04 434.637 184.494C435.029 183.943 435.569 183.511 436.256 183.199C436.944 182.886 437.728 182.73 438.609 182.73C439.808 182.73 440.765 183.003 441.481 183.548C442.202 184.088 442.722 184.832 443.04 185.781ZM451.706 182.909V184.23H445.459V182.909H451.706ZM447.411 179.773H448.936V192.582C448.936 193.128 449.03 193.557 449.217 193.869C449.405 194.176 449.649 194.395 449.95 194.526C450.251 194.651 450.572 194.713 450.913 194.713C451.112 194.713 451.283 194.702 451.425 194.679C451.567 194.651 451.692 194.622 451.8 194.594L452.124 195.966C451.976 196.023 451.794 196.074 451.578 196.119C451.362 196.17 451.095 196.196 450.777 196.196C450.22 196.196 449.683 196.074 449.166 195.83C448.655 195.585 448.234 195.222 447.905 194.739C447.575 194.256 447.411 193.656 447.411 192.94V179.773ZM460.303 196.273C459.082 196.273 458.025 195.989 457.133 195.42C456.241 194.847 455.55 194.054 455.062 193.043C454.579 192.026 454.337 190.855 454.337 189.531C454.337 188.213 454.579 187.043 455.062 186.02C455.55 184.991 456.224 184.187 457.082 183.608C457.945 183.023 458.942 182.73 460.073 182.73C460.783 182.73 461.468 182.861 462.127 183.122C462.786 183.378 463.377 183.773 463.9 184.307C464.428 184.835 464.846 185.503 465.153 186.31C465.46 187.111 465.613 188.06 465.613 189.156V189.906H455.386V188.568H464.062C464.062 187.727 463.891 186.972 463.55 186.301C463.215 185.625 462.746 185.091 462.144 184.699C461.548 184.307 460.857 184.111 460.073 184.111C459.244 184.111 458.513 184.332 457.883 184.776C457.252 185.219 456.758 185.804 456.4 186.531C456.048 187.259 455.869 188.054 455.863 188.918V189.719C455.863 190.759 456.042 191.668 456.4 192.446C456.763 193.219 457.278 193.818 457.942 194.244C458.607 194.67 459.394 194.884 460.303 194.884C460.923 194.884 461.465 194.787 461.931 194.594C462.403 194.401 462.798 194.142 463.116 193.818C463.44 193.489 463.684 193.128 463.849 192.736L465.289 193.205C465.09 193.756 464.763 194.264 464.309 194.73C463.86 195.196 463.298 195.571 462.621 195.855C461.951 196.134 461.178 196.273 460.303 196.273ZM468.956 196V182.909H470.43V184.92H470.541C470.803 184.261 471.257 183.73 471.905 183.327C472.558 182.918 473.297 182.713 474.121 182.713C474.246 182.713 474.385 182.716 474.538 182.722C474.692 182.727 474.82 182.733 474.922 182.739V184.281C474.854 184.27 474.734 184.253 474.564 184.23C474.393 184.207 474.209 184.196 474.01 184.196C473.328 184.196 472.72 184.341 472.186 184.631C471.658 184.915 471.24 185.31 470.933 185.815C470.626 186.321 470.473 186.898 470.473 187.545V196H468.956Z" fill="white"/>
<defs>
<linearGradient id="paint0_linear_139_170" x1="235" y1="107" x2="235" y2="230" gradientUnits="userSpaceOnUse">
<stop stop-color="#0F0BC7"/>
<stop offset="1" stop-color="white"/>
</linearGradient>
</defs>
</svg>
