<svg width="200" height="199" viewBox="0 0 200 199" fill="none" xmlns="http://www.w3.org/2000/svg">
<g clip-path="url(#clip0_75_1399)">
<path d="M69.1531 57.7117C74.993 67.8267 71.5153 80.8054 61.4004 86.6453C51.2855 92.4852 38.3067 89.0075 32.4668 78.8926C26.627 68.7776 30.1046 55.7989 40.2195 49.959C50.3345 44.1192 63.3132 47.5968 69.1531 57.7117ZM64.4262 91.8862C54.3113 97.7261 50.8336 110.705 56.6735 120.82C62.5134 130.935 75.4921 134.412 85.6071 128.572C95.722 122.733 99.1996 109.754 93.3598 99.6389C87.5199 89.524 74.5411 86.0463 64.4262 91.8862ZM111.594 64.6537C101.479 70.4936 98.0017 83.4723 103.842 93.5873C109.681 103.702 122.66 107.18 132.775 101.34C142.89 95.5001 146.368 82.5214 140.528 72.4064C134.688 62.2915 121.709 58.8138 111.594 64.6537ZM117.566 141.566C123.406 151.681 119.929 164.66 109.814 170.5C99.6988 176.34 86.72 172.862 80.8802 162.747C75.0403 152.632 78.518 139.653 88.6329 133.813C98.7478 127.974 111.727 131.451 117.566 141.566ZM107.085 147.618C104.582 143.284 99.0188 141.793 94.6846 144.295C90.3503 146.798 88.8596 152.361 91.362 156.695C93.8643 161.03 99.4278 162.52 103.762 160.018C108.096 157.516 109.587 151.952 107.085 147.618ZM164.735 114.334C170.574 124.449 167.097 137.427 156.982 143.267C146.867 149.107 133.888 145.629 128.048 135.514C122.208 125.4 125.686 112.421 135.801 106.581C145.916 100.741 158.895 104.219 164.735 114.334ZM154.253 120.385C151.75 116.051 146.187 114.56 141.853 117.063C137.518 119.565 136.028 125.129 138.53 129.463C141.032 133.797 146.596 135.288 150.93 132.785C155.264 130.283 156.755 124.719 154.253 120.385ZM79.6349 51.6601C73.795 41.5451 77.2727 28.5664 87.3876 22.7265C97.5026 16.8867 110.481 20.3643 116.321 30.4792C122.161 40.5942 118.683 53.5729 108.568 59.4128C98.4535 65.2527 85.4748 61.775 79.6349 51.6601ZM90.1167 45.6084C92.6191 49.9426 98.1826 51.4334 102.517 48.931C106.851 46.4286 108.342 40.8651 105.839 36.5309C103.337 32.1967 97.7735 30.7059 93.4393 33.2083C89.1051 35.7107 87.6143 41.2742 90.1167 45.6084Z" fill="#E6E6E6"/>
</g>
<defs>
<clipPath id="clip0_75_1399">
<rect width="145.24" height="145.24" fill="white" transform="translate(0.912842 72.6528) rotate(-30)"/>
</clipPath>
</defs>
</svg>
