<svg width="213" height="204" viewBox="0 0 213 204" fill="none" xmlns="http://www.w3.org/2000/svg">
<g clip-path="url(#clip0_189_166)">
<path d="M168.334 102C168.334 113.678 178.221 123.146 190.417 123.146C202.613 123.146 212.5 113.678 212.5 102C212.5 90.3215 202.613 80.8542 190.417 80.8542C178.221 80.8542 168.334 90.3215 168.334 102Z" fill="white"/>
<path d="M84.4168 102C84.4168 113.678 94.3038 123.146 106.5 123.146C118.696 123.146 128.583 113.678 128.583 102C128.583 90.3215 118.696 80.8542 106.5 80.8542C94.3038 80.8542 84.4168 90.3215 84.4168 102Z" fill="white"/>
<path d="M0.499999 102C0.499999 113.678 10.387 123.146 22.5832 123.146C34.7794 123.146 44.6664 113.678 44.6664 102C44.6664 90.3215 34.7794 80.8542 22.5832 80.8542C10.387 80.8542 0.5 90.3215 0.499999 102Z" fill="white"/>
</g>
<defs>
<clipPath id="clip0_189_166">
<rect width="203" height="212" fill="white" transform="translate(212.5 0.5) rotate(90)"/>
</clipPath>
</defs>
</svg>
