<svg width="8" height="5" viewBox="0 0 8 5" fill="none" xmlns="http://www.w3.org/2000/svg">
<path d="M7.39518 0H0.60482C0.4847 0.000546568 0.367425 0.0397348 0.267828 0.11261C0.168229 0.185485 0.0907798 0.288774 0.0452728 0.409415C-0.000234604 0.530057 -0.0117569 0.662633 0.0121646 0.79038C0.0360856 0.918128 0.0943756 1.03531 0.179663 1.12711L3.56877 4.80503C3.62523 4.86681 3.69241 4.91585 3.76642 4.94931C3.84043 4.98277 3.91982 5 4 5C4.08018 5 4.15957 4.98277 4.23358 4.94931C4.30759 4.91585 4.37477 4.86681 4.43123 4.80503L7.82034 1.12711C7.90562 1.03531 7.96391 0.918128 7.98783 0.79038C8.01176 0.662633 8.00023 0.530057 7.95473 0.409415C7.90922 0.288774 7.83177 0.185485 7.73217 0.11261C7.63257 0.0397348 7.5153 0.000546568 7.39518 0Z" fill="black"/>
</svg>
