<svg width="8" height="5" viewBox="0 0 8 5" fill="none" xmlns="http://www.w3.org/2000/svg">
<path d="M0.60482 5L7.39518 5C7.5153 4.99945 7.63257 4.96027 7.73217 4.88739C7.83177 4.81452 7.90922 4.71123 7.95473 4.59058C8.00023 4.46994 8.01176 4.33737 7.98784 4.20962C7.96391 4.08187 7.90562 3.96469 7.82034 3.87289L4.43123 0.194968C4.37477 0.133189 4.30759 0.0841541 4.23358 0.0506911C4.15957 0.0172281 4.08018 0 4 0C3.91982 0 3.84043 0.0172281 3.76642 0.0506911C3.69241 0.0841541 3.62523 0.133189 3.56877 0.194968L0.179664 3.87289C0.0943763 3.96469 0.0360867 4.08187 0.0121654 4.20962C-0.0117558 4.33737 -0.000234513 4.46994 0.0452728 4.59058C0.0907801 4.71123 0.16823 4.81452 0.267828 4.88739C0.367426 4.96027 0.4847 4.99945 0.60482 5Z" fill="black"/>
</svg>
