<svg width="100" height="100" viewBox="0 0 100 100" fill="none" xmlns="http://www.w3.org/2000/svg">
<rect width="100" height="100" fill="url(#paint0_linear_113_167)"/>
<path d="M12.556 72V25.1H29.909C33.661 25.1 36.7653 25.7253 39.222 26.976C41.6787 28.2267 43.51 29.9463 44.716 32.135C45.922 34.3237 46.525 36.7803 46.525 39.505C46.525 42.0957 45.9443 44.4853 44.783 46.674C43.6217 48.818 41.8127 50.56 39.356 51.9C36.8993 53.1953 33.7503 53.843 29.909 53.843H21.132V72H12.556ZM21.132 46.875H29.373C32.3657 46.875 34.5097 46.2273 35.805 44.932C37.145 43.592 37.815 41.783 37.815 39.505C37.815 37.1823 37.145 35.3733 35.805 34.078C34.5097 32.738 32.3657 32.068 29.373 32.068H21.132V46.875ZM49.2333 72V25.1H66.5863C70.3383 25.1 73.4426 25.7253 75.8993 26.976C78.3559 28.2267 80.1873 29.9463 81.3933 32.135C82.5993 34.3237 83.2023 36.7803 83.2023 39.505C83.2023 42.0957 82.6216 44.4853 81.4603 46.674C80.2989 48.818 78.4899 50.56 76.0333 51.9C73.5766 53.1953 70.4276 53.843 66.5863 53.843H57.8093V72H49.2333ZM57.8093 46.875H66.0503C69.0429 46.875 71.1869 46.2273 72.4823 44.932C73.8223 43.592 74.4923 41.783 74.4923 39.505C74.4923 37.1823 73.8223 35.3733 72.4823 34.078C71.1869 32.738 69.0429 32.068 66.0503 32.068H57.8093V46.875ZM84.6836 72.469C83.1203 72.469 81.8249 71.9777 80.7976 70.995C79.8149 70.0123 79.3236 68.8287 79.3236 67.444C79.3236 66.0147 79.8149 64.8087 80.7976 63.826C81.8249 62.8433 83.1203 62.352 84.6836 62.352C86.2469 62.352 87.5199 62.8433 88.5026 63.826C89.5299 64.8087 90.0436 66.0147 90.0436 67.444C90.0436 68.8287 89.5299 70.0123 88.5026 70.995C87.5199 71.9777 86.2469 72.469 84.6836 72.469Z" fill="white"/>
<defs>
<linearGradient id="paint0_linear_113_167" x1="50" y1="0" x2="50" y2="100" gradientUnits="userSpaceOnUse">
<stop stop-color="#0F0BC7"/>
<stop offset="1" stop-color="#282828"/>
</linearGradient>
</defs>
</svg>
