<svg width="100" height="100" viewBox="0 0 100 100" fill="none" xmlns="http://www.w3.org/2000/svg">
<rect width="100" height="100" rx="19" fill="url(#paint0_linear_113_167)"/>
<path d="M30.352 71V26.2H46.928C50.512 26.2 53.4773 26.7973 55.824 27.992C58.1707 29.1867 59.92 30.8293 61.072 32.92C62.224 35.0107 62.8 37.3573 62.8 39.96C62.8 42.4347 62.2453 44.7173 61.136 46.808C60.0267 48.856 58.2987 50.52 55.952 51.8C53.6053 53.0373 50.5973 53.656 46.928 53.656H38.544V71H30.352ZM38.544 47H46.416C49.2747 47 51.3227 46.3813 52.56 45.144C53.84 43.864 54.48 42.136 54.48 39.96C54.48 37.7413 53.84 36.0133 52.56 34.776C51.3227 33.496 49.2747 32.856 46.416 32.856H38.544V47ZM65.495 71.448C64.0017 71.448 62.7643 70.9787 61.783 70.04C60.8443 69.1013 60.375 67.9707 60.375 66.648C60.375 65.2827 60.8443 64.1307 61.783 63.192C62.7643 62.2533 64.0017 61.784 65.495 61.784C66.9883 61.784 68.2043 62.2533 69.143 63.192C70.1243 64.1307 70.615 65.2827 70.615 66.648C70.615 67.9707 70.1243 69.1013 69.143 70.04C68.2043 70.9787 66.9883 71.448 65.495 71.448Z" fill="white"/>
<defs>
<linearGradient id="paint0_linear_113_167" x1="51" y1="272.5" x2="50" y2="100" gradientUnits="userSpaceOnUse">
<stop stop-color="white"/>
<stop offset="0.9999" stop-color="#231FFF"/>
<stop offset="1" stop-color="#0500FF"/>
</linearGradient>
</defs>
</svg>
