<svg width="429" height="424" viewBox="0 0 429 424" fill="none" xmlns="http://www.w3.org/2000/svg">
<path d="M202.958 112.39C185.391 120.38 204.209 280.307 207.259 298.481C210.31 316.655 237.269 345.289 254.896 339.94C272.523 334.59 337.817 258.212 329.766 222.752C321.714 187.293 220.524 104.4 202.958 112.39Z" stroke="#AAAAAA" stroke-width="2"/>
<path d="M216.349 147.574C203.241 153.493 217.741 272.962 220.07 286.541C222.399 300.119 242.628 321.574 255.789 317.628C268.951 313.681 317.548 256.827 311.433 230.327C305.319 203.827 229.457 141.655 216.349 147.574Z" stroke="#AAAAAA" stroke-width="2"/>
<path d="M185.748 71.9592C163.099 82.1503 188.521 288.678 192.589 312.153C196.656 335.629 231.698 372.77 254.444 365.987C277.19 359.204 361.056 261.082 350.406 215.263C339.756 169.444 208.397 61.768 185.748 71.9592Z" stroke="#AAAAAA" stroke-width="2"/>
<path d="M163.629 19.0293C133.983 32.3536 167.414 302.723 172.757 333.457C178.099 364.19 224.003 412.834 253.779 403.971C283.554 395.108 393.284 266.723 379.307 206.737C365.33 146.751 193.275 5.70501 163.629 19.0293Z" stroke="#AAAAAA" stroke-width="2"/>
</svg>
