<svg width="400" height="400" viewBox="0 0 400 400" fill="none" xmlns="http://www.w3.org/2000/svg">
<path d="M400 305.918H0V306.118H400V305.918Z" fill="#EBEBEB"/>
<path d="M359.921 318.795H333.423V318.995H359.921V318.795Z" fill="#EBEBEB"/>
<path d="M264.976 320.967H258.022V321.167H264.976V320.967Z" fill="#EBEBEB"/>
<path d="M332.622 311.366H317.269V311.566H332.622V311.366Z" fill="#EBEBEB"/>
<path d="M76.5216 312.71H41.9672V312.91H76.5216V312.71Z" fill="#EBEBEB"/>
<path d="M88.7112 312.71H83.6448V312.91H88.7112V312.71Z" fill="#EBEBEB"/>
<path d="M180.118 316.089H105.177V316.289H180.118V316.089Z" fill="#EBEBEB"/>
<path d="M189.611 270.24H35.132C32.6144 270.24 30.5656 268.191 30.5656 265.674V48.5281C30.5656 46.0105 32.6144 43.9617 35.132 43.9617H189.611C192.128 43.9617 194.177 46.0105 194.177 48.5281V265.674C194.177 268.191 192.128 270.24 189.611 270.24ZM35.132 44.1625C32.724 44.1625 30.7656 46.1209 30.7656 48.5289V265.674C30.7656 268.082 32.724 270.041 35.132 270.041H189.611C192.018 270.041 193.977 268.082 193.977 265.674V48.5281C193.977 46.1209 192.018 44.1617 189.611 44.1617L35.132 44.1625Z" fill="#EBEBEB"/>
<path d="M362.648 270.24H208.17C205.652 270.24 203.604 268.191 203.604 265.674V48.5281C203.604 46.0105 205.653 43.9617 208.17 43.9617H362.648C365.166 43.9617 367.214 46.0105 367.214 48.5281V265.674C367.215 268.191 365.166 270.24 362.648 270.24ZM208.17 44.1625C205.762 44.1625 203.804 46.1209 203.804 48.5289V265.674C203.804 268.082 205.762 270.041 208.17 270.041H362.648C365.056 270.041 367.014 268.082 367.014 265.674V48.5281C367.014 46.1209 365.056 44.1617 362.648 44.1617L208.17 44.1625Z" fill="#EBEBEB"/>
<path d="M256.48 70.8848H55.216V186.189H256.48V70.8848Z" fill="#B2B2B2"/>
<path d="M259.473 70.8848H56.6144V186.189H259.473V70.8848Z" fill="#F0F0F0"/>
<path d="M255.282 181.482L255.282 75.592L60.8049 75.592L60.8049 181.482L255.282 181.482Z" fill="#FAFAFA"/>
<path d="M84.6744 181.482L109.27 75.592H141.513L116.917 181.482H84.6744Z" fill="white"/>
<path d="M122.134 181.482L146.73 75.592H161.291L136.695 181.482H122.134Z" fill="white"/>
<path d="M179.912 181.482L204.508 75.592H229.377L204.781 181.482H179.912Z" fill="white"/>
<path d="M255.282 181.482L255.282 75.5923H254.75L254.75 181.482H255.282Z" fill="#B2B2B2"/>
<path d="M164.09 70.8848H151.999V186.189H164.09V70.8848Z" fill="#F0F0F0"/>
<path d="M151.999 181.482L151.999 75.592H151.467L151.467 181.482H151.999Z" fill="#B2B2B2"/>
<path d="M158.254 70.8848H157.834V186.189H158.254V70.8848Z" fill="#B2B2B2"/>
<path d="M183.866 231.291H166.802V305.918H183.866V231.291Z" fill="#B2B2B2"/>
<path d="M176.477 305.918H183.866V293.535H168.729L176.477 305.918Z" fill="#F5F5F5"/>
<path d="M51.4832 231.291H34.4192V305.918H51.4832V231.291Z" fill="#B2B2B2"/>
<path d="M183.867 231.291H45.0344V301.656H183.867V231.291Z" fill="#F5F5F5"/>
<path d="M52.424 305.918H45.0344V293.535H60.172L52.424 305.918Z" fill="#F5F5F5"/>
<path d="M178.134 237.211H50.7664V263.165H178.134V237.211Z" fill="#F0F0F0"/>
<path d="M114.451 257.768C110.271 257.768 106.871 254.368 106.871 250.188C106.871 246.009 110.271 242.608 114.451 242.608C118.631 242.608 122.031 246.008 122.031 250.188C122.03 254.368 118.63 257.768 114.451 257.768ZM114.451 243.409C110.713 243.409 107.671 246.451 107.671 250.189C107.671 253.927 110.713 256.969 114.451 256.969C118.19 256.969 121.231 253.927 121.231 250.189C121.23 246.451 118.189 243.409 114.451 243.409Z" fill="white"/>
<path d="M178.134 269.434H50.7664V295.387H178.134V269.434Z" fill="#F0F0F0"/>
<path d="M114.451 289.99C110.271 289.99 106.87 286.59 106.87 282.41C106.87 278.23 110.271 274.83 114.451 274.83C118.631 274.83 122.031 278.23 122.031 282.41C122.03 286.59 118.63 289.99 114.451 289.99ZM114.451 275.63C110.712 275.63 107.67 278.672 107.67 282.41C107.67 286.149 110.712 289.19 114.451 289.19C118.19 289.19 121.231 286.149 121.231 282.41C121.231 278.672 118.189 275.63 114.451 275.63Z" fill="white"/>
<path d="M201.152 305.916H257.854V250.626H201.152V305.916Z" fill="#B2B2B2"/>
<path d="M332.378 250.627H257.854V305.917H332.378V250.627Z" fill="#F0F0F0"/>
<path opacity="0.7" d="M201.152 255.088L332.377 255.088V245.918L201.152 245.918V255.088Z" fill="#B2B2B2"/>
<path d="M198.293 250.627H257.854V245.333H198.293V250.627Z" fill="#B2B2B2"/>
<path d="M335.238 245.333H257.854V250.627H335.238V245.333Z" fill="#F0F0F0"/>
<path d="M357.262 294.379C361.882 284.405 357.541 272.575 347.567 267.955C337.594 263.335 325.763 267.675 321.143 277.649C316.523 287.623 320.864 299.454 330.838 304.074C340.811 308.694 352.642 304.353 357.262 294.379Z" fill="#B2B2B2"/>
<path opacity="0.7" d="M334.676 271.344C332.998 271.655 331.514 271.241 331.362 270.42C331.21 269.599 332.447 268.682 334.125 268.371C335.803 268.06 337.287 268.474 337.439 269.295C337.591 270.116 336.354 271.034 334.676 271.344Z" fill="#B2B2B2"/>
<path opacity="0.7" d="M327.005 276.181C325.812 277.402 324.36 277.918 323.763 277.334C323.166 276.75 323.649 275.288 324.842 274.067C326.035 272.846 327.486 272.33 328.084 272.914C328.681 273.498 328.198 274.961 327.005 276.181Z" fill="#B2B2B2"/>
<path opacity="0.7" d="M333.734 278.595C332.374 279.627 330.759 279.787 330.126 278.953C329.494 278.119 330.082 276.606 331.442 275.574C332.802 274.542 334.418 274.382 335.05 275.217C335.683 276.051 335.094 277.564 333.734 278.595Z" fill="#B2B2B2"/>
<path d="M344.373 84.5847H287.039V172.489H344.373V84.5847Z" fill="#B2B2B2"/>
<path d="M349.23 84.5847H288.373V172.489H349.23V84.5847Z" fill="#F5F5F5"/>
<path d="M345.349 168.609V88.4653L292.253 88.4653V168.609H345.349Z" fill="white"/>
<path d="M336.004 130.786V126.289H301.599V130.786H336.004Z" fill="#F5F5F5"/>
<path d="M336.003 119.448V114.95H301.599V119.448H336.003Z" fill="#F5F5F5"/>
<path d="M336.003 108.109V103.611H301.599V108.109H336.003Z" fill="#F5F5F5"/>
<path d="M336.004 142.125V137.627H301.599V142.125H336.004Z" fill="#F5F5F5"/>
<path d="M336.003 153.463V148.966H301.598V153.463H336.003Z" fill="#F5F5F5"/>
<path d="M200 342.049C285.666 342.049 355.111 337.993 355.111 332.991C355.111 327.988 285.666 323.932 200 323.932C114.334 323.932 44.8888 327.988 44.8888 332.991C44.8888 337.993 114.334 342.049 200 342.049Z" fill="#F5F5F5"/>
<path d="M169.402 326.031L175.466 324.36L173.21 309.871L167.145 311.542L169.402 326.031Z" fill="#FFC3BD"/>
<path d="M117.807 326.187H124.098L125.664 311.619H119.374L117.807 326.187Z" fill="#FFC3BD"/>
<path d="M124.615 325.459H116.946C116.689 325.459 116.466 325.638 116.41 325.889L115.168 331.481C115.039 332.061 115.495 332.61 116.089 332.599C118.556 332.557 120.357 332.412 123.465 332.412C125.377 332.412 131.143 332.61 133.783 332.61C136.366 332.61 136.769 329.999 135.687 329.763C130.84 328.703 127.188 327.241 125.636 325.846C125.356 325.594 124.991 325.459 124.615 325.459Z" fill="#191919"/>
<path d="M175.23 323.67L168.607 325.495C168.359 325.563 168.192 325.795 168.205 326.052L168.493 331.773C168.522 332.366 169.093 332.778 169.662 332.611C172.04 331.912 175.454 330.821 178.457 329.993C181.968 329.025 185.053 328.381 189.17 327.246C191.66 326.56 191.658 323.853 190.553 323.912C185.522 324.182 181.618 325.138 176.822 323.74C176.3 323.587 175.754 323.526 175.23 323.67Z" fill="#191919"/>
<path d="M152.226 129.232C152.469 129.528 152.828 129.952 153.148 130.316L154.15 131.455C154.827 132.213 155.526 132.957 156.237 133.682C157.67 135.124 159.124 136.534 160.646 137.814C163.651 140.386 166.939 142.582 170.102 143.569C170.497 143.708 170.879 143.779 171.267 143.882L171.835 143.977C172.174 144.024 171.832 144.004 171.813 144.036C171.715 144.072 171.882 144.082 172.134 143.991C172.387 143.914 172.72 143.774 173.07 143.59C173.778 143.222 174.561 142.7 175.334 142.125C176.12 141.558 176.91 140.926 177.691 140.263C180.817 137.604 183.928 134.551 186.943 131.545L190.738 134.358C188.464 138.314 185.948 141.987 182.881 145.509C181.318 147.262 179.696 148.971 177.434 150.559C176.858 150.955 176.231 151.346 175.482 151.706C174.734 152.056 173.846 152.398 172.661 152.554C172.096 152.637 171.206 152.598 171.003 152.567L169.942 152.471C169.257 152.364 168.557 152.267 167.901 152.102C166.562 151.808 165.299 151.388 164.103 150.892C162.894 150.408 161.766 149.838 160.667 149.241C158.475 148.04 156.498 146.631 154.622 145.157C152.764 143.661 151.01 142.089 149.378 140.411C148.561 139.574 147.763 138.721 146.985 137.846C146.598 137.407 146.206 136.97 145.834 136.511C145.447 136.042 145.11 135.622 144.678 135.058L152.226 129.232Z" fill="#FFC3BD"/>
<path d="M154.422 148.453L156.872 150.912L168.134 141.887L164.104 138.759L154.422 148.453Z" fill="#191919"/>
<path d="M141.225 131.941C140.758 137.938 154.262 150.174 154.262 150.174L166.198 139.821C166.198 139.821 161.171 134.499 155.526 129.145C151.643 125.461 141.73 125.455 141.225 131.941Z" fill="#191919"/>
<path opacity="0.5" d="M141.225 131.941C140.758 137.938 154.262 150.174 154.262 150.174L166.198 139.821C166.198 139.821 161.171 134.499 155.526 129.145C151.643 125.461 141.73 125.455 141.225 131.941Z" fill="#407BFF"/>
<path opacity="0.2" d="M158.395 146.592C158.275 146.032 158.123 145.472 157.955 144.92C156.403 139.992 152.859 135.528 147.307 135.024C144.803 134.8 144.067 136.56 144.259 139.144C148.115 144.608 154.259 150.175 154.259 150.175L155.267 149.303L156.875 150.911L158.803 149.367C158.739 148.456 158.603 147.52 158.395 146.592Z" fill="black"/>
<path d="M186.452 133.695L188.249 128.417L195.317 130.23C195.317 130.23 193.07 132.905 190.529 134.808L186.452 133.695Z" fill="#FFC3BD"/>
<path d="M191.051 126.142L196.902 128.178L195.317 130.229L188.249 128.417L191.051 126.142Z" fill="#FFC3BD"/>
<path opacity="0.2" d="M173.209 309.875L174.373 317.343L168.306 319.015L167.142 311.547L173.209 309.875Z" fill="black"/>
<path opacity="0.2" d="M119.371 311.623H125.665L124.854 319.133H118.561L119.371 311.623Z" fill="black"/>
<path d="M115.659 129.04C117.599 135.991 118.839 143.07 119.657 149.733C120.251 154.608 120.61 159.259 120.83 163.478C121.354 173.366 121.136 180.906 121.43 183.46C126.349 183.119 144.886 181.83 154.994 181.122C159.565 145.338 150.836 126.902 150.836 126.902C150.836 126.902 147.12 126.161 142.802 125.908C142.233 125.871 141.654 125.851 141.067 125.84C137.266 125.759 131.069 126.33 126.797 126.834C125.898 126.94 124.99 127.072 124.107 127.214C119.614 127.945 115.659 129.04 115.659 129.04Z" fill="#191919"/>
<path opacity="0.5" d="M115.659 129.04C117.599 135.991 118.839 143.07 119.657 149.733C120.251 154.608 120.61 159.259 120.83 163.478C121.354 173.366 121.136 180.906 121.43 183.46C126.349 183.119 144.886 181.83 154.994 181.122C159.565 145.338 150.836 126.902 150.836 126.902C150.836 126.902 147.12 126.161 142.802 125.908C142.233 125.871 141.654 125.851 141.067 125.84C137.266 125.759 131.069 126.33 126.797 126.834C125.898 126.94 124.99 127.072 124.107 127.214C119.614 127.945 115.659 129.04 115.659 129.04Z" fill="#407BFF"/>
<path d="M147.466 147.542L140.138 148.033C139.916 148.048 139.703 147.881 139.664 147.66L139.602 147.313C139.546 146.994 139.154 146.826 138.917 147.022L134.973 150.273C134.762 150.447 134.823 150.797 135.091 150.939L140.085 153.592C140.384 153.751 140.709 153.536 140.652 153.217L140.59 152.87C140.551 152.649 140.7 152.458 140.922 152.442L148.25 151.952C148.473 151.937 148.622 151.746 148.582 151.525L147.941 147.914C147.902 147.695 147.689 147.528 147.466 147.542Z" fill="white"/>
<path d="M134.391 145.728L141.719 145.238C141.942 145.222 142.154 145.39 142.194 145.611L142.255 145.958C142.312 146.278 142.704 146.445 142.941 146.25L146.885 142.998C147.096 142.824 147.034 142.474 146.766 142.332L141.773 139.679C141.474 139.52 141.149 139.735 141.206 140.054L141.267 140.402C141.306 140.622 141.158 140.814 140.935 140.829L133.607 141.319C133.385 141.334 133.236 141.526 133.275 141.746L133.917 145.357C133.956 145.575 134.169 145.742 134.391 145.728Z" fill="white"/>
<path d="M126.796 126.832C131.068 126.328 137.268 125.76 141.068 125.84C141.652 125.848 142.236 125.872 142.804 125.904C142.868 125.904 142.94 125.912 143.004 125.92C144.02 128.024 145.339 134.285 140.659 134.933C134.307 135.813 127.124 130.328 124.108 127.216C124.988 127.072 125.9 126.936 126.796 126.832Z" fill="#191919"/>
<path opacity="0.2" d="M124.134 138.094C124.153 143.718 122.601 148.472 119.979 152.638C119.886 151.681 119.774 150.714 119.656 149.736C119.208 146.074 118.63 142.281 117.865 138.451L124.134 138.094Z" fill="black"/>
<path d="M127.092 110.668C128.312 115.196 129.798 123.546 126.8 126.833C129.324 129.094 132.956 130.914 138.106 130.442C142.05 130.081 142.055 127.306 141.068 125.838C135.863 124.972 135.73 121.165 136.373 117.535L127.092 110.668Z" fill="#FFC3BD"/>
<path opacity="0.2" d="M130.876 113.47L136.369 117.532C136.214 118.391 136.107 119.259 136.106 120.095C134.13 119.949 131.294 117.989 130.943 115.956C130.768 114.942 130.742 113.957 130.876 113.47Z" fill="black"/>
<path d="M150.186 86.7423C152.509 91.6367 143.365 103.517 135.903 102.243C132.272 101.623 127.428 100.33 123.411 99.1663C119.782 98.1151 118.454 93.3303 121.9 92.7239C133.58 90.6663 146.327 78.6143 150.186 86.7423Z" fill="#191919"/>
<path d="M126.064 103.797C126.88 109.986 127.042 113.651 130.405 116.622C135.462 121.092 142.937 117.71 143.987 111.401C144.933 105.722 143.44 96.5536 137.182 94.5048C131.017 92.4864 125.248 97.6072 126.064 103.797Z" fill="#FFC3BD"/>
<path d="M138.11 111.713H138.107C135.542 111.876 134.254 110.191 134.201 110.119C134.148 110.048 134.162 109.948 134.234 109.895C134.305 109.842 134.405 109.857 134.458 109.927C134.47 109.943 135.701 111.544 138.086 111.392C138.174 111.386 138.251 111.454 138.257 111.542C138.262 111.63 138.198 111.706 138.11 111.713Z" fill="#191919"/>
<path d="M130.414 106.6C132.76 101.492 133.263 96.2711 128.98 94.6743C124.697 93.0767 121.089 95.2175 119.894 98.4415C118.7 101.665 126.994 114.042 130.414 106.6Z" fill="#191919"/>
<path d="M125.545 96.8623C129.848 99.9455 144.603 100.129 142.521 94.5927C140.962 90.4471 130.715 90.5751 125.545 96.8623Z" fill="#191919"/>
<path d="M123.734 110.846C124.716 112.214 126.238 113 127.606 113.202C129.665 113.506 130.434 111.602 129.645 109.796C128.934 108.17 127.006 106.052 125.045 106.575C123.112 107.09 122.612 109.282 123.734 110.846Z" fill="#FFC3BD"/>
<path d="M176.26 315.316L165.99 318.142C165.99 318.142 153.13 277.6 149.969 255.334C149.13 249.43 147.838 241.129 145.864 232.281C143.372 221.133 140.246 209.078 137.687 199.638C134.987 189.697 132.931 182.66 132.931 182.66L154.998 181.122C154.998 181.122 166.938 233.197 168.203 252.354C169.523 272.275 176.26 315.316 176.26 315.316Z" fill="#407BFF"/>
<path opacity="0.3" d="M176.26 315.316L165.99 318.142C165.99 318.142 153.13 277.6 149.969 255.334C149.13 249.43 147.838 241.129 145.864 232.281C143.372 221.133 140.246 209.078 137.687 199.638C134.987 189.697 132.931 182.66 132.931 182.66L154.998 181.122C154.998 181.122 166.938 233.197 168.203 252.354C169.523 272.275 176.26 315.316 176.26 315.316Z" fill="#FAFAFA"/>
<path opacity="0.2" d="M145.864 232.281C143.372 221.133 140.246 209.078 137.687 199.638L139.978 194.707C145.451 201.211 146.923 221.344 145.864 232.281Z" fill="black"/>
<path d="M143.093 181.952C143.093 181.952 140.711 235.81 138.056 254.05C135.148 274.024 127.762 317.678 127.762 317.678H116.24C116.24 317.678 116.047 276.286 119.656 256.94C123.766 234.902 121.434 183.464 121.434 183.464L143.093 181.952Z" fill="#407BFF"/>
<path opacity="0.3" d="M143.093 181.952C143.093 181.952 140.711 235.81 138.056 254.05C135.148 274.024 127.762 317.678 127.762 317.678H116.24C116.24 317.678 116.047 276.286 119.656 256.94C123.766 234.902 121.434 183.464 121.434 183.464L143.093 181.952Z" fill="#FAFAFA"/>
<path d="M129.141 317.927H115.573V313.874L130.739 313.61L129.141 317.927Z" fill="#407BFF"/>
<path d="M176.97 315.377L165.378 318.573L163.707 314.577L176.922 310.914L176.97 315.377Z" fill="#407BFF"/>
<path d="M135.614 104.877C135.65 105.383 135.946 105.774 136.278 105.751C136.609 105.728 136.848 105.299 136.813 104.793C136.778 104.286 136.481 103.895 136.15 103.918C135.818 103.941 135.579 104.37 135.614 104.877Z" fill="#191919"/>
<path d="M141.335 104.477C141.37 104.984 141.667 105.375 141.998 105.352C142.33 105.329 142.569 104.9 142.534 104.393C142.498 103.887 142.202 103.496 141.87 103.519C141.54 103.542 141.3 103.971 141.335 104.477Z" fill="#191919"/>
<path d="M139.534 104.856C139.534 104.856 140.889 107.696 142.254 109.016C141.418 109.914 139.79 109.516 139.79 109.516L139.534 104.856Z" fill="#FF6259"/>
<path d="M133.708 103.151C133.816 103.163 133.927 103.115 133.99 103.018C134.715 101.904 135.814 101.892 135.825 101.892C135.99 101.892 136.123 101.758 136.123 101.594C136.123 101.43 135.997 101.294 135.825 101.296C135.766 101.296 134.39 101.311 133.49 102.692C133.4 102.83 133.439 103.014 133.577 103.104C133.619 103.13 133.663 103.146 133.708 103.151Z" fill="#191919"/>
<path d="M143.65 102.336C143.71 102.342 143.774 102.33 143.83 102.298C143.974 102.215 144.022 102.034 143.94 101.891C143.118 100.462 141.747 100.367 141.687 100.366C141.523 100.358 141.382 100.483 141.373 100.647C141.364 100.811 141.497 100.953 141.652 100.962C141.698 100.968 142.766 101.046 143.423 102.188C143.474 102.274 143.559 102.326 143.65 102.336Z" fill="#191919"/>
<path d="M126.695 326.558C127.174 326.558 127.622 326.477 127.907 326.237C128.132 326.048 128.236 325.783 128.215 325.45C128.199 325.202 128.068 325.085 127.96 325.029C127.262 324.67 125.235 325.919 125.006 326.062C124.954 326.094 124.928 326.153 124.938 326.213C124.947 326.272 124.991 326.319 125.05 326.333C125.486 326.437 126.114 326.558 126.695 326.558ZM127.63 325.256C127.708 325.256 127.773 325.268 127.823 325.293C127.863 325.314 127.91 325.353 127.918 325.469C127.933 325.705 127.866 325.883 127.715 326.009C127.371 326.298 126.55 326.337 125.482 326.123C126.191 325.712 127.147 325.256 127.63 325.256Z" fill="#407BFF"/>
<path d="M125.084 326.337C125.109 326.337 125.133 326.331 125.155 326.319C125.806 325.966 127.065 324.587 126.932 323.886C126.908 323.758 126.814 323.538 126.458 323.495C126.228 323.468 126.014 323.531 125.822 323.687C125.092 324.285 124.942 326.1 124.935 326.177C124.931 326.232 124.957 326.284 125.002 326.314C125.028 326.328 125.056 326.337 125.084 326.337ZM126.354 323.786C126.377 323.786 126.399 323.788 126.422 323.79C126.615 323.814 126.632 323.903 126.639 323.941C126.718 324.354 125.916 325.397 125.269 325.888C125.342 325.358 125.542 324.299 126.011 323.917C126.118 323.83 126.231 323.786 126.354 323.786Z" fill="#407BFF"/>
<path d="M176.052 324.342C176.061 324.343 176.07 324.344 176.078 324.343C177.11 324.269 178.914 324.027 179.415 323.256C179.566 323.023 179.593 322.763 179.492 322.483C179.432 322.316 179.314 322.206 179.15 322.166C178.307 321.969 176.203 323.867 175.967 324.085C175.921 324.129 175.906 324.196 175.931 324.254C175.953 324.304 175.999 324.337 176.052 324.342ZM179.037 322.449C179.051 322.45 179.066 322.453 179.078 322.456C179.146 322.472 179.185 322.51 179.211 322.585C179.28 322.775 179.265 322.941 179.166 323.094C178.884 323.527 177.902 323.861 176.501 324.007C177.346 323.275 178.546 322.395 179.037 322.449Z" fill="#407BFF"/>
<path d="M176.052 324.342C176.091 324.346 176.132 324.335 176.163 324.309C176.805 323.778 177.894 322.067 177.594 321.412C177.523 321.258 177.351 321.09 176.948 321.158C176.646 321.209 176.402 321.366 176.219 321.623C175.622 322.47 175.91 324.148 175.922 324.219C175.931 324.271 175.967 324.315 176.018 324.334C176.028 324.338 176.039 324.341 176.052 324.342ZM177.169 321.443C177.285 321.456 177.311 321.514 177.322 321.537C177.502 321.93 176.8 323.232 176.177 323.887C176.123 323.388 176.07 322.352 176.462 321.796C176.598 321.602 176.773 321.49 176.996 321.452C177.07 321.44 177.126 321.438 177.169 321.443Z" fill="#407BFF"/>
<path d="M115.541 181.425C115.426 180.029 114.496 178.944 113.298 178.809L94.576 176.696C93.1552 176.536 91.852 177.752 91.6648 179.413L86.1776 228.038C85.9904 229.698 86.9896 231.174 88.4104 231.335L147.82 238.039C149.24 238.199 150.544 236.983 150.731 235.322L155.34 194.479C155.527 192.818 154.528 191.342 153.107 191.182L120.779 187.534C117.982 187.218 115.809 184.685 115.541 181.425Z" fill="#191919"/>
<path d="M123.444 192.086C123.54 190.866 122.759 189.907 121.561 189.772L102.839 187.659C101.419 187.499 99.9072 188.541 99.4632 189.986L87.6224 228.538C87.1784 229.983 87.9696 231.286 89.3904 231.446L148.8 238.15C150.22 238.31 151.732 237.268 152.176 235.822L161.936 204.045C162.38 202.599 161.589 201.297 160.168 201.137L127.84 197.489C125.042 197.174 123.218 194.932 123.444 192.086Z" fill="#407BFF"/>
<path d="M122.438 138.261L120.671 140.783C120.074 141.647 119.488 142.523 118.914 143.406C117.757 145.166 116.645 146.95 115.561 148.738C114.5 150.538 113.492 152.35 112.546 154.173C111.647 156.006 110.787 157.841 110.101 159.678L110.038 159.837L110.017 159.905C110.002 159.95 109.982 159.994 109.961 160.04C109.933 160.186 109.89 160.31 109.86 160.479C109.801 160.82 109.758 161.217 109.724 161.647C109.66 162.509 109.67 163.478 109.726 164.468C109.842 166.452 110.063 168.543 110.374 170.636C110.98 174.825 111.765 179.132 112.577 183.36L108.094 184.85C106.209 180.719 104.629 176.554 103.35 172.163C102.733 169.963 102.149 167.73 101.775 165.349C101.585 164.158 101.433 162.932 101.383 161.598C101.357 160.929 101.37 160.229 101.431 159.478C101.462 159.102 101.528 158.686 101.586 158.29L101.736 157.627L101.816 157.297L101.884 157.066C103.212 152.378 105.156 148.124 107.347 144.072C108.446 142.05 109.624 140.083 110.862 138.162C111.487 137.204 112.124 136.256 112.778 135.315C113.434 134.357 114.086 133.474 114.853 132.485L122.438 138.261Z" fill="#FFC3BD"/>
<path d="M105.837 143.911L103.814 146.734L114.57 156.355L116.993 151.866L105.837 143.911Z" fill="#191919"/>
<path d="M115.659 129.04C109.763 130.23 104.591 144.65 104.591 144.65L116.896 154.674C116.896 154.674 120.928 147.343 124.154 140.27C127.666 132.566 122.801 127.599 115.659 129.04Z" fill="#191919"/>
<path opacity="0.5" d="M115.659 129.04C109.763 130.23 104.591 144.65 104.591 144.65L116.896 154.674C116.896 154.674 120.928 147.343 124.154 140.27C127.666 132.566 122.801 127.599 115.659 129.04Z" fill="#407BFF"/>
<path d="M111.913 182.127L116.157 186.899L108.472 189.249C108.472 189.249 105.761 184.384 108.178 182.66L111.913 182.127Z" fill="#FFC3BD"/>
<path d="M116.521 192.141L110.078 193.786L108.472 189.248L116.157 186.898L116.521 192.141Z" fill="#FFC3BD"/>
<path d="M260.63 106.584C260.205 105.25 259.054 104.402 257.857 104.539L239.139 106.688C237.719 106.851 236.722 108.329 236.913 109.99L242.494 158.603C242.684 160.264 243.99 161.478 245.41 161.314L304.807 154.496C306.227 154.333 307.224 152.855 307.034 151.194L302.346 110.361C302.155 108.7 300.849 107.486 299.429 107.65L267.108 111.36C264.31 111.681 261.624 109.701 260.63 106.584Z" fill="#191919"/>
<path d="M269.633 88.8672C273.726 106.756 276.396 125.166 277.536 143.917C262.779 145.674 248.015 147.053 233.259 148.054C232.12 127.475 228.867 107.41 223.706 88.164C234.129 85.3592 244.516 82.356 254.862 79.1536C259.831 82.2344 264.757 85.472 269.633 88.8672Z" fill="#407BFF"/>
<path opacity="0.7" d="M269.633 88.8672C273.726 106.756 276.396 125.166 277.536 143.917C262.779 145.674 248.015 147.053 233.259 148.054C232.12 127.475 228.867 107.41 223.706 88.164C234.129 85.3592 244.516 82.356 254.862 79.1536C259.831 82.2344 264.757 85.472 269.633 88.8672Z" fill="#FAFAFA"/>
<path d="M267.112 98.136C255.575 101.03 244.003 103.683 232.402 106.094C231.903 106.198 231.413 105.863 231.31 105.354C231.206 104.844 231.529 104.338 232.027 104.232C243.613 101.75 255.169 99.0272 266.686 96.064C267.182 95.9368 267.685 96.2992 267.802 96.8704C267.919 97.4416 267.608 98.012 267.112 98.136Z" fill="#407BFF"/>
<path d="M268.358 104.637C256.768 107.311 245.146 109.745 233.501 111.937C233 112.029 232.515 111.686 232.422 111.172C232.33 110.662 232.661 110.161 233.162 110.062C244.794 107.798 256.4 105.294 267.973 102.55C268.47 102.43 268.966 102.803 269.073 103.38C269.179 103.954 268.857 104.523 268.358 104.637Z" fill="#407BFF"/>
<path d="M269.478 111.178C257.838 113.633 246.17 115.848 234.485 117.819C233.982 117.906 233.505 117.549 233.422 117.031C233.338 116.516 233.68 116.019 234.182 115.931C245.856 113.889 257.509 111.605 269.134 109.08C269.634 108.972 270.122 109.354 270.217 109.934C270.312 110.51 269.978 111.074 269.478 111.178Z" fill="#407BFF"/>
<path d="M270.47 117.761C258.785 119.994 247.077 121.988 235.354 123.738C234.85 123.813 234.379 123.446 234.306 122.927C234.234 122.407 234.585 121.918 235.088 121.838C246.799 120.017 258.494 117.954 270.166 115.648C270.668 115.546 271.15 115.942 271.234 116.526C271.317 117.109 270.973 117.662 270.47 117.761Z" fill="#407BFF"/>
<path d="M257.339 126.666C250.266 127.763 243.189 128.771 236.107 129.693C235.602 129.76 235.138 129.382 235.076 128.859C235.014 128.334 235.374 127.851 235.879 127.782C242.954 126.818 250.026 125.766 257.092 124.626C257.597 124.545 258.066 124.937 258.135 125.5C258.203 126.059 257.844 126.584 257.339 126.666Z" fill="#407BFF"/>
<path d="M269.633 88.8672C265.782 89.9512 261.927 91.0088 258.067 92.0392C257.085 87.7112 256.016 83.4152 254.862 79.1536C259.831 82.2344 264.757 85.472 269.633 88.8672Z" fill="#407BFF"/>
<path d="M270.727 115.196C270.547 113.986 269.57 113.227 268.373 113.365L249.655 115.513C248.235 115.677 246.996 117.032 246.889 118.54L244.014 158.766C243.906 160.275 244.97 161.365 246.39 161.202L305.787 154.384C307.207 154.221 308.446 152.865 308.554 151.357L310.922 118.199C311.03 116.69 309.966 115.6 308.546 115.763L276.226 119.473C273.428 119.794 271.147 118.021 270.727 115.196Z" fill="#407BFF"/>
<path d="M225.256 146.404C223.589 162.98 221.539 179.47 219.113 195.865C204.512 193.553 189.903 191.315 175.288 189.155C178.194 169.487 180.534 149.67 182.297 129.728C193.047 130.698 203.797 131.708 214.545 132.759C218.144 137.262 221.715 141.81 225.256 146.404Z" fill="#407BFF"/>
<path opacity="0.7" d="M225.256 146.404C223.589 162.98 221.539 179.47 219.113 195.865C204.512 193.553 189.903 191.315 175.288 189.155C178.194 169.487 180.534 149.67 182.297 129.728C193.047 130.698 203.797 131.708 214.545 132.759C218.144 137.262 221.715 141.81 225.256 146.404Z" fill="#FAFAFA"/>
<path d="M220.098 153.429C208.332 152.04 196.564 150.701 184.794 149.41C184.288 149.353 183.919 148.893 183.974 148.381C184.028 147.87 184.486 147.493 184.993 147.551C196.766 148.821 208.536 150.141 220.303 151.508C220.81 151.565 221.178 152.047 221.121 152.576C221.064 153.106 220.603 153.487 220.098 153.429Z" fill="#407BFF"/>
<path d="M219.435 159.418C207.678 157.965 195.918 156.56 184.154 155.205C183.649 155.146 183.282 154.681 183.339 154.172C183.397 153.663 183.857 153.292 184.363 153.35C196.129 154.685 207.891 156.068 219.651 157.501C220.157 157.563 220.522 158.045 220.463 158.572C220.404 159.105 219.941 159.483 219.435 159.418Z" fill="#407BFF"/>
<path d="M218.74 165.4C206.991 163.882 195.238 162.413 183.483 160.992C182.978 160.93 182.614 160.464 182.674 159.955C182.734 159.447 183.196 159.081 183.702 159.139C195.459 160.538 207.214 161.987 218.966 163.485C219.471 163.549 219.834 164.033 219.771 164.56C219.71 165.086 219.245 165.465 218.74 165.4Z" fill="#407BFF"/>
<path d="M218.01 171.374C206.27 169.791 194.526 168.257 182.779 166.773C182.274 166.707 181.913 166.241 181.975 165.733C182.038 165.222 182.502 164.86 183.008 164.922C194.758 166.386 206.504 167.9 218.247 169.462C218.752 169.53 219.112 170.017 219.047 170.541C218.982 171.067 218.515 171.441 218.01 171.374Z" fill="#407BFF"/>
<path d="M203.255 175.398C196.186 174.429 189.115 173.478 182.043 172.545C181.538 172.48 181.18 172.009 181.246 171.501C181.311 170.992 181.778 170.629 182.283 170.697C189.357 171.617 196.429 172.557 203.5 173.513C204.005 173.582 204.363 174.063 204.296 174.581C204.228 175.1 203.759 175.468 203.255 175.398Z" fill="#407BFF"/>
<path d="M225.256 146.404C221.298 145.961 217.338 145.523 213.379 145.09C213.791 140.984 214.18 136.875 214.545 132.759C218.144 137.263 221.715 141.81 225.256 146.404Z" fill="#407BFF"/>
</svg>
