<svg width="18" height="18" viewBox="0 0 23 23" fill="none" xmlns="http://www.w3.org/2000/svg">
<g clip-path="url(#clip0_245_181)">
<path d="M11.5 23C9.22552 23 7.00211 22.3255 5.11095 21.0619C3.21978 19.7983 1.7458 18.0022 0.87539 15.9009C0.00498279 13.7995 -0.222756 11.4872 0.220974 9.25646C0.664704 7.02568 1.75997 4.97658 3.36828 3.36827C4.97658 1.75997 7.02568 0.664701 9.25647 0.220971C11.4872 -0.222759 13.7995 0.00497887 15.9009 0.875387C18.0022 1.74579 19.7983 3.21978 21.0619 5.11094C22.3255 7.00211 23 9.22552 23 11.5C22.9967 14.549 21.784 17.4721 19.6281 19.6281C17.4721 21.784 14.549 22.9967 11.5 23ZM12.4583 1.96554V3.83333C12.4583 4.0875 12.3574 4.33126 12.1776 4.51098C11.9979 4.6907 11.7542 4.79167 11.5 4.79167C11.2458 4.79167 11.0021 4.6907 10.8224 4.51098C10.6426 4.33126 10.5417 4.0875 10.5417 3.83333V1.96554C8.34342 2.18937 6.28972 3.16484 4.72728 4.72728C3.16484 6.28972 2.18937 8.34341 1.96555 10.5417H3.83334C4.0875 10.5417 4.33126 10.6426 4.51098 10.8224C4.6907 11.0021 4.79167 11.2458 4.79167 11.5C4.79167 11.7542 4.6907 11.9979 4.51098 12.1776C4.33126 12.3574 4.0875 12.4583 3.83334 12.4583H1.96555C2.18937 14.6566 3.16484 16.7103 4.72728 18.2727C6.28972 19.8352 8.34342 20.8106 10.5417 21.0345V19.1667C10.5417 18.9125 10.6426 18.6687 10.8224 18.489C11.0021 18.3093 11.2458 18.2083 11.5 18.2083C11.7542 18.2083 11.9979 18.3093 12.1776 18.489C12.3574 18.6687 12.4583 18.9125 12.4583 19.1667V21.0345C14.6566 20.8106 16.7103 19.8352 18.2727 18.2727C19.8352 16.7103 20.8106 14.6566 21.0345 12.4583H19.1667C18.9125 12.4583 18.6687 12.3574 18.489 12.1776C18.3093 11.9979 18.2083 11.7542 18.2083 11.5C18.2083 11.2458 18.3093 11.0021 18.489 10.8224C18.6687 10.6426 18.9125 10.5417 19.1667 10.5417H21.0345C20.8106 8.34341 19.8352 6.28972 18.2727 4.72728C16.7103 3.16484 14.6566 2.18937 12.4583 1.96554ZM15.3333 11.5C15.3333 11.2458 15.2324 11.0021 15.0526 10.8224C14.8729 10.6426 14.6292 10.5417 14.375 10.5417H12.4583V8.625C12.4583 8.37083 12.3574 8.12708 12.1776 7.94736C11.9979 7.76763 11.7542 7.66667 11.5 7.66667C11.2458 7.66667 11.0021 7.76763 10.8224 7.94736C10.6426 8.12708 10.5417 8.37083 10.5417 8.625V10.5417H8.625C8.37084 10.5417 8.12708 10.6426 7.94736 10.8224C7.76764 11.0021 7.66667 11.2458 7.66667 11.5C7.66667 11.7542 7.76764 11.9979 7.94736 12.1776C8.12708 12.3574 8.37084 12.4583 8.625 12.4583H10.5417V14.375C10.5417 14.6292 10.6426 14.8729 10.8224 15.0526C11.0021 15.2324 11.2458 15.3333 11.5 15.3333C11.7542 15.3333 11.9979 15.2324 12.1776 15.0526C12.3574 14.8729 12.4583 14.6292 12.4583 14.375V12.4583H14.375C14.6292 12.4583 14.8729 12.3574 15.0526 12.1776C15.2324 11.9979 15.3333 11.7542 15.3333 11.5Z" fill="black"/>
</g>
<defs>
<clipPath id="clip0_245_181">
<rect width="23" height="23" fill="white" transform="matrix(1 0 0 -1 0 23)"/>
</clipPath>
</defs>
</svg>
