<svg width="756" height="982" viewBox="0 0 756 982" fill="none" xmlns="http://www.w3.org/2000/svg">
<rect width="756" height="982" fill="url(#paint0_linear_247_183)"/>
<path d="M560.047 500.084L527.349 519.123L560.047 538.595L592.744 519.123L560.047 500.084Z" fill="#E3F2FD"/>
<path d="M146.698 527.02L114 546.058L146.698 565.53L179.397 546.058L146.698 527.02Z" fill="#E3F2FD"/>
<path d="M579.919 407.064L572.068 388.027" stroke="white" stroke-width="0.8984" stroke-miterlimit="10"/>
<path d="M539.39 393.628C543.429 411.709 560.591 423.065 560.591 423.065C560.591 423.065 571.202 405.107 567.162 387.025C563.122 368.945 545.961 357.589 545.961 357.589C545.961 357.589 535.349 375.547 539.39 393.628Z" fill="#E3F2FD"/>
<path d="M560.591 423.065L545.96 357.589" stroke="white" stroke-width="0.8984" stroke-miterlimit="10"/>
<path d="M551.162 380.862L541.822 375.71" stroke="white" stroke-width="0.8984" stroke-miterlimit="10"/>
<path d="M553.702 391.652L560.115 374.98" stroke="white" stroke-width="0.8984" stroke-miterlimit="10"/>
<path d="M554.972 397.918L541.134 390.082" stroke="white" stroke-width="0.8984" stroke-miterlimit="10"/>
<path d="M556.973 406.291L565.995 393.154" stroke="white" stroke-width="0.8984" stroke-miterlimit="10"/>
<path d="M558.594 413.546L548.088 408.403" stroke="white" stroke-width="0.8984" stroke-miterlimit="10"/>
<path d="M381.926 464.966L349.228 484.004L534.767 597.151L567.466 577.68L381.926 464.966Z" fill="#E3F2FD"/>
<path d="M350.951 459.483L332.899 448.972L286.769 476.16L304.984 487.008L350.951 459.483Z" fill="#92CBF9"/>
<path d="M500.157 682.507L464.904 662.646L418.774 689.834L454.189 710.031L500.157 682.507Z" fill="#92CBF9"/>
<path d="M551.428 602.007L532.97 612.754L551.428 623.746L569.888 612.754L551.428 602.007Z" fill="#E3F2FD"/>
<path d="M602.973 599.244L584.515 609.992L602.973 620.984L621.431 609.992L602.973 599.244Z" fill="#E3F2FD"/>
<path d="M154.448 571.693L356.365 694.329L503.63 608.189L309.264 481.764L154.448 571.693Z" fill="#92CBF9"/>
<path d="M603.569 550.222L565.101 572.62L603.569 595.527L642.037 572.62L603.569 550.222Z" fill="#E3F2FD"/>
<path d="M417.312 653.062L413.355 652.246L412.366 650.204L418.697 646.531C418.697 646.531 420.676 646.734 421.863 650.204C423.049 653.675 417.312 653.062 417.312 653.062Z" fill="white" stroke="#333333" stroke-width="0.8984" stroke-miterlimit="10"/>
<path d="M309.264 481.764L154.448 571.693L352.484 688.174L506.166 597.296L309.264 481.764Z" fill="white" stroke="#333333" stroke-width="0.8984" stroke-miterlimit="10" stroke-linecap="round"/>
<path d="M200.982 571.766L244.579 545.803L309.976 584.314L266.378 610.277L200.982 571.766Z" fill="#64B5F6"/>
<path d="M303.058 511.595L309.976 507.51" stroke="#333333" stroke-width="0.8984" stroke-miterlimit="10" stroke-linecap="round"/>
<path d="M266.378 533.257L299.967 513.42" stroke="#333333" stroke-width="0.8984" stroke-miterlimit="10" stroke-linecap="round"/>
<path d="M277.278 540.001L320.875 514.001" stroke="#333333" stroke-width="0.8984" stroke-miterlimit="10" stroke-linecap="round"/>
<path d="M304.851 535.743L330.307 520.383" stroke="#333333" stroke-width="0.8984" stroke-miterlimit="10" stroke-linecap="round"/>
<path d="M288.177 545.803L299.104 539.211" stroke="#333333" stroke-width="0.8984" stroke-miterlimit="10" stroke-linecap="round"/>
<path d="M381.337 567.718L397.172 558.314" stroke="#333333" stroke-width="0.8984" stroke-miterlimit="10" stroke-linecap="round"/>
<path d="M362.494 578.908L375.616 571.114" stroke="#333333" stroke-width="0.8984" stroke-miterlimit="10" stroke-linecap="round"/>
<path d="M310.371 609.862L357.591 581.818" stroke="#333333" stroke-width="0.8984" stroke-miterlimit="10" stroke-linecap="round"/>
<path d="M288.177 623.042L305.421 612.801" stroke="#333333" stroke-width="0.8984" stroke-miterlimit="10" stroke-linecap="round"/>
<path d="M388.675 576.711L408.07 565.276" stroke="#333333" stroke-width="0.8984" stroke-miterlimit="10" stroke-linecap="round"/>
<path d="M374.846 584.863L383.444 579.794" stroke="#333333" stroke-width="0.8984" stroke-miterlimit="10" stroke-linecap="round"/>
<path d="M359.608 593.847L371.116 587.062" stroke="#333333" stroke-width="0.8984" stroke-miterlimit="10" stroke-linecap="round"/>
<path d="M299.077 629.532L353.013 597.735" stroke="#333333" stroke-width="0.8984" stroke-miterlimit="10" stroke-linecap="round"/>
<path d="M409.162 577.53L418.97 571.766" stroke="#333333" stroke-width="0.8984" stroke-miterlimit="10" stroke-linecap="round"/>
<path d="M331.268 623.296L404.745 580.124" stroke="#333333" stroke-width="0.8984" stroke-miterlimit="10" stroke-linecap="round"/>
<path d="M309.976 635.807L328.128 625.141" stroke="#333333" stroke-width="0.8984" stroke-miterlimit="10" stroke-linecap="round"/>
<path d="M369.942 613.371L429.869 578.041" stroke="#333333" stroke-width="0.8984" stroke-miterlimit="10" stroke-linecap="round"/>
<path d="M330.823 636.433L366.302 615.516" stroke="#333333" stroke-width="0.8984" stroke-miterlimit="10" stroke-linecap="round"/>
<path d="M320.875 642.297L327.048 638.658" stroke="#333333" stroke-width="0.8984" stroke-miterlimit="10" stroke-linecap="round"/>
<path d="M437.699 586.342L440.769 584.532" stroke="#333333" stroke-width="0.8984" stroke-miterlimit="10" stroke-linecap="round"/>
<path d="M404.721 605.783L432.467 589.426" stroke="#333333" stroke-width="0.8984" stroke-miterlimit="10" stroke-linecap="round"/>
<path d="M359.37 632.519L399.444 608.894" stroke="#333333" stroke-width="0.8984" stroke-miterlimit="10" stroke-linecap="round"/>
<path d="M331.775 648.788L352.957 636.301" stroke="#333333" stroke-width="0.8984" stroke-miterlimit="10" stroke-linecap="round"/>
<path d="M312.406 352.385L321.88 354.838L324.882 365.292L313.16 361.346L312.406 352.385Z" fill="white" stroke="#333333" stroke-width="0.6738" stroke-miterlimit="10" stroke-linecap="round" stroke-linejoin="round"/>
<path d="M455.036 287.296C455.647 282.98 453.631 278.718 449.956 276.558L412.681 254.652C409.752 252.931 406.062 254.788 405.576 258.228C405.09 261.669 401.4 263.526 398.472 261.805L395.021 259.777L364.508 475.556L547.591 583.067L593.361 376.338L460.116 298.032C456.442 295.874 454.426 291.612 455.036 287.296Z" fill="#333333"/>
<path d="M364.508 277.009V475.556L547.59 583.067L562.846 393.909L364.508 277.009Z" fill="#64B5F6" stroke="#333333" stroke-width="0.8984" stroke-miterlimit="10" stroke-linecap="round"/>
<path d="M364.33 289.824L374.194 411.905L382.558 460.707L548.06 557.255L550.384 397.865L364.33 289.824Z" fill="#A8D6FA"/>
<path d="M364.508 475.556L349.251 286.731L547.589 403.857V583.067L364.508 475.556Z" fill="white" stroke="#333333" stroke-width="0.8984" stroke-miterlimit="10" stroke-linecap="round"/>
<path d="M350.582 303.194L360.445 425.275L368.81 474.077L546.745 580.172L536.636 411.236L350.582 303.194Z" fill="#A8D6FA"/>
<path d="M364.508 475.556L333.994 297.539L532.333 412.715L547.59 583.067L364.508 475.556Z" fill="white" stroke="#333333" stroke-width="0.8984" stroke-miterlimit="10" stroke-linecap="round"/>
<path d="M374.423 480.796L347.105 321.428L524.668 424.538L542.402 578.308L374.423 480.796Z" fill="#64B5F6" stroke="#333333" stroke-width="0.8984" stroke-miterlimit="10" stroke-linecap="round"/>
<path d="M339.276 328.354L360.37 451.422L367.65 470.695L546.49 575.487L505.134 426.025L339.276 328.354Z" fill="#A8D6FA"/>
<path d="M303.48 313.987L501.991 430.887L547.59 583.067L364.508 475.556L303.48 313.987Z" fill="#333333" stroke="#333333" stroke-width="0.8984" stroke-miterlimit="10"/>
<path d="M317.402 362.534C317.402 362.534 316.878 358.622 318.579 355.655" stroke="#333333" stroke-width="0.4492" stroke-miterlimit="10" stroke-linecap="round" stroke-linejoin="round"/>
<path d="M446.849 601.02C446.849 601.02 444.277 598.979 444.672 602.04C445.067 605.102 446.849 607.347 448.629 607.55C450.409 607.754 450.409 606.122 450.409 606.122L446.849 601.02Z" fill="white" stroke="#333333" stroke-width="0.8984" stroke-miterlimit="10"/>
<path d="M464.459 597.143C464.459 597.143 466.636 595.101 467.031 598.163C467.426 601.224 466.239 604.285 465.052 604.285C463.865 604.285 464.459 597.143 464.459 597.143Z" fill="white" stroke="#333333" stroke-width="0.8984" stroke-miterlimit="10"/>
<path d="M452.983 610.408L455.16 616.734C455.16 616.734 457.732 617.755 460.305 616.938C462.876 616.122 465.449 613.061 465.449 613.061L463.669 606.325L452.983 610.408Z" fill="white" stroke="#333333" stroke-width="0.8984" stroke-miterlimit="10"/>
<path d="M453.371 611.235C450.308 608.651 447.957 604.068 446.85 601.02C445.07 596.122 442.102 591.632 443.684 589.591C445.267 587.55 447.839 589.182 447.839 589.182C447.839 589.182 444.871 584.896 451.004 582.447C457.138 579.998 463.865 580.611 463.272 583.263C462.678 585.916 461.886 587.141 462.875 587.345C463.864 587.548 467.031 586.732 466.635 589.997C466.238 593.262 464.261 595.304 464.261 595.916C464.261 596.529 465.249 600.201 464.854 603.263C464.063 609.398 460.112 616.923 453.371 611.235Z" fill="#333333"/>
<path d="M427.775 687.795C427.775 687.795 434.246 691.751 441.199 695.459C448.15 699.168 475.694 711.554 475.694 711.554L478.57 707.845L452.944 684.087C452.944 684.087 433.528 679.636 427.775 687.795Z" fill="#333333"/>
<path d="M454.143 663.072C454.143 663.072 444.555 662.825 444.794 665.545C445.034 668.264 457.259 672.221 459.896 672.221C462.532 672.221 461.094 665.545 461.094 665.545L454.143 663.072Z" fill="white" stroke="#333333" stroke-width="0.8984" stroke-miterlimit="10"/>
<path d="M453.902 652.194C453.902 652.194 453.902 663.814 455.1 665.051C456.299 666.287 459.176 667.523 460.614 666.534C462.052 665.545 462.771 660.6 462.771 660.6C462.771 660.6 458.456 648.979 453.902 652.194Z" fill="#333333"/>
<path d="M460.374 669.5C460.374 669.5 430.651 676.176 428.734 678.648C426.816 681.121 425.617 684.829 427.775 687.797C429.932 690.763 464.689 689.033 469.962 688.539C475.234 688.045 479.07 685.324 482.666 681.616C486.261 677.907 488.898 673.704 487.94 667.276C487.154 662.011 485.063 658.87 485.063 658.87L460.303 664.084L460.374 669.5Z" fill="#333333"/>
<path d="M461.413 669.852C461.413 669.852 461.413 673.18 469.301 676.693" stroke="white" stroke-width="0.4492" stroke-miterlimit="10" stroke-linejoin="round"/>
<path d="M460.517 671.146C460.517 671.146 460.337 674.845 463.026 678.173" stroke="white" stroke-width="0.4492" stroke-miterlimit="10" stroke-linejoin="round"/>
<path d="M464.103 679.098C464.103 679.098 465.716 680.392 467.151 680.762" stroke="white" stroke-width="0.4492" stroke-miterlimit="10" stroke-linejoin="round"/>
<path d="M457.479 689.235C457.479 689.235 438.326 688.424 434.915 687.341" stroke="white" stroke-width="0.4492" stroke-miterlimit="10" stroke-linejoin="round"/>
<path d="M433.604 688.965C433.604 688.965 437.802 690.048 442.525 688.694" stroke="white" stroke-width="0.4492" stroke-miterlimit="10" stroke-linejoin="round"/>
<path d="M442.298 630C441.704 630.816 440.913 632.858 440.913 632.858C440.913 632.858 436.042 645.996 433.004 654.925L421.324 650.204C417.367 650.204 416.773 653.062 416.773 653.062C416.773 653.062 428.843 663.266 431.613 665.715C434.384 668.164 436.164 667.348 436.164 667.348C436.188 667.315 436.207 667.286 436.231 667.254C436.668 667.166 437.11 667.002 437.55 666.735C440.914 664.694 449.817 646.327 449.817 646.327L453.288 646.016" fill="white"/>
<path d="M442.298 630C441.704 630.816 440.913 632.858 440.913 632.858C440.913 632.858 436.042 645.996 433.004 654.925L421.324 650.204C417.367 650.204 416.773 653.062 416.773 653.062C416.773 653.062 428.843 663.266 431.613 665.715C434.384 668.164 436.164 667.348 436.164 667.348C436.188 667.315 436.207 667.286 436.231 667.254C436.668 667.166 437.11 667.002 437.55 666.735C440.914 664.694 449.817 646.327 449.817 646.327L453.288 646.016" stroke="#333333" stroke-width="0.8984" stroke-miterlimit="10"/>
<path d="M429.931 653.515C429.931 653.515 426.258 654.327 425.472 660.28" stroke="#333333" stroke-width="0.4492" stroke-miterlimit="10" stroke-linejoin="round"/>
<path d="M453.972 617.143C453.972 617.143 459.035 616.684 463.035 614.622C467.035 612.559 467.702 610.496 467.702 610.496" stroke="#333333" stroke-width="0.4492" stroke-miterlimit="10" stroke-linejoin="round"/>
<path d="M476.221 711.314C476.221 711.314 477.599 714.362 477.391 716.296C477.183 718.23 475.724 725.965 476.974 727.04C478.224 728.114 484.682 717.37 485.932 714.147C487.182 710.924 478.571 707.845 478.571 707.845C478.571 707.845 476.51 709.126 476.221 711.314Z" fill="white" stroke="#333333" stroke-width="0.8984" stroke-miterlimit="10"/>
<path d="M476.974 727.04C476.974 727.04 479.34 722.551 481.132 718.298C482.925 714.045 484.718 711.642 484.718 711.642" stroke="#333333" stroke-width="0.4492" stroke-miterlimit="10" stroke-linejoin="round"/>
<path d="M445.458 664.675C445.458 664.675 453.166 669.852 456.215 670.037" stroke="#333333" stroke-width="0.4492" stroke-miterlimit="10" stroke-linejoin="round"/>
<path d="M475.738 608.367C475.738 608.367 479.551 607.937 480.989 611.398C482.427 614.86 492.014 628.211 492.973 631.178C493.932 634.144 493.932 638.595 489.378 640.078C484.824 641.561 481.948 634.638 481.948 634.638L475.236 611.15" fill="white"/>
<path d="M475.738 608.367C475.738 608.367 479.551 607.937 480.989 611.398C482.427 614.86 492.014 628.211 492.973 631.178C493.932 634.144 493.932 638.595 489.378 640.078C484.824 641.561 481.948 634.638 481.948 634.638L475.236 611.15" stroke="#333333" stroke-width="0.8984" stroke-miterlimit="10"/>
<path d="M483.453 632.948C483.453 632.948 486.864 635.383 490.011 635.383" stroke="#333333" stroke-width="0.4492" stroke-miterlimit="10" stroke-linejoin="round"/>
<path d="M483.716 634.031C483.716 634.031 487.389 637.819 488.176 637.819" stroke="#333333" stroke-width="0.4492" stroke-miterlimit="10" stroke-linejoin="round"/>
<path d="M466.636 610.612C466.636 610.612 456.149 614.693 453.972 617.142C451.796 619.591 445.662 624.694 443.683 627.755C441.704 630.816 440.517 631.836 441.506 634.694C442.495 637.551 458.127 659.389 460.303 664.082C462.48 668.776 464.459 670.205 471.779 670.205C479.1 670.205 484.443 665.102 485.629 660.409C486.817 655.715 481.473 620.816 481.276 615.918C481.078 611.021 478.505 608.367 475.736 608.367C472.967 608.367 466.636 610.612 466.636 610.612Z" fill="white" stroke="#333333" stroke-width="0.8984" stroke-miterlimit="10"/>
<path d="M449.817 646.327C449.817 646.327 451.707 648.103 459.316 649.725" stroke="#333333" stroke-width="0.4492" stroke-miterlimit="10" stroke-linejoin="round"/>
<path d="M460.89 649.727L465.35 650.267" stroke="#333333" stroke-width="0.4492" stroke-miterlimit="10" stroke-linejoin="round"/>
<path d="M451.445 647.832C451.445 647.832 455.642 652.162 464.825 657.304" stroke="#333333" stroke-width="0.4492" stroke-miterlimit="10" stroke-linejoin="round"/>
<path d="M432.03 661.904C430.456 657.574 433.004 654.926 433.004 654.926C433.004 654.926 429.144 657.303 429.407 660.821" stroke="#333333" stroke-width="0.4492" stroke-miterlimit="10" stroke-linejoin="round"/>
<path d="M471.909 620.5C471.909 620.5 473.221 629.701 471.909 638.631" stroke="#333333" stroke-width="0.4492" stroke-miterlimit="10" stroke-linejoin="round"/>
<path d="M335.959 454.788C335.959 454.788 340.686 459.013 344.468 458.038C346.402 457.539 340.686 452.512 338.396 450.859C336.74 449.664 333.295 451.71 335.959 454.788Z" fill="#333333"/>
<path d="M296.826 472.993C296.826 472.993 294.948 479.575 295.699 483.446C296.45 487.318 299.078 483.058 299.453 480.349C299.829 477.638 299.864 471.869 299.864 471.869L296.826 472.993Z" fill="#333333"/>
<path d="M304.626 389.749C304.626 389.749 298.447 393.011 299.189 401.837C299.931 410.663 301.805 430.93 300.025 434.581C298.243 438.232 295.249 438.729 296.117 446.042C296.986 453.355 295.929 474.761 298.066 475.712C300.203 476.663 307.377 439.422 308.279 433.026C309.18 426.63 315.287 403.642 315.287 403.642C315.287 403.642 324.124 426.135 324.91 430.013C325.542 433.135 332.621 447.936 335.357 453.588C335.885 454.679 337.288 454.917 338.132 454.063C338.575 453.614 338.754 452.964 338.601 452.342C337.336 447.253 331.662 424.304 331.802 422.624C331.959 420.734 327.971 402.099 326.181 396.989C324.391 391.878 317.657 384.045 317.657 384.045L304.626 389.749Z" fill="white" stroke="#333333" stroke-width="0.6738" stroke-miterlimit="10" stroke-linecap="round" stroke-linejoin="round"/>
<path d="M289.66 336.4C289.66 336.4 280.576 340.294 283.259 345.952C285.942 351.61 291.398 349.202 292.173 352.523C292.948 355.844 284.897 364.167 287.262 369.435C289.626 374.704 291.262 377.509 290.615 381.066C289.969 384.622 286.366 388.482 289.169 392.706C291.971 396.929 295.656 399.089 301.34 398.147C307.025 397.205 310.726 365.367 307.795 354.267C304.864 343.165 295.95 336.594 293.893 336.05C291.837 335.508 289.66 336.4 289.66 336.4Z" fill="#333333"/>
<path d="M290.727 339.706C290.727 339.706 285.886 341.762 287.025 345.286C288.164 348.811 290.727 349.105 290.727 349.105" stroke="white" stroke-width="0.2246" stroke-miterlimit="10" stroke-linejoin="round"/>
<path d="M318.448 367.931C318.055 366.582 315.571 363.209 315.571 363.209L315.103 362.271C313.724 356.743 312.407 352.385 312.407 352.385L299.337 356.255L289.915 365.862L304.627 389.749C304.627 389.749 313.237 392.797 317.657 384.047C318.536 382.307 318.284 378.345 317.549 373.797C317.902 372.168 318.762 369.011 318.448 367.931Z" fill="white" stroke="#333333" stroke-width="0.6738" stroke-miterlimit="10" stroke-linecap="round" stroke-linejoin="round"/>
<path d="M300.907 363.882C302.875 363.882 304.47 362.133 304.47 359.977C304.47 357.82 302.875 356.072 300.907 356.072C298.939 356.072 297.344 357.82 297.344 359.977C297.344 362.133 298.939 363.882 300.907 363.882Z" fill="#64B5F6" stroke="#333333" stroke-width="0.4492" stroke-miterlimit="10" stroke-linecap="round"/>
<path d="M299.194 429.609C299.194 429.609 306.167 433.347 315.131 431.497C324.095 429.648 331.801 422.625 331.801 422.625C332.095 422.198 328.775 400.854 326.885 393.881C324.803 386.199 321.698 381.501 319.076 381.955C319.076 381.955 316.566 386.393 312.98 387.871C309.395 389.35 304.626 389.749 304.626 389.749C304.626 389.749 302.582 390.09 300.073 394.898C297.563 399.705 298.477 426.281 299.194 429.609Z" fill="#333333"/>
<path d="M322.438 392.564C322.438 392.564 320.457 405.586 313.773 412.224" stroke="white" stroke-width="0.2246" stroke-miterlimit="10" stroke-linejoin="round"/>
<path d="M318.725 408.65C318.725 408.65 314.764 416.82 309.07 419.118" stroke="white" stroke-width="0.2246" stroke-miterlimit="10" stroke-linejoin="round"/>
<path d="M294.35 353.107C294.35 353.107 296.295 356.76 298.241 360.413C300.186 364.066 304.44 362.508 302.995 357.353C301.549 352.197 300.008 348.193 300.008 348.193L294.35 353.107Z" fill="white" stroke="#333333" stroke-width="0.6738" stroke-miterlimit="10" stroke-linecap="round" stroke-linejoin="round"/>
<path d="M289.73 343.996C289.73 343.996 289.53 354.82 296.943 358.368C304.356 361.916 305.869 347.955 304.348 340.953C302.829 333.952 290.188 334.278 289.73 343.996Z" fill="white" stroke="#333333" stroke-width="0.6738" stroke-miterlimit="10" stroke-linecap="round" stroke-linejoin="round"/>
<path d="M292.582 339.188C292.582 339.188 296.974 345.359 299.985 347.072C302.996 348.785 304.208 351.06 304.208 351.06C304.208 351.06 305.509 352.259 306.095 362.069C306.68 371.878 314.213 373.991 314.283 368.937C314.354 363.884 313.648 355.509 313.648 355.509C313.648 355.509 314.017 346.868 308.761 338.452C303.505 330.036 289.642 332.423 287.981 335.528C286.321 338.633 292.582 339.188 292.582 339.188Z" fill="#333333"/>
<path d="M291.866 337.943C291.866 337.943 296.707 338.237 300.692 342.642C304.678 347.047 308.95 353.216 313.506 352.628" stroke="white" stroke-width="0.2246" stroke-miterlimit="10" stroke-linejoin="round"/>
<path d="M289.66 336.4C289.66 336.4 292.15 333.243 296.991 335.006C301.831 336.768 306.102 346.753 310.089 347.928" stroke="white" stroke-width="0.2246" stroke-miterlimit="10" stroke-linejoin="round"/>
<path d="M304.208 351.059C304.208 351.059 308.38 352.92 308.38 357.619C308.38 362.318 309.804 370.541 312.936 370.541" stroke="white" stroke-width="0.2246" stroke-miterlimit="10" stroke-linejoin="round"/>
<path d="M289.914 365.862C289.914 365.862 285.065 371.607 291.997 376.875C294.674 378.911 307.892 384.158 312.486 385.952C313.461 386.334 314.558 386.153 315.372 385.482L333.846 370.22C333.846 370.22 337.607 370.423 338.616 369.382C339.316 368.659 341.465 366.264 342.713 364.868C343.267 364.248 343.375 363.337 342.988 362.596C342.562 361.78 341.641 361.38 340.778 361.635L337.548 362.587L338.069 361.513C338.332 360.971 338.089 360.313 337.543 360.087C337.143 359.922 336.687 360.037 336.407 360.374L334.856 362.24L332.838 366.405L312.288 376.353L295.207 367.722" fill="white"/>
<path d="M289.914 365.862C289.914 365.862 285.065 371.607 291.997 376.875C294.674 378.911 307.892 384.158 312.486 385.952C313.461 386.334 314.558 386.153 315.372 385.482L333.846 370.22C333.846 370.22 337.607 370.423 338.616 369.382C339.316 368.659 341.465 366.264 342.713 364.868C343.267 364.248 343.375 363.337 342.988 362.596C342.562 361.78 341.641 361.38 340.778 361.635L337.548 362.587L338.069 361.513C338.332 360.971 338.089 360.313 337.543 360.087C337.143 359.922 336.687 360.037 336.407 360.374L334.856 362.24L332.838 366.405L312.288 376.353L295.207 367.722" stroke="#333333" stroke-width="0.6738" stroke-miterlimit="10" stroke-linecap="round" stroke-linejoin="round"/>
<path d="M302.402 371.415C302.402 371.415 297.024 374.188 298.279 379.735L300.071 380.66C300.071 380.66 298.996 374.188 304.195 372.525L302.402 371.415Z" fill="#64B5F6" stroke="#333333" stroke-width="0.4492" stroke-miterlimit="10" stroke-linecap="round"/>
<path d="M296.475 366.312L298.828 369.279" stroke="#333333" stroke-width="0.4492" stroke-miterlimit="10" stroke-linecap="round" stroke-linejoin="round"/>
<path d="M291.272 347C291.272 347 291.578 346.159 292.803 346.369C294.026 346.579 294.536 350.893 294.74 351.524C294.943 352.155 295.658 352.471 296.27 351.945" stroke="#333333" stroke-width="0.4492" stroke-miterlimit="10" stroke-linecap="round" stroke-linejoin="round"/>
<path d="M295.454 345.527C295.454 345.527 295.759 344.265 297.596 345.001" stroke="#333333" stroke-width="0.4492" stroke-miterlimit="10" stroke-linecap="round" stroke-linejoin="round"/>
<path d="M295.86 354.679C295.86 354.679 297.9 356.046 299.022 353.417" stroke="#333333" stroke-width="0.4492" stroke-miterlimit="10" stroke-linejoin="round"/>
<path d="M293.099 349.284C293.181 349.652 293.093 349.988 292.9 350.033C292.708 350.079 292.486 349.818 292.403 349.45C292.32 349.082 292.409 348.746 292.602 348.701C292.793 348.655 293.016 348.916 293.099 349.284Z" fill="#333333"/>
<path d="M297.739 348.075C297.822 348.443 297.733 348.779 297.54 348.824C297.349 348.87 297.126 348.609 297.044 348.241C296.961 347.873 297.05 347.539 297.242 347.492C297.434 347.445 297.657 347.707 297.739 348.075Z" fill="#333333"/>
<path d="M342.612 361.944L337.759 364.361" stroke="#333333" stroke-width="0.4492" stroke-miterlimit="10" stroke-linecap="round" stroke-linejoin="round"/>
<path d="M343.114 363.153L338.428 365.914" stroke="#333333" stroke-width="0.4492" stroke-miterlimit="10" stroke-linecap="round" stroke-linejoin="round"/>
<path d="M341.943 365.57L339.265 366.95" stroke="#333333" stroke-width="0.4492" stroke-miterlimit="10" stroke-linecap="round" stroke-linejoin="round"/>
<path d="M337.546 362.585L335.583 363.498" stroke="#333333" stroke-width="0.4492" stroke-miterlimit="10" stroke-linecap="round" stroke-linejoin="round"/>
<defs>
<linearGradient id="paint0_linear_247_183" x1="227" y1="173" x2="568.5" y2="816.5" gradientUnits="userSpaceOnUse">
<stop stop-color="#0300FF"/>
<stop offset="1" stop-color="#02007B"/>
</linearGradient>
</defs>
</svg>
