<svg width="266" height="228" viewBox="0 0 266 228" fill="none" xmlns="http://www.w3.org/2000/svg">
<path d="M71 227C71 227 142.029 225.032 165.248 193.757C189.933 160.509 140.414 120.997 165.248 87.8596C189.652 55.2969 265 57.0157 265 57.0157" stroke="#B7B7B7" stroke-width="2"/>
<path d="M48 208C48 208 118.663 206.032 141.762 174.757C166.32 141.509 117.056 101.997 141.762 68.8596C166.04 36.2969 241 38.0157 241 38.0157" stroke="#B7B7B7" stroke-width="2"/>
<path d="M24 190C24 190 95.0287 188.032 118.248 156.757C142.933 123.509 93.4142 83.9967 118.248 50.8596C142.652 18.2969 218 20.0157 218 20.0157" stroke="#B7B7B7" stroke-width="2"/>
<path d="M1 171C1 171 72.0287 169.032 95.2482 137.757C119.933 104.509 70.4142 64.9967 95.2483 31.8596C119.652 -0.703104 195 1.01571 195 1.01571" stroke="#B7B7B7" stroke-width="2"/>
</svg>
