<svg width="27" height="15" viewBox="0 0 27 15" fill="none" xmlns="http://www.w3.org/2000/svg">
<path d="M0.137784 14V0.909091H5.30256C6.29545 0.909091 7.14134 1.09872 7.8402 1.47798C8.53906 1.85298 9.07173 2.375 9.43821 3.04403C9.80895 3.70881 9.99432 4.47585 9.99432 5.34517C9.99432 6.21449 9.80682 6.98153 9.43182 7.64631C9.05682 8.31108 8.51349 8.82883 7.80185 9.19957C7.09446 9.57031 6.23793 9.75568 5.23224 9.75568H1.94034V7.53764H4.7848C5.31747 7.53764 5.75639 7.44602 6.10156 7.26278C6.45099 7.07528 6.71094 6.81747 6.88139 6.48935C7.05611 6.15696 7.14347 5.77557 7.14347 5.34517C7.14347 4.91051 7.05611 4.53125 6.88139 4.20739C6.71094 3.87926 6.45099 3.62571 6.10156 3.44673C5.75213 3.26349 5.30895 3.17188 4.77202 3.17188H2.90554V14H0.137784ZM11.7921 14V0.909091H17.0336C17.9966 0.909091 18.7999 1.05185 19.4434 1.33736C20.0868 1.62287 20.5705 2.01918 20.8944 2.52628C21.2182 3.02912 21.3801 3.60866 21.3801 4.26491C21.3801 4.77628 21.2779 5.22585 21.0733 5.61364C20.8688 5.99716 20.5875 6.3125 20.2296 6.55966C19.8759 6.80256 19.4711 6.97514 19.0151 7.07741V7.20526C19.5137 7.22656 19.9803 7.36719 20.415 7.62713C20.8539 7.88707 21.2097 8.25142 21.4824 8.72017C21.7551 9.18466 21.8915 9.73864 21.8915 10.3821C21.8915 11.0767 21.7189 11.6967 21.3738 12.2422C21.0328 12.7834 20.5279 13.2116 19.8588 13.527C19.1898 13.8423 18.3652 14 17.3851 14H11.7921ZM14.5598 11.7372H16.8162C17.5875 11.7372 18.15 11.5902 18.5037 11.2962C18.8574 10.9979 19.0343 10.6016 19.0343 10.1072C19.0343 9.74503 18.9469 9.42543 18.7722 9.14844C18.5975 8.87145 18.3482 8.65412 18.0243 8.49645C17.7047 8.33878 17.3233 8.25994 16.8801 8.25994H14.5598V11.7372ZM14.5598 6.38707H16.6117C16.9909 6.38707 17.3276 6.32102 17.6216 6.18892C17.9199 6.05256 18.1543 5.8608 18.3248 5.61364C18.4995 5.36648 18.5868 5.07031 18.5868 4.72514C18.5868 4.25213 18.4185 3.87074 18.0819 3.58097C17.7495 3.29119 17.2765 3.14631 16.6628 3.14631H14.5598V6.38707ZM25.233 14.1662C24.8111 14.1662 24.4489 14.017 24.1463 13.7188C23.848 13.4162 23.6989 13.054 23.6989 12.6321C23.6989 12.2145 23.848 11.8565 24.1463 11.5582C24.4489 11.2599 24.8111 11.1108 25.233 11.1108C25.642 11.1108 26 11.2599 26.3068 11.5582C26.6136 11.8565 26.767 12.2145 26.767 12.6321C26.767 12.9134 26.6946 13.1712 26.5497 13.4055C26.4091 13.6357 26.2237 13.821 25.9936 13.9616C25.7635 14.098 25.5099 14.1662 25.233 14.1662Z" fill="white"/>
</svg>
