<svg width="10" height="9" viewBox="0 0 10 9" fill="none" xmlns="http://www.w3.org/2000/svg">
<path d="M1.375 5.11865L7.625 5.11864L5.56875 7.1749C5.51017 7.233 5.46367 7.30212 5.43194 7.37829C5.40021 7.45445 5.38388 7.53614 5.38388 7.61865C5.38388 7.70115 5.40021 7.78284 5.43194 7.85901C5.46367 7.93517 5.51017 8.00429 5.56875 8.0624C5.68585 8.1788 5.84426 8.24414 6.00937 8.24414C6.17449 8.24414 6.3329 8.1788 6.45 8.0624L9.13125 5.37489C9.36599 5.14155 9.4986 4.82463 9.5 4.49364C9.49696 4.16483 9.36447 3.85046 9.13125 3.61865L6.45 0.931144C6.39172 0.87328 6.32262 0.827462 6.24664 0.796303C6.17066 0.765145 6.08929 0.749257 6.00716 0.749547C5.92504 0.749837 5.84378 0.7663 5.76802 0.797995C5.69226 0.829689 5.62349 0.875996 5.56562 0.93427C5.50776 0.992544 5.46194 1.06164 5.43078 1.13763C5.39962 1.21361 5.38374 1.29498 5.38403 1.37711C5.38432 1.45923 5.40078 1.54049 5.43247 1.61625C5.46417 1.69201 5.51048 1.76078 5.56875 1.81864L7.625 3.86864L1.375 3.86865C1.20924 3.86865 1.05027 3.93449 0.933056 4.0517C0.815846 4.16891 0.749999 4.32789 0.749999 4.49365C0.749999 4.65941 0.815846 4.81838 0.933057 4.93559C1.05027 5.0528 1.20924 5.11865 1.375 5.11865Z" fill="white"/>
</svg>
