<svg width="106" height="18" viewBox="0 0 106 18" fill="none" xmlns="http://www.w3.org/2000/svg">
<path d="M0.137784 14V0.909091H5.30256C6.29545 0.909091 7.14134 1.09872 7.8402 1.47798C8.53906 1.85298 9.07173 2.375 9.43821 3.04403C9.80895 3.70881 9.99432 4.47585 9.99432 5.34517C9.99432 6.21449 9.80682 6.98153 9.43182 7.64631C9.05682 8.31108 8.51349 8.82883 7.80185 9.19957C7.09446 9.57031 6.23793 9.75568 5.23224 9.75568H1.94034V7.53764H4.7848C5.31747 7.53764 5.75639 7.44602 6.10156 7.26278C6.45099 7.07528 6.71094 6.81747 6.88139 6.48935C7.05611 6.15696 7.14347 5.77557 7.14347 5.34517C7.14347 4.91051 7.05611 4.53125 6.88139 4.20739C6.71094 3.87926 6.45099 3.62571 6.10156 3.44673C5.75213 3.26349 5.30895 3.17188 4.77202 3.17188H2.90554V14H0.137784ZM14.277 14.1854C13.6506 14.1854 13.0923 14.0767 12.6023 13.8594C12.1122 13.6378 11.7244 13.3118 11.4389 12.8814C11.1577 12.4467 11.017 11.9055 11.017 11.2578C11.017 10.7124 11.1172 10.2543 11.3175 9.88352C11.5178 9.51278 11.7905 9.21449 12.1357 8.98864C12.4808 8.76278 12.8729 8.59233 13.3118 8.47727C13.755 8.36222 14.2195 8.28125 14.7053 8.23438C15.2763 8.17472 15.7365 8.11932 16.0859 8.06818C16.4354 8.01278 16.6889 7.93182 16.8466 7.82528C17.0043 7.71875 17.0831 7.56108 17.0831 7.35227V7.31392C17.0831 6.90909 16.9553 6.59588 16.6996 6.37429C16.4482 6.1527 16.0902 6.0419 15.6257 6.0419C15.1357 6.0419 14.7457 6.15057 14.456 6.3679C14.1662 6.58097 13.9744 6.84943 13.8807 7.1733L11.3622 6.96875C11.4901 6.37216 11.7415 5.85653 12.1165 5.42188C12.4915 4.98295 12.9751 4.64631 13.5675 4.41193C14.1641 4.1733 14.8544 4.05398 15.6385 4.05398C16.1839 4.05398 16.706 4.1179 17.2045 4.24574C17.7074 4.37358 18.1527 4.57173 18.5405 4.8402C18.9325 5.10866 19.2415 5.45384 19.4673 5.87571C19.6932 6.29332 19.8061 6.79403 19.8061 7.37784V14H17.2237V12.6385H17.147C16.9893 12.9453 16.7784 13.2159 16.5142 13.4503C16.25 13.6804 15.9325 13.8615 15.5618 13.9936C15.1911 14.1214 14.7628 14.1854 14.277 14.1854ZM15.0568 12.3061C15.4574 12.3061 15.8111 12.2273 16.1179 12.0696C16.4247 11.9077 16.6655 11.6903 16.8402 11.4176C17.0149 11.1449 17.1023 10.8359 17.1023 10.4908V9.44886C17.017 9.50426 16.8999 9.5554 16.7507 9.60227C16.6058 9.64489 16.4418 9.68537 16.2585 9.72372C16.0753 9.75781 15.892 9.78977 15.7088 9.8196C15.5256 9.84517 15.3594 9.86861 15.2102 9.88991C14.8906 9.93679 14.6115 10.0114 14.3729 10.1136C14.1342 10.2159 13.9489 10.3544 13.8168 10.5291C13.6847 10.6996 13.6186 10.9126 13.6186 11.1683C13.6186 11.5391 13.7528 11.8224 14.0213 12.0185C14.294 12.2102 14.6392 12.3061 15.0568 12.3061ZM21.9187 17.6818V4.18182H24.6033V5.83097H24.7248C24.8441 5.56676 25.0167 5.2983 25.2425 5.02557C25.4727 4.74858 25.771 4.51847 26.1374 4.33523C26.5082 4.14773 26.9684 4.05398 27.5181 4.05398C28.234 4.05398 28.8945 4.24148 29.4996 4.61648C30.1048 4.98722 30.5884 5.54759 30.9506 6.29759C31.3129 7.04332 31.494 7.97869 31.494 9.10369C31.494 10.1989 31.3171 11.1236 30.9634 11.8778C30.614 12.6278 30.1367 13.1967 29.5316 13.5845C28.9308 13.968 28.2575 14.1598 27.5117 14.1598C26.9833 14.1598 26.5337 14.0724 26.163 13.8977C25.7965 13.723 25.4961 13.5036 25.2617 13.2393C25.0273 12.9709 24.8484 12.7003 24.7248 12.4276H24.6417V17.6818H21.9187ZM24.5842 9.09091C24.5842 9.67472 24.6651 10.1839 24.8271 10.6186C24.989 11.0533 25.2234 11.392 25.5302 11.6349C25.837 11.8736 26.2099 11.9929 26.6488 11.9929C27.092 11.9929 27.467 11.8714 27.7738 11.6286C28.0806 11.3814 28.3129 11.0405 28.4705 10.6058C28.6325 10.1669 28.7134 9.66193 28.7134 9.09091C28.7134 8.52415 28.6346 8.02557 28.4769 7.59517C28.3192 7.16477 28.087 6.82812 27.7802 6.58523C27.4734 6.34233 27.0962 6.22088 26.6488 6.22088C26.2056 6.22088 25.8306 6.33807 25.5238 6.57244C25.2212 6.80682 24.989 7.1392 24.8271 7.5696C24.6651 8 24.5842 8.5071 24.5842 9.09091ZM37.7837 14.1918C36.7738 14.1918 35.9045 13.9872 35.1758 13.5781C34.4513 13.1648 33.8931 12.581 33.5011 11.8267C33.109 11.0682 32.913 10.1712 32.913 9.13565C32.913 8.12571 33.109 7.23935 33.5011 6.47656C33.8931 5.71378 34.445 5.11932 35.1566 4.69318C35.8725 4.26705 36.712 4.05398 37.6751 4.05398C38.3228 4.05398 38.9258 4.15838 39.484 4.36719C40.0465 4.57173 40.5366 4.88068 40.9542 5.29403C41.3761 5.70739 41.7042 6.22727 41.9386 6.85369C42.1729 7.47585 42.2901 8.20455 42.2901 9.03977V9.78764H33.9996V8.10014H39.7269C39.7269 7.7081 39.6417 7.3608 39.4712 7.05824C39.3008 6.75568 39.0643 6.51918 38.7617 6.34872C38.4634 6.17401 38.1161 6.08665 37.7198 6.08665C37.3065 6.08665 36.94 6.18253 36.6204 6.37429C36.305 6.56179 36.0579 6.81534 35.8789 7.13494C35.6999 7.45028 35.6083 7.80185 35.604 8.18963V9.79403C35.604 10.2798 35.6935 10.6996 35.8725 11.0533C36.0558 11.407 36.3136 11.6797 36.646 11.8714C36.9783 12.0632 37.3725 12.1591 37.8285 12.1591C38.131 12.1591 38.408 12.1165 38.6594 12.0312C38.9109 11.946 39.1261 11.8182 39.305 11.6477C39.484 11.4773 39.6204 11.2685 39.7141 11.0213L42.2326 11.1875C42.1048 11.7926 41.8427 12.321 41.4464 12.7727C41.0543 13.2202 40.5472 13.5696 39.9251 13.821C39.3072 14.0682 38.5934 14.1918 37.7837 14.1918ZM44.0671 14V4.18182H46.707V5.89489H46.8093C46.9883 5.28551 47.2887 4.82528 47.7106 4.5142C48.1325 4.19886 48.6183 4.04119 49.168 4.04119C49.3043 4.04119 49.4513 4.04972 49.609 4.06676C49.7667 4.08381 49.9052 4.10724 50.0245 4.13707V6.55327C49.8967 6.51491 49.7198 6.48082 49.494 6.45099C49.2681 6.42116 49.0614 6.40625 48.8739 6.40625C48.4734 6.40625 48.1154 6.49361 47.8001 6.66832C47.489 6.83878 47.2418 7.07741 47.0586 7.38423C46.8796 7.69105 46.7901 8.04474 46.7901 8.44531V14H44.0671ZM51.4835 14V0.909091H56.725C57.688 0.909091 58.4913 1.05185 59.1348 1.33736C59.7782 1.62287 60.2619 2.01918 60.5858 2.52628C60.9096 3.02912 61.0716 3.60866 61.0716 4.26491C61.0716 4.77628 60.9693 5.22585 60.7647 5.61364C60.5602 5.99716 60.2789 6.3125 59.921 6.55966C59.5673 6.80256 59.1625 6.97514 58.7065 7.07741V7.20526C59.2051 7.22656 59.6717 7.36719 60.1064 7.62713C60.5453 7.88707 60.9011 8.25142 61.1738 8.72017C61.4466 9.18466 61.5829 9.73864 61.5829 10.3821C61.5829 11.0767 61.4103 11.6967 61.0652 12.2422C60.7243 12.7834 60.2193 13.2116 59.5502 13.527C58.8812 13.8423 58.0566 14 57.0765 14H51.4835ZM54.2512 11.7372H56.5076C57.2789 11.7372 57.8414 11.5902 58.1951 11.2962C58.5488 10.9979 58.7257 10.6016 58.7257 10.1072C58.7257 9.74503 58.6383 9.42543 58.4636 9.14844C58.2889 8.87145 58.0396 8.65412 57.7157 8.49645C57.3961 8.33878 57.0147 8.25994 56.5716 8.25994H54.2512V11.7372ZM54.2512 6.38707H56.3031C56.6824 6.38707 57.019 6.32102 57.313 6.18892C57.6113 6.05256 57.8457 5.8608 58.0162 5.61364C58.1909 5.36648 58.2782 5.07031 58.2782 4.72514C58.2782 4.25213 58.1099 3.87074 57.7733 3.58097C57.4409 3.29119 56.9679 3.14631 56.3542 3.14631H54.2512V6.38707ZM63.3327 14V4.18182H65.9727V5.89489H66.0749C66.2539 5.28551 66.5543 4.82528 66.9762 4.5142C67.3981 4.19886 67.8839 4.04119 68.4336 4.04119C68.57 4.04119 68.717 4.04972 68.8746 4.06676C69.0323 4.08381 69.1708 4.10724 69.2901 4.13707V6.55327C69.1623 6.51491 68.9854 6.48082 68.7596 6.45099C68.5337 6.42116 68.3271 6.40625 68.1396 6.40625C67.739 6.40625 67.381 6.49361 67.0657 6.66832C66.7546 6.83878 66.5075 7.07741 66.3242 7.38423C66.1452 7.69105 66.0558 8.04474 66.0558 8.44531V14H63.3327ZM74.677 14.1918C73.6841 14.1918 72.8255 13.9808 72.101 13.5589C71.3809 13.1328 70.8248 12.5405 70.4327 11.782C70.0407 11.0192 69.8446 10.1349 69.8446 9.12926C69.8446 8.11506 70.0407 7.22869 70.4327 6.47017C70.8248 5.70739 71.3809 5.11506 72.101 4.69318C72.8255 4.26705 73.6841 4.05398 74.677 4.05398C75.6699 4.05398 76.5265 4.26705 77.2466 4.69318C77.9711 5.11506 78.5293 5.70739 78.9213 6.47017C79.3134 7.22869 79.5094 8.11506 79.5094 9.12926C79.5094 10.1349 79.3134 11.0192 78.9213 11.782C78.5293 12.5405 77.9711 13.1328 77.2466 13.5589C76.5265 13.9808 75.6699 14.1918 74.677 14.1918ZM74.6898 12.0824C75.1415 12.0824 75.5186 11.9545 75.8212 11.6989C76.1238 11.4389 76.3517 11.0852 76.5051 10.6378C76.6628 10.1903 76.7417 9.68111 76.7417 9.11009C76.7417 8.53906 76.6628 8.02983 76.5051 7.58239C76.3517 7.13494 76.1238 6.78125 75.8212 6.52131C75.5186 6.26136 75.1415 6.13139 74.6898 6.13139C74.2338 6.13139 73.8503 6.26136 73.5392 6.52131C73.2324 6.78125 73.0002 7.13494 72.8425 7.58239C72.6891 8.02983 72.6124 8.53906 72.6124 9.11009C72.6124 9.68111 72.6891 10.1903 72.8425 10.6378C73.0002 11.0852 73.2324 11.4389 73.5392 11.6989C73.8503 11.9545 74.2338 12.0824 74.6898 12.0824ZM85.7161 14.1918C84.7104 14.1918 83.8453 13.9787 83.1209 13.5526C82.4007 13.1222 81.8468 12.5256 81.459 11.7628C81.0755 11 80.8837 10.1222 80.8837 9.12926C80.8837 8.12358 81.0776 7.24148 81.4654 6.48295C81.8574 5.72017 82.4135 5.12571 83.1337 4.69957C83.8539 4.26918 84.7104 4.05398 85.7033 4.05398C86.5598 4.05398 87.3098 4.20952 87.9533 4.5206C88.5968 4.83168 89.106 5.26847 89.481 5.83097C89.856 6.39347 90.0627 7.05398 90.101 7.8125H87.5314C87.459 7.32244 87.2672 6.92827 86.9561 6.62997C86.6493 6.32741 86.2466 6.17614 85.748 6.17614C85.3262 6.17614 84.9576 6.29119 84.6422 6.52131C84.3311 6.74716 84.0882 7.07741 83.9135 7.51207C83.7388 7.94673 83.6515 8.47301 83.6515 9.09091C83.6515 9.71733 83.7367 10.25 83.9071 10.6889C84.0819 11.1278 84.3269 11.4624 84.6422 11.6925C84.9576 11.9226 85.3262 12.0376 85.748 12.0376C86.0591 12.0376 86.3382 11.9737 86.5854 11.8459C86.8368 11.718 87.0435 11.5327 87.2054 11.2898C87.3716 11.0426 87.4803 10.7464 87.5314 10.4013H90.101C90.0584 11.1513 89.8539 11.8118 89.4874 12.3828C89.1252 12.9496 88.6245 13.3928 87.9853 13.7124C87.3461 14.032 86.5897 14.1918 85.7161 14.1918ZM94.3118 11.1747L94.3182 7.90838H94.7145L97.8594 4.18182H100.985L96.7599 9.11648H96.1143L94.3118 11.1747ZM91.8445 14V0.909091H94.5675V14H91.8445ZM97.9808 14L95.0916 9.72372L96.907 7.79972L101.17 14H97.9808ZM103.913 14.1662C103.491 14.1662 103.129 14.017 102.826 13.7188C102.528 13.4162 102.379 13.054 102.379 12.6321C102.379 12.2145 102.528 11.8565 102.826 11.5582C103.129 11.2599 103.491 11.1108 103.913 11.1108C104.322 11.1108 104.68 11.2599 104.987 11.5582C105.293 11.8565 105.447 12.2145 105.447 12.6321C105.447 12.9134 105.374 13.1712 105.229 13.4055C105.089 13.6357 104.903 13.821 104.673 13.9616C104.443 14.098 104.19 14.1662 103.913 14.1662Z" fill="white"/>
</svg>
