<svg width="10" height="9" viewBox="0 0 10 9" fill="none" xmlns="http://www.w3.org/2000/svg">
<path d="M8.875 3.87501H2.625L4.68125 1.81876C4.73983 1.76066 4.78633 1.69153 4.81806 1.61537C4.84979 1.53921 4.86612 1.45751 4.86612 1.37501C4.86612 1.2925 4.84979 1.21081 4.81806 1.13465C4.78633 1.05848 4.73983 0.989359 4.68125 0.931257C4.56415 0.81485 4.40574 0.749512 4.24063 0.749512C4.07551 0.749512 3.9171 0.81485 3.8 0.931257L1.11875 3.61876C0.884008 3.8521 0.751395 4.16902 0.75 4.50001C0.753042 4.82882 0.885528 5.1432 1.11875 5.37501L3.8 8.06251C3.85827 8.12037 3.92737 8.16619 4.00336 8.19735C4.07934 8.22851 4.16071 8.2444 4.24283 8.24411C4.32496 8.24382 4.40622 8.22735 4.48198 8.19566C4.55774 8.16396 4.62651 8.11766 4.68438 8.05938C4.74224 8.00111 4.78806 7.93201 4.81922 7.85603C4.85038 7.78004 4.86626 7.69867 4.86597 7.61655C4.86568 7.53443 4.84922 7.45317 4.81753 7.37741C4.78583 7.30165 4.73952 7.23287 4.68125 7.17501L2.625 5.12501H8.875C9.04076 5.12501 9.19973 5.05916 9.31694 4.94195C9.43415 4.82474 9.5 4.66577 9.5 4.50001C9.5 4.33425 9.43415 4.17528 9.31694 4.05807C9.19973 3.94086 9.04076 3.87501 8.875 3.87501Z" fill="white"/>
</svg>
